<?xml version="1.0" encoding="UTF-8" standalone="no"?>
<svg
   xmlns:dc="http://purl.org/dc/elements/1.1/"
   xmlns:cc="http://creativecommons.org/ns#"
   xmlns:rdf="http://www.w3.org/1999/02/22-rdf-syntax-ns#"
   xmlns:svg="http://www.w3.org/2000/svg"
   xmlns="http://www.w3.org/2000/svg"
   xmlns:sodipodi="http://sodipodi.sourceforge.net/DTD/sodipodi-0.dtd"
   xmlns:inkscape="http://www.inkscape.org/namespaces/inkscape"
   version="1.1"
   x="0px"
   y="0px"
   viewBox="0 0 100 100"
   enable-background="new 0 0 100 100"
   xml:space="preserve"
   id="svg346"
   sodipodi:docname="steam.svg"
   inkscape:version="0.92.3 (2405546, 2018-03-11)"><metadata
     id="metadata352"><rdf:RDF><cc:Work
         rdf:about=""><dc:format>image/svg+xml</dc:format><dc:type
           rdf:resource="http://purl.org/dc/dcmitype/StillImage" /></cc:Work></rdf:RDF></metadata><defs
     id="defs350" /><sodipodi:namedview
     pagecolor="#ffffff"
     bordercolor="#666666"
     borderopacity="1"
     objecttolerance="10"
     gridtolerance="10"
     guidetolerance="10"
     inkscape:pageopacity="0"
     inkscape:pageshadow="2"
     inkscape:window-width="640"
     inkscape:window-height="480"
     id="namedview348"
     showgrid="false"
     inkscape:zoom="2.36"
     inkscape:cx="50"
     inkscape:cy="50"
     inkscape:window-x="67"
     inkscape:window-y="27"
     inkscape:window-maximized="0"
     inkscape:current-layer="svg346" /><path
     d="m 23.023,60.637 c 0.008,0.021 0.016,0.039 0.022,0.059 z"
     id="path2"
     inkscape:connector-curvature="0" /><path
     d="m 14.182,57.098 c 0.028,-0.012 0.061,-0.025 0.09,-0.037 z"
     id="path4"
     inkscape:connector-curvature="0" /><path
     d="M 10.648,65.921 C 10.64,65.9 10.632,65.879 10.624,65.859 Z"
     id="path6"
     inkscape:connector-curvature="0" /><path
     d="m 12.068,58.531 c 0.009,-0.006 0.017,-0.016 0.022,-0.021 z"
     id="path8"
     inkscape:connector-curvature="0" /><path
     d="m 21.588,58.516 c 0.003,0.004 0.006,0.01 0.012,0.014 z"
     id="path10"
     inkscape:connector-curvature="0" /><path
     d="M 5.205,38.427 C 2.88,38.443 4.084,35.568 0.07,33.725 h 25.802 c 0,0 1.3,1.484 0,2.947 C 13.914,36.137 6.416,38.236 5.205,38.427 Z"
     id="path12"
     inkscape:connector-curvature="0" /><path
     d="m 38.427,57.55 c 0.021,0.011 0.035,0.022 0.056,0.034 z"
     id="path14"
     inkscape:connector-curvature="0" /><path
     d="m 29.111,59.54 c 0.02,-0.028 0.037,-0.056 0.057,-0.082 z"
     id="path16"
     inkscape:connector-curvature="0" /><path
     d="m 28.16,61.906 c 0.002,-0.012 0.004,-0.02 0.006,-0.031 z"
     id="path18"
     inkscape:connector-curvature="0" /><path
     d="m 36.053,56.589 c 0.006,0 0.012,0.002 0.018,0.003 z"
     id="path20"
     inkscape:connector-curvature="0" /><path
     d="m 40.404,66.854 c -0.012,0.021 -0.023,0.035 -0.034,0.053 z"
     id="path22"
     inkscape:connector-curvature="0" /><path
     d="m 46.203,57.012 c 0.029,-0.014 0.061,-0.027 0.091,-0.039 z"
     id="path24"
     inkscape:connector-curvature="0" /><path
     d="M 42.673,65.833 C 42.662,65.812 42.654,65.792 42.647,65.771 Z"
     id="path26"
     inkscape:connector-curvature="0" /><path
     d="M 44.093,58.443 C 44.1,58.437 44.11,58.427 44.115,58.422 Z"
     id="path28"
     inkscape:connector-curvature="0" /><path
     d="m 53.61,58.428 c 0.004,0.006 0.008,0.008 0.012,0.012 z"
     id="path30"
     inkscape:connector-curvature="0" /><path
     d="m 64.098,64.311 -2.816,1.16 c -0.039,-0.082 -0.091,-0.156 -0.151,-0.226 l 2.154,-2.149 c 0.34,0.347 0.618,0.758 0.813,1.215 z"
     id="path32"
     inkscape:connector-curvature="0" /><path
     d="m 64.1,64.312 c 0.005,0.013 0.01,0.024 0.015,0.035 z"
     id="path34"
     inkscape:connector-curvature="0" /><path
     d="m 61.129,66.539 c 0.061,-0.066 0.113,-0.145 0.153,-0.229 l 2.817,1.158 0.016,-0.037 c -0.197,0.475 -0.483,0.9 -0.836,1.264 z"
     id="path36"
     inkscape:connector-curvature="0" /><path
     d="m 60.829,66.768 c 0.081,-0.041 0.156,-0.092 0.223,-0.149 l 2.15,2.155 c -0.348,0.336 -0.753,0.61 -1.204,0.807 z"
     id="path38"
     inkscape:connector-curvature="0" /><path
     d="m 58.814,62.204 1.168,2.813 c -0.081,0.037 -0.155,0.088 -0.222,0.148 l -2.149,-2.156 c 0.347,-0.335 0.752,-0.611 1.203,-0.805 z"
     id="path40"
     inkscape:connector-curvature="0" /><path
     d="m 56.693,64.357 c 0.198,-0.478 0.483,-0.905 0.839,-1.271 l 2.149,2.156 c -0.062,0.067 -0.113,0.146 -0.153,0.228 l -2.816,-1.158 z"
     id="path42"
     inkscape:connector-curvature="0" /><path
     d="m 60.351,64.922 c -0.093,0.006 -0.183,0.023 -0.267,0.053 l -1.168,-2.812 c 0.445,-0.179 0.928,-0.278 1.435,-0.285 z"
     id="path44"
     inkscape:connector-curvature="0" /><path
     d="m 61.955,62.186 -1.213,2.795 c -0.089,-0.033 -0.183,-0.053 -0.281,-0.059 v -3.044 c 0.543,0.009 1.061,0.121 1.533,0.325 z"
     id="path46"
     inkscape:connector-curvature="0" /><path
     d="m 61.053,65.168 c -0.063,-0.059 -0.135,-0.104 -0.21,-0.143 l 1.212,-2.795 c 0.43,0.195 0.819,0.459 1.153,0.783 z"
     id="path48"
     inkscape:connector-curvature="0" /><path
     d="m 58.819,62.202 c 0.018,-0.009 0.037,-0.017 0.055,-0.022 z"
     id="path50"
     inkscape:connector-curvature="0" /><path
     d="m 59.436,65.947 c 0.005,0.092 0.023,0.178 0.052,0.262 l -2.814,1.161 c -0.175,-0.44 -0.275,-0.92 -0.283,-1.421 z"
     id="path52"
     inkscape:connector-curvature="0" /><path
     d="M 56.712,67.471 C 56.706,67.457 56.701,67.446 56.695,67.434 Z"
     id="path54"
     inkscape:connector-curvature="0" /><path
     d="m 56.673,64.417 2.815,1.157 c -0.029,0.082 -0.046,0.171 -0.052,0.263 l -3.045,0.002 c 0.008,-0.502 0.107,-0.982 0.282,-1.422 z"
     id="path56"
     inkscape:connector-curvature="0" /><path
     d="m 57.559,63.057 c 0.005,-0.002 0.01,-0.008 0.014,-0.012 z"
     id="path58"
     inkscape:connector-curvature="0" /><path
     d="m 63.242,63.048 c 0.002,0.002 0.004,0.005 0.007,0.007 z"
     id="path60"
     inkscape:connector-curvature="0" /><path
     d="m 60.461,66.859 c 0.093,-0.004 0.182,-0.021 0.266,-0.053 l 1.168,2.812 c -0.444,0.178 -0.928,0.277 -1.434,0.285 z"
     id="path62"
     inkscape:connector-curvature="0" /><path
     d="m 60.069,66.805 c 0.088,0.032 0.183,0.051 0.281,0.057 v 3.045 c -0.529,-0.008 -1.034,-0.115 -1.494,-0.309 z"
     id="path64"
     inkscape:connector-curvature="0" /><path
     d="m 59.529,66.312 c 0.04,0.082 0.091,0.158 0.151,0.226 l -2.154,2.151 c -0.34,-0.352 -0.618,-0.762 -0.812,-1.217 z"
     id="path66"
     inkscape:connector-curvature="0" /><path
     d="M 61.983,69.585 C 61.972,69.59 61.96,69.594 61.948,69.6 Z"
     id="path68"
     inkscape:connector-curvature="0" /><path
     d="m 59.758,66.615 c 0.063,0.057 0.134,0.105 0.21,0.144 l -1.212,2.791 c -0.43,-0.192 -0.818,-0.459 -1.153,-0.784 z"
     id="path70"
     inkscape:connector-curvature="0" /><path
     d="m 58.855,69.596 c -0.01,-0.004 -0.02,-0.008 -0.03,-0.011 z"
     id="path72"
     inkscape:connector-curvature="0" /><path
     d="m 80.001,64.311 -2.816,1.16 c -0.04,-0.082 -0.091,-0.156 -0.151,-0.226 l 2.155,-2.149 c 0.339,0.347 0.618,0.758 0.812,1.215 z"
     id="path74"
     inkscape:connector-curvature="0" /><path
     d="m 80.003,64.312 c 0.005,0.013 0.009,0.024 0.014,0.035 z"
     id="path76"
     inkscape:connector-curvature="0" /><path
     d="m 77.279,65.836 c -0.005,-0.093 -0.023,-0.182 -0.052,-0.262 l 2.814,-1.16 c 0.175,0.439 0.274,0.918 0.282,1.419 z"
     id="path78"
     inkscape:connector-curvature="0" /><path
     d="m 80.043,67.365 -2.816,-1.156 c 0.029,-0.084 0.047,-0.171 0.052,-0.264 l 3.044,-0.002 c -0.007,0.502 -0.106,0.982 -0.28,1.422 z"
     id="path80"
     inkscape:connector-curvature="0" /><path
     d="m 77.033,66.539 c 0.062,-0.066 0.113,-0.145 0.153,-0.229 l 2.817,1.158 0.016,-0.037 c -0.197,0.475 -0.483,0.9 -0.836,1.264 z"
     id="path82"
     inkscape:connector-curvature="0" /><path
     d="m 76.732,66.768 c 0.081,-0.041 0.155,-0.092 0.223,-0.149 l 2.15,2.155 c -0.347,0.336 -0.754,0.61 -1.204,0.807 z"
     id="path84"
     inkscape:connector-curvature="0" /><path
     d="m 74.717,62.204 1.169,2.813 c -0.081,0.037 -0.156,0.088 -0.223,0.148 l -2.149,-2.156 c 0.347,-0.335 0.753,-0.611 1.203,-0.805 z"
     id="path86"
     inkscape:connector-curvature="0" /><path
     d="m 72.598,64.357 c 0.196,-0.478 0.483,-0.905 0.838,-1.271 l 2.149,2.156 c -0.061,0.067 -0.112,0.146 -0.153,0.228 l -2.816,-1.158 z"
     id="path88"
     inkscape:connector-curvature="0" /><path
     d="m 76.254,64.922 c -0.093,0.006 -0.182,0.023 -0.266,0.053 L 74.82,62.163 c 0.444,-0.179 0.927,-0.278 1.434,-0.285 v 3.044 z"
     id="path90"
     inkscape:connector-curvature="0" /><path
     d="m 77.858,62.186 -1.213,2.795 c -0.089,-0.033 -0.183,-0.053 -0.282,-0.059 v -3.044 c 0.544,0.009 1.062,0.121 1.534,0.325 z"
     id="path92"
     inkscape:connector-curvature="0" /><path
     d="m 76.957,65.168 c -0.063,-0.059 -0.135,-0.104 -0.211,-0.143 l 1.212,-2.795 c 0.43,0.195 0.819,0.459 1.153,0.783 z"
     id="path94"
     inkscape:connector-curvature="0" /><path
     d="m 74.723,62.202 c 0.018,-0.009 0.036,-0.017 0.054,-0.022 z"
     id="path96"
     inkscape:connector-curvature="0" /><path
     d="m 73.462,63.057 c 0.004,-0.002 0.01,-0.008 0.014,-0.012 z"
     id="path98"
     inkscape:connector-curvature="0" /><path
     d="m 79.146,63.048 c 0.002,0.002 0.004,0.005 0.007,0.007 z"
     id="path100"
     inkscape:connector-curvature="0" /><path
     d="m 76.364,66.859 c 0.093,-0.004 0.183,-0.021 0.267,-0.053 l 1.168,2.812 c -0.445,0.178 -0.928,0.277 -1.435,0.285 z"
     id="path102"
     inkscape:connector-curvature="0" /><path
     d="m 75.974,66.805 c 0.087,0.032 0.182,0.051 0.28,0.057 v 3.045 C 75.725,69.899 75.221,69.792 74.76,69.598 Z"
     id="path104"
     inkscape:connector-curvature="0" /><path
     d="m 75.433,66.312 c 0.04,0.082 0.091,0.158 0.151,0.226 l -2.154,2.151 c -0.34,-0.352 -0.619,-0.762 -0.813,-1.217 z"
     id="path106"
     inkscape:connector-curvature="0" /><path
     d="M 77.887,69.585 C 77.876,69.59 77.864,69.594 77.852,69.6 Z"
     id="path108"
     inkscape:connector-curvature="0" /><path
     d="m 75.662,66.615 c 0.063,0.057 0.135,0.105 0.211,0.144 l -1.212,2.791 c -0.43,-0.192 -0.819,-0.459 -1.153,-0.784 z"
     id="path110"
     inkscape:connector-curvature="0" /><path
     d="m 74.758,69.596 c -0.01,-0.004 -0.02,-0.008 -0.029,-0.011 z"
     id="path112"
     inkscape:connector-curvature="0" /><g
     id="g126"
     transform="matrix(-1,0,0,1,98.043,0)"><polygon
       points="3,69.755 17.058,69.755 17.058,68.521 4.235,68.521 "
       id="polygon114" /><polyline
       points="16.912,61.445 4.466,68.338 6.655,68.338  "
       id="polyline116" /><polygon
       points="8.129,68.338 9.964,68.338 16.912,61.445 "
       id="polygon118" /><g
       id="g122"><polygon
         points="11.384,68.338 13.148,68.338 16.912,61.445 "
         id="polygon120" /></g><path
       d="m 15.804,65.471 c -0.232,0.686 -1.105,2.867 -1.105,2.867 h 2.359 l -0.006,-2.549 c 0,-1.873 1.106,-3.486 2.7,-4.227 -0.877,0.147 -2.957,1.122 -3.948,3.909 z"
       id="path124"
       inkscape:connector-curvature="0" /></g><path
     d="m 77.981,54.826 v -9.147 c 2.167,4.107 2.217,5.04 0,9.147 z"
     id="path128"
     inkscape:connector-curvature="0" /><path
     d="m 64.183,36.8 c -0.004,-0.06 -0.014,-0.121 -0.014,-0.18 v -10e-4 -2.112 c 0,-0.959 0.698,-1.494 1.983,-1.494 h 4.469 c 1.284,0 1.982,0.535 1.982,1.494 v 2.112 10e-4 c 0,0.059 -0.01,0.121 -0.014,0.18 z"
     id="path130"
     inkscape:connector-curvature="0" /><rect
     x="-25.862999"
     y="48.654999"
     width="2.1040001"
     height="5.1479998"
     id="rect132"
     transform="scale(-1,1)" /><rect
     x="-30.950996"
     y="48.654999"
     width="2.342"
     height="5.1479998"
     id="rect134"
     transform="scale(-1,1)" /><rect
     x="-28.417"
     y="48.654999"
     width="2.3599999"
     height="5.1479998"
     id="rect136"
     transform="scale(-1,1)" /><rect
     x="-48.856998"
     y="48.654999"
     width="2.375"
     height="5.1479998"
     id="rect138"
     transform="scale(-1,1)" /><rect
     x="-51.411999"
     y="48.654999"
     width="2.3599999"
     height="5.1479998"
     id="rect140"
     transform="scale(-1,1)" /><rect
     x="-53.946999"
     y="48.654999"
     width="2.3410001"
     height="5.1479998"
     id="rect142"
     transform="scale(-1,1)" /><rect
     x="-56.460999"
     y="48.654999"
     width="2.3210001"
     height="5.1479998"
     id="rect144"
     transform="scale(-1,1)" /><rect
     x="-33.519997"
     y="48.654999"
     width="2.3729999"
     height="5.1479998"
     id="rect146"
     transform="scale(-1,1)" /><rect
     x="-46.290001"
     y="48.654999"
     width="2.3399999"
     height="5.1479998"
     id="rect148"
     transform="scale(-1,1)" /><rect
     x="-38.606998"
     y="48.654999"
     width="2.3399999"
     height="5.1479998"
     id="rect150"
     transform="scale(-1,1)" /><rect
     x="-36.071999"
     y="48.654999"
     width="2.359"
     height="5.1479998"
     id="rect152"
     transform="scale(-1,1)" /><rect
     x="-43.756001"
     y="48.654999"
     width="2.359"
     height="5.1479998"
     id="rect154"
     transform="scale(-1,1)" /><rect
     x="-41.202"
     y="48.654999"
     width="2.4000001"
     height="5.1479998"
     id="rect156"
     transform="scale(-1,1)" /><path
     d="m 59.952,57.639 h 22.35 c 0.867,0 1.571,0.705 1.571,1.57 0,0.869 -0.704,1.57 -1.571,1.57 h -22.35 v 0.48 c -1.469,0.143 -2.733,0.967 -3.481,2.151 v -2.632 -3.143 h 3.481 z"
     id="path158"
     inkscape:connector-curvature="0" /><path
     d="m 61.34,65.66 c -0.007,-0.028 -0.008,-0.061 -0.017,-0.086 l 2.814,-1.16 c 0.155,0.389 0.247,0.809 0.271,1.246 z"
     id="path160"
     inkscape:connector-curvature="0" /><g
     id="g166"
     transform="matrix(-1,0,0,1,98.043,0)"><polygon
       points="74.283,47.395 20.388,47.395 20.388,54.854 74.283,54.854 74.283,54.089 40.674,54.089 40.674,53.803 41.388,53.803 41.388,48.655 40.674,48.655 40.674,48.369 74.283,48.369 "
       id="polygon162" /><path
       d="m 74.283,45.649 h -9.141 v -0.787 h 9.105 V 44.147 H 65.142 64.29 62.682 V 40.93 c 0,-0.234 -0.8,-1.494 -1.854,-2.189 l 0.005,-0.979 h -0.88 V 36.326 H 59.95 c 0,-0.241 -0.193,-0.437 -0.436,-0.437 -0.244,0 -0.437,0.195 -0.437,0.437 h -0.003 v 1.436 h -0.959 v 0.967 c -1.045,0.664 -1.819,1.858 -1.819,2.201 v 3.217 h -7.702 -0.853 -1.097 v -2.774 h 0.191 c 0.239,0 0.433,-0.115 0.433,-0.256 0,-0.142 -0.194,-0.256 -0.433,-0.256 h -0.202 c -0.118,-0.492 -1.299,-2.587 -2.543,-2.587 -1.278,0 -2.455,2.002 -2.545,2.587 h -0.2 c -0.239,0 -0.433,0.114 -0.433,0.256 0,0.141 0.194,0.256 0.433,0.256 h 0.19 v 2.774 h -5.25 -0.853 -0.384 c -0.561,-0.015 -1.53,0.266 -1.759,1.502 h -2.242 v -1.164 c 0,-2.994 2.343,-5.338 2.758,-7.303 H 25.51 c 0.415,1.965 2.758,4.309 2.758,7.303 v 1.164 h -7.879 v 1.517 h 53.896 v -1.517 z m -38.85,0 h -1.381 c 0.115,-0.386 0.383,-0.787 0.997,-0.787 h 0.384 z m 6.102,0 h -5.25 v -0.787 h 5.25 z m 6.206,0 h -1.097 v -0.787 h 1.097 z m 8.555,0 h -7.702 v -0.787 h 7.702 z m 7.994,0 h -1.608 v -0.787 h 1.608 z"
       id="path164"
       inkscape:connector-curvature="0" /></g><path
     d="m 64.409,66.111 c -0.024,0.441 -0.115,0.863 -0.271,1.254 l -2.815,-1.156 c 0.01,-0.029 0.011,-0.062 0.019,-0.098 z"
     id="path168"
     inkscape:connector-curvature="0" /><g
     id="g174"
     transform="matrix(-1,0,0,1,98.043,0)"><path
       d="m 26.342,65.66 h 6.798 c 0.089,-1.854 1.206,-3.438 2.795,-4.189 L 23.533,61.464 c 1.597,0.75 2.72,2.339 2.809,4.196 z"
       id="path170"
       inkscape:connector-curvature="0" /><path
       d="m 26.336,66.111 c -0.034,0.789 -0.246,1.533 -0.611,2.182 h 8.03 C 33.391,67.645 33.179,66.9 33.145,66.111 Z"
       id="path172"
       inkscape:connector-curvature="0" /></g><path
     d="m 75.373,66.111 c 0.007,0.033 0.009,0.068 0.019,0.098 L 72.579,67.37 C 72.423,66.976 72.33,66.555 72.307,66.111 Z"
     id="path176"
     inkscape:connector-curvature="0" /><path
     d="m 72.306,65.66 c 0.025,-0.438 0.116,-0.855 0.271,-1.243 l 2.815,1.157 c -0.009,0.025 -0.01,0.058 -0.017,0.086 z"
     id="path178"
     inkscape:connector-curvature="0" /><g
     id="g224"
     transform="matrix(-1,0,0,1,98.043,0)"><path
       d="m 43,60.542 4.717,1.942 c 0.066,-0.137 0.152,-0.264 0.252,-0.377 l -3.607,-3.604 c -0.57,0.591 -1.036,1.276 -1.362,2.039 z"
       id="path180"
       inkscape:connector-curvature="0" /><path
       d="m 47.561,63.098 c 0.008,-0.154 0.039,-0.302 0.087,-0.441 l -4.714,-1.94 c -0.293,0.739 -0.46,1.538 -0.472,2.378 z"
       id="path182"
       inkscape:connector-curvature="0" /><path
       d="m 42.932,65.66 4.716,-1.938 c -0.048,-0.14 -0.08,-0.287 -0.087,-0.441 l -5.099,-0.004 c 0.01,0.842 0.177,1.644 0.47,2.383 z"
       id="path184"
       inkscape:connector-curvature="0" /><path
       d="m 47.972,64.275 c -0.103,-0.114 -0.189,-0.244 -0.256,-0.383 l -4.719,1.938 -0.024,-0.062 c 0.329,0.793 0.808,1.508 1.399,2.113 z"
       id="path186"
       inkscape:connector-curvature="0" /><path
       d="m 48.475,64.654 c -0.136,-0.065 -0.261,-0.15 -0.373,-0.25 l -3.6,3.609 c 0.581,0.563 1.261,1.025 2.015,1.352 z"
       id="path188"
       inkscape:connector-curvature="0" /><path
       d="m 51.85,57.016 -1.957,4.709 c 0.136,0.066 0.261,0.15 0.372,0.252 l 3.6,-3.611 c -0.58,-0.563 -1.261,-1.026 -2.015,-1.35 z"
       id="path190"
       inkscape:connector-curvature="0" /><path
       d="m 55.4,60.624 c -0.33,-0.8 -0.809,-1.521 -1.403,-2.129 l -3.601,3.61 c 0.103,0.113 0.189,0.242 0.256,0.381 l 4.718,-1.938 z"
       id="path192"
       inkscape:connector-curvature="0" /><path
       d="m 49.277,61.564 c 0.155,0.011 0.304,0.041 0.445,0.09 l 1.958,-4.709 c -0.746,-0.297 -1.555,-0.467 -2.402,-0.479 l -10e-4,5.098 z"
       id="path194"
       inkscape:connector-curvature="0" /><path
       d="m 46.59,56.982 2.032,4.68 c 0.147,-0.055 0.306,-0.087 0.47,-0.098 v -5.098 c -0.911,0.012 -1.778,0.204 -2.568,0.545 z"
       id="path196"
       inkscape:connector-curvature="0" /><path
       d="m 48.1,61.977 c 0.106,-0.094 0.224,-0.174 0.353,-0.238 l -2.029,-4.678 c -0.72,0.324 -1.373,0.771 -1.932,1.314 z"
       id="path198"
       inkscape:connector-curvature="0" /><path
       d="m 55.438,60.721 -4.715,1.938 c 0.047,0.14 0.077,0.287 0.086,0.439 l 5.096,0.004 c -0.009,-0.84 -0.176,-1.643 -0.467,-2.381 z"
       id="path200"
       inkscape:connector-curvature="0" /><path
       d="m 49.092,64.814 c -0.156,-0.01 -0.306,-0.041 -0.447,-0.09 l -1.957,4.709 c 0.745,0.297 1.555,0.467 2.404,0.479 z"
       id="path202"
       inkscape:connector-curvature="0" /><path
       d="m 49.747,64.719 c -0.148,0.055 -0.306,0.086 -0.47,0.096 v 5.099 c 0.885,-0.013 1.729,-0.192 2.5,-0.515 z"
       id="path204"
       inkscape:connector-curvature="0" /><path
       d="m 46.541,69.376 c 0.021,0.009 0.039,0.017 0.059,0.024 z"
       id="path206"
       inkscape:connector-curvature="0" /><path
       d="m 51.782,69.396 c 0.016,-0.008 0.032,-0.015 0.049,-0.021 z"
       id="path208"
       inkscape:connector-curvature="0" /><g
       id="g214"><path
         d="m 52.889,64.615 2.545,1.052 c 0.137,-0.339 0.238,-0.688 0.318,-1.052 z"
         id="path210"
         inkscape:connector-curvature="0" /><path
         d="m 55.828,64.165 c 0.043,-0.288 0.072,-0.579 0.076,-0.879 l -5.096,-0.003 c -0.01,0.152 -0.039,0.301 -0.088,0.439 l 1.07,0.441 4.038,0.002 z"
         id="path212"
         inkscape:connector-curvature="0" /></g><g
       id="g220"><path
         d="m 51.309,64.165 -0.656,-0.271 c -0.047,0.097 -0.105,0.186 -0.17,0.271 z"
         id="path216"
         inkscape:connector-curvature="0" /><path
         d="m 50.743,64.615 3.264,3.259 c 0.569,-0.585 1.034,-1.272 1.361,-2.037 l -2.964,-1.222 z"
         id="path218"
         inkscape:connector-curvature="0" /></g><path
       d="m 49.959,64.615 c -0.015,0.01 -0.029,0.02 -0.044,0.025 l 2.03,4.678 c 0.721,-0.324 1.373,-0.771 1.931,-1.313 l -3.393,-3.39 z"
       id="path222"
       inkscape:connector-curvature="0" /></g><g
     id="g270"
     transform="matrix(-1,0,0,1,98.043,0)"><path
       d="m 74.954,65.748 4.715,-1.938 c -0.048,-0.141 -0.077,-0.289 -0.087,-0.441 l -5.098,-0.003 c 0.011,0.84 0.177,1.644 0.47,2.382 z"
       id="path226"
       inkscape:connector-curvature="0" /><path
       d="M 79.993,64.361 C 79.89,64.248 79.805,64.12 79.738,63.98 l -4.718,1.94 -0.024,-0.062 c 0.33,0.793 0.808,1.509 1.399,2.113 z"
       id="path228"
       inkscape:connector-curvature="0" /><path
       d="m 80.497,64.743 c -0.136,-0.067 -0.261,-0.151 -0.372,-0.251 l -3.602,3.609 c 0.582,0.563 1.263,1.024 2.017,1.352 z"
       id="path230"
       inkscape:connector-curvature="0" /><path
       d="m 83.872,57.104 -1.957,4.709 c 0.138,0.066 0.26,0.151 0.373,0.252 l 3.601,-3.61 c -0.58,-0.566 -1.263,-1.027 -2.017,-1.351 z"
       id="path232"
       inkscape:connector-curvature="0" /><path
       d="M 87.424,60.71 C 87.093,59.911 86.613,59.191 86.02,58.583 l -3.601,3.608 c 0.103,0.115 0.188,0.242 0.255,0.384 l 4.721,-1.938 z"
       id="path234"
       inkscape:connector-curvature="0" /><path
       d="m 81.298,61.654 c 0.157,0.008 0.306,0.039 0.446,0.09 l 1.958,-4.711 c -0.746,-0.299 -1.554,-0.467 -2.404,-0.479 z"
       id="path236"
       inkscape:connector-curvature="0" /><path
       d="m 78.613,57.07 2.029,4.68 c 0.148,-0.055 0.308,-0.087 0.471,-0.096 v -5.1 c -0.909,0.014 -1.777,0.203 -2.567,0.543 z"
       id="path238"
       inkscape:connector-curvature="0" /><path
       d="m 82.829,63.371 c -0.009,0.152 -0.037,0.301 -0.086,0.439 l 4.714,1.942 c 0.293,-0.737 0.459,-1.54 0.473,-2.38 z"
       id="path240"
       inkscape:connector-curvature="0" /><path
       d="m 87.458,60.809 -4.714,1.938 c 0.048,0.141 0.076,0.287 0.086,0.439 l 5.1,0.004 c -0.012,-0.84 -0.178,-1.643 -0.472,-2.381 z"
       id="path242"
       inkscape:connector-curvature="0" /><path
       d="m 81.113,64.9 c -0.154,-0.008 -0.305,-0.039 -0.444,-0.088 l -1.957,4.709 c 0.744,0.297 1.554,0.467 2.401,0.479 z"
       id="path244"
       inkscape:connector-curvature="0" /><path
       d="m 81.77,64.805 c -0.148,0.055 -0.306,0.088 -0.472,0.096 V 70 c 0.888,-0.014 1.731,-0.191 2.502,-0.516 z"
       id="path246"
       inkscape:connector-curvature="0" /><path
       d="m 82.674,63.98 c -0.066,0.14 -0.152,0.266 -0.253,0.379 l 3.606,3.602 c 0.572,-0.585 1.037,-1.271 1.363,-2.036 z"
       id="path248"
       inkscape:connector-curvature="0" /><path
       d="m 78.562,69.464 c 0.021,0.011 0.039,0.017 0.06,0.024 z"
       id="path250"
       inkscape:connector-curvature="0" /><path
       d="m 82.291,64.49 c -0.105,0.095 -0.225,0.175 -0.354,0.24 l 2.029,4.676 c 0.721,-0.324 1.373,-0.77 1.932,-1.312 z"
       id="path252"
       inkscape:connector-curvature="0" /><path
       d="m 83.805,69.482 c 0.018,-0.006 0.032,-0.014 0.051,-0.021 z"
       id="path254"
       inkscape:connector-curvature="0" /><g
       id="g260"><path
         d="m 77.82,61.982 -2.863,-1.18 c -0.15,0.377 -0.268,0.77 -0.348,1.18 z"
         id="path256"
         inkscape:connector-curvature="0" /><path
         d="m 74.541,62.434 c -0.031,0.246 -0.053,0.494 -0.057,0.748 l 5.098,0.004 c 0.011,-0.154 0.039,-0.302 0.088,-0.439 l -0.752,-0.312 h -4.377 z"
         id="path258"
         inkscape:connector-curvature="0" /></g><g
       id="g266"><path
         d="m 79.777,61.982 -3.396,-3.389 c -0.567,0.586 -1.034,1.271 -1.36,2.035 l 3.281,1.354 z"
         id="path262"
         inkscape:connector-curvature="0" /><path
         d="m 79.4,62.434 0.338,0.142 c 0.023,-0.05 0.053,-0.095 0.08,-0.142 z"
         id="path264"
         inkscape:connector-curvature="0" /></g><path
       d="m 80.229,61.982 c 0.078,-0.06 0.16,-0.112 0.248,-0.157 l -2.031,-4.677 c -0.721,0.324 -1.373,0.769 -1.93,1.312 l 3.523,3.521 h 0.19 z"
       id="path268"
       inkscape:connector-curvature="0" /></g><g
     id="g326"
     transform="matrix(-1,0,0,1,98.043,0)"><path
       d="m 59.621,57.545 2.833,4.242 c 0.133,-0.077 0.272,-0.135 0.421,-0.174 l -0.986,-5 c -0.801,0.168 -1.573,0.481 -2.268,0.932 z"
       id="path272"
       inkscape:connector-curvature="0" /><path
       d="m 61.984,62.208 c 0.092,-0.124 0.199,-0.229 0.316,-0.317 l -2.83,-4.238 c -0.654,0.447 -1.24,1.021 -1.719,1.711 z"
       id="path274"
       inkscape:connector-curvature="0" /><path
       d="m 56.713,61.756 4.995,1.02 c 0.037,-0.143 0.095,-0.281 0.174,-0.414 l -4.231,-2.844 c -0.46,0.703 -0.769,1.461 -0.938,2.238 z"
       id="path276"
       inkscape:connector-curvature="0" /><path
       d="m 64.586,56.591 -0.922,5.019 c 0.152,0.037 0.303,0.099 0.445,0.182 L 66.95,57.56 c -0.763,-0.498 -1.589,-0.822 -2.435,-0.979 z"
       id="path278"
       inkscape:connector-curvature="0" /><path
       d="m 63.057,61.578 c 0.141,-0.02 0.283,-0.02 0.428,-0.002 l 0.92,-5.016 c -0.778,-0.131 -1.569,-0.123 -2.336,0.018 z"
       id="path280"
       inkscape:connector-curvature="0" /><path
       d="m 64.576,64.172 c -0.094,0.123 -0.199,0.229 -0.317,0.316 l 2.831,4.24 c 0.655,-0.449 1.239,-1.021 1.719,-1.711 z"
       id="path282"
       inkscape:connector-curvature="0" /><path
       d="M 66.943,68.832 C 66.962,68.82 66.98,68.809 67,68.795 Z"
       id="path284"
       inkscape:connector-curvature="0" /><path
       d="m 69.85,64.623 -4.996,-1.018 c -0.037,0.143 -0.096,0.281 -0.174,0.414 l 4.229,2.844 C 69.37,66.159 69.68,65.4 69.85,64.623 Z"
       id="path286"
       inkscape:connector-curvature="0" /><path
       d="m 64.105,64.594 c -0.131,0.076 -0.272,0.133 -0.42,0.172 l 0.987,5.002 c 0.8,-0.17 1.569,-0.479 2.267,-0.933 z"
       id="path288"
       inkscape:connector-curvature="0" /><path
       d="m 63.505,64.803 c -0.142,0.018 -0.282,0.02 -0.427,0.002 l -0.92,5.014 c 0.777,0.132 1.568,0.127 2.335,-0.014 z"
       id="path290"
       inkscape:connector-curvature="0" /><path
       d="m 61.979,69.79 c 0.019,0.004 0.035,0.008 0.054,0.013 z"
       id="path292"
       inkscape:connector-curvature="0" /><g
       id="g298"><path
         d="m 61.645,64.165 0.231,-0.151 C 61.799,63.88 61.743,63.743 61.705,63.596 l -2.87,0.569 z"
         id="path294"
         inkscape:connector-curvature="0" /><path
         d="m 56.712,64.615 c 0.169,0.781 0.474,1.533 0.914,2.217 l 3.337,-2.217 z"
         id="path296"
         inkscape:connector-curvature="0" /></g><path
       d="m 61.296,64.615 -3.565,2.367 c 0.451,0.662 1.028,1.256 1.727,1.736 l 2.757,-4.104 h -0.919 z"
       id="path300"
       inkscape:connector-curvature="0" /><path
       d="m 64.936,61.982 3.896,-2.586 C 68.38,58.734 67.803,58.142 67.103,57.66 l -2.842,4.232 c 0.036,0.028 0.067,0.06 0.102,0.09 h 0.573 z"
       id="path302"
       inkscape:connector-curvature="0" /><g
       id="g308"><path
         d="m 68.904,61.982 0.951,-0.188 c -0.166,-0.792 -0.477,-1.554 -0.92,-2.245 l -3.668,2.434 h 3.637 z"
         id="path304"
         inkscape:connector-curvature="0" /><path
         d="m 64.717,62.434 c 0.061,0.112 0.107,0.229 0.141,0.352 l 1.766,-0.352 z"
         id="path306"
         inkscape:connector-curvature="0" /></g><g
       id="g316"><polygon
         points="69.893,61.975 69.854,61.982 69.896,61.982 "
         id="polygon310" /><path
         d="m 69.889,64.445 -0.004,-0.002 c -0.006,0.027 -0.007,0.053 -0.012,0.08 z"
         id="path312"
         inkscape:connector-curvature="0" /><path
         d="M 69.956,62.434 H 67.57 l -2.678,0.531 c 0.021,0.153 0.021,0.307 -0.002,0.46 l 4.993,1.021 c 0.129,-0.671 0.146,-1.346 0.073,-2.012 z"
         id="path314"
         inkscape:connector-curvature="0" /></g><g
       id="g322"><path
         d="m 56.67,61.936 0.004,0.002 c 0.006,-0.021 0.008,-0.045 0.012,-0.065 z"
         id="path318"
         inkscape:connector-curvature="0" /><path
         d="m 56.637,64.165 h 1.25 l 3.782,-0.75 c -0.021,-0.151 -0.021,-0.306 0,-0.46 l -4.995,-1.02 c -0.14,0.743 -0.149,1.495 -0.037,2.23 z"
         id="path320"
         inkscape:connector-curvature="0" /></g><path
       d="m 62.436,64.615 -2.824,4.209 c 0.742,0.48 1.543,0.803 2.363,0.965 l 0.922,-5.018 c -0.135,-0.031 -0.264,-0.088 -0.39,-0.156 z"
       id="path324"
       inkscape:connector-curvature="0" /></g><g
     id="g332"
     transform="matrix(-1,0,0,1,98.043,0)"><path
       d="m 56.21,61.42 c 0.84,-3.1 3.661,-5.381 7.026,-5.381 3.563,0 6.525,2.562 7.156,5.943 h 3.855 v -6.711 h -53.86 v 2.033 h 21.609 v 4.887 c 0.544,-3.484 3.551,-6.152 7.189,-6.152 3.363,0 6.187,2.281 7.025,5.381 z"
       id="path328"
       inkscape:connector-curvature="0" /><path
       d="m 70.462,62.434 c 0.035,0.293 0.06,0.59 0.06,0.892 0,0.017 -0.002,0.073 -0.002,0.09 l 3.729,-0.005 v -0.977 h -3.787 z"
       id="path330"
       inkscape:connector-curvature="0" /></g><path
     d="m 19.725,39.45 h 1.112 c 0.183,0 0.271,0.081 0.271,0.263 v 4.022 c 0,0.183 -0.09,0.255 -0.271,0.255 h -1.101 c -0.184,0 -0.344,0 -0.357,0 -0.016,0 -0.025,-0.01 -0.025,-0.024 0,-0.014 0,-0.174 0,-0.356 v -3.799 c 0,-0.182 0,-0.339 0,-0.346 0,-0.008 0.008,-0.015 0.02,-0.015 0.012,0 0.168,0 0.351,0 z"
     id="path334"
     inkscape:connector-curvature="0" /><path
     d="m 16.897,38.854 h 4.584 c 0.106,0 0.192,0.087 0.192,0.195 v 5.348 c 0,0.107 -0.086,0.195 -0.192,0.195 h -4.584 c -0.106,0 -0.193,-0.088 -0.193,-0.195 v -5.348 c -0.002,-0.108 0.085,-0.195 0.193,-0.195 z m 0.14,0.624 v 4.497 c 0,0.106 0,0.203 0,0.212 0,0.01 0.007,0.019 0.018,0.019 0.008,0 0.104,0 0.211,0 h 3.885 c 0.107,0 0.195,-0.088 0.195,-0.195 V 39.43 c 0,-0.107 -0.088,-0.195 -0.195,-0.195 h -3.869 c -0.107,0 -0.205,0 -0.221,0 -0.014,0 -0.022,0.011 -0.022,0.024 -0.002,0.012 -0.002,0.112 -0.002,0.219 z"
     id="path336"
     inkscape:connector-curvature="0" /><path
     d="m 24.041,37.083 v 6.515 h -0.745 l 0.001,15.994 c -1.354,-2.148 -3.744,-3.58 -6.473,-3.58 -3.727,0 -6.625,2.664 -7.309,6.191 H 7.206 V 39.038 c 3.316,-1.992 14.462,-2.307 16.835,-1.955 z m -7.51,7.508 c 0,0.107 0.088,0.195 0.193,0.195 h 4.924 c 0.106,0 0.194,-0.088 0.194,-0.195 v -5.739 c 0,-0.107 -0.088,-0.195 -0.194,-0.195 h -4.924 c -0.105,0 -0.193,0.088 -0.193,0.195 z m -6.947,0.196 h 5.32 c 0,0 0,-5.766 0,-6.041 0.012,-0.399 -5.32,0.65 -5.32,1.151 0,0.501 0,4.89 0,4.89 z"
     id="path338"
     inkscape:connector-curvature="0" /><path
     d="m 14.734,38.935 c 0,0.257 0,5.656 0,5.656 h -4.98 c 0,0 0,-4.108 0,-4.578 0,-0.47 4.992,-1.451 4.98,-1.078 z m -4.644,5.268 h 4.309 c 0,0 0,-4.668 0,-4.891 0.011,-0.322 -4.309,0.526 -4.309,0.933 0,0.406 0,3.958 0,3.958 z"
     id="path340"
     inkscape:connector-curvature="0" /><text
     x="-98.042999"
     y="115"
     font-size="5px"
     font-weight="bold"
     id="text342"
     transform="scale(-1,1)"
     style="font-weight:bold;font-size:5px;font-family:'Helvetica Neue', Helvetica, Arial-Unicode, Arial, Sans-serif;fill:#000000">Created by Antony Bayo</text>
<text
     x="-98.042999"
     y="120"
     font-size="5px"
     font-weight="bold"
     id="text344"
     transform="scale(-1,1)"
     style="font-weight:bold;font-size:5px;font-family:'Helvetica Neue', Helvetica, Arial-Unicode, Arial, Sans-serif;fill:#000000">from the Noun Project</text>
</svg>