<svg xmlns="http://www.w3.org/2000/svg" xmlns:xlink="http://www.w3.org/1999/xlink" version="1.1" x="0px" y="0px" viewBox="0 0 100 100" enable-background="new 0 0 100 100" xml:space="preserve"><g><path d="M70.977,47.883c0-6.29-5.118-11.408-11.408-11.408c-3.972,0-7.466,2.047-9.507,5.136c-1.706-0.884-3.64-1.387-5.69-1.387   c-6.212,0-11.442,4.68-12.289,10.7h-2.17c-6.52,0-11.824,5.304-11.824,11.823c0,6.521,5.305,11.825,11.824,11.825h23.277   c6.52,0,11.824-5.305,11.824-11.825c0-1.554-0.313-3.05-0.873-4.428C68.159,56.554,70.977,52.547,70.977,47.883z M53.189,71.572   H29.912c-4.865,0-8.824-3.959-8.824-8.825c0-4.865,3.959-8.823,8.824-8.823h3.553c0.817,0,1.483-0.653,1.5-1.471   c0.1-5.089,4.319-9.229,9.406-9.229c5.191,0,9.415,4.224,9.416,9.414c0,0.712,0.5,1.325,1.197,1.469   c4.073,0.841,7.029,4.475,7.029,8.641C62.014,67.613,58.055,71.572,53.189,71.572z M62.657,55.686   c-1.46-1.957-3.515-3.464-5.925-4.221c-0.306-3.241-1.868-6.116-4.187-8.15c1.501-2.302,4.076-3.84,7.022-3.84   c4.637,0,8.408,3.771,8.408,8.408C67.977,51.428,65.768,54.453,62.657,55.686z"/><path d="M59.568,34.454c0.828,0,1.5-0.672,1.5-1.5v-6.026c0-0.828-0.672-1.5-1.5-1.5s-1.5,0.672-1.5,1.5v6.026   C58.068,33.782,58.74,34.454,59.568,34.454z"/><path d="M70.126,38.826c0.384,0,0.768-0.146,1.061-0.439l4.26-4.26c0.586-0.586,0.586-1.535,0-2.121s-1.535-0.586-2.121,0   l-4.26,4.26c-0.586,0.586-0.586,1.535,0,2.121C69.358,38.68,69.742,38.826,70.126,38.826z"/><path d="M71.187,57.379c-0.586-0.586-1.535-0.586-2.121,0s-0.586,1.535,0,2.121l4.26,4.261c0.293,0.293,0.677,0.439,1.061,0.439   s0.768-0.146,1.061-0.439c0.586-0.586,0.586-1.535,0-2.121L71.187,57.379z"/><path d="M47.951,38.387c0.293,0.293,0.677,0.439,1.061,0.439s0.768-0.146,1.061-0.439c0.586-0.586,0.586-1.535,0-2.121l-4.26-4.261   c-0.586-0.586-1.535-0.586-2.121,0s-0.586,1.535,0,2.121L47.951,38.387z"/><path d="M80.412,46.383h-6.027c-0.828,0-1.5,0.672-1.5,1.5s0.672,1.5,1.5,1.5h6.027c0.828,0,1.5-0.672,1.5-1.5   S81.24,46.383,80.412,46.383z"/></g><text x="0" y="115" fill="#000000" font-size="5px" font-weight="bold" font-family="'Helvetica Neue', Helvetica, Arial-Unicode, Arial, Sans-serif">Created by asianson.design</text><text x="0" y="120" fill="#000000" font-size="5px" font-weight="bold" font-family="'Helvetica Neue', Helvetica, Arial-Unicode, Arial, Sans-serif">from the Noun Project</text></svg>
