<svg xmlns="http://www.w3.org/2000/svg" xmlns:xlink="http://www.w3.org/1999/xlink" version="1.1" x="0px" y="0px" viewBox="0 0 100 100" enable-background="new 0 0 100 100" xml:space="preserve"><g><path d="M65.182,38.073c-0.594-6.298-5.911-11.241-12.361-11.241c-6.212,0-11.442,4.68-12.289,10.7h-2.17   c-6.52,0-11.824,5.304-11.824,11.823c0,6.521,5.305,11.825,11.824,11.825h23.277c6.52,0,11.824-5.305,11.824-11.825   C73.463,44.17,70.043,39.6,65.182,38.073z M61.639,58.181H38.361c-4.865,0-8.824-3.959-8.824-8.825   c0-4.865,3.959-8.823,8.824-8.823h3.553c0.817,0,1.483-0.653,1.5-1.471c0.1-5.089,4.319-9.229,9.406-9.229   c5.191,0,9.415,4.224,9.416,9.414c0,0.712,0.5,1.325,1.197,1.469c4.073,0.841,7.029,4.475,7.029,8.641   C70.463,54.222,66.504,58.181,61.639,58.181z"/><path d="M65.647,63.897c-0.709-0.429-1.631-0.199-2.059,0.51l-3.91,6.486c-0.428,0.71-0.2,1.632,0.51,2.059   c0.242,0.146,0.51,0.216,0.773,0.216c0.508,0,1.004-0.259,1.285-0.726l3.91-6.486C66.585,65.246,66.357,64.324,65.647,63.897z"/><path d="M57.035,63.896c-0.708-0.427-1.631-0.198-2.06,0.511l-3.909,6.486c-0.427,0.71-0.198,1.632,0.511,2.06   c0.242,0.146,0.51,0.215,0.773,0.215c0.508,0,1.004-0.259,1.286-0.726l3.909-6.486C57.973,65.246,57.744,64.324,57.035,63.896z"/><path d="M48.424,63.896c-0.709-0.427-1.631-0.198-2.06,0.511l-3.909,6.486c-0.427,0.71-0.198,1.632,0.511,2.06   c0.242,0.146,0.51,0.215,0.773,0.215c0.508,0,1.004-0.259,1.286-0.726l3.909-6.486C49.361,65.246,49.133,64.324,48.424,63.896z"/><path d="M39.813,63.896c-0.709-0.427-1.631-0.198-2.06,0.511l-3.909,6.486c-0.427,0.71-0.198,1.632,0.511,2.06   c0.242,0.146,0.51,0.215,0.773,0.215c0.508,0,1.004-0.259,1.286-0.726l3.909-6.486C40.75,65.246,40.521,64.324,39.813,63.896z"/></g><text x="0" y="115" fill="#000000" font-size="5px" font-weight="bold" font-family="'Helvetica Neue', Helvetica, Arial-Unicode, Arial, Sans-serif">Created by asianson.design</text><text x="0" y="120" fill="#000000" font-size="5px" font-weight="bold" font-family="'Helvetica Neue', Helvetica, Arial-Unicode, Arial, Sans-serif">from the Noun Project</text></svg>
