<svg xmlns="http://www.w3.org/2000/svg" xmlns:xlink="http://www.w3.org/1999/xlink" version="1.1" x="0px" y="0px" viewBox="0 0 100 100" enable-background="new 0 0 100 100" xml:space="preserve"><g><path d="M59.142,40.859c-2.442-2.442-5.688-3.787-9.143-3.787c-7.128,0-12.928,5.8-12.928,12.928s5.8,12.928,12.928,12.928   c7.13,0,12.93-5.8,12.93-12.928C62.929,46.547,61.584,43.3,59.142,40.859z M49.999,59.928c-5.475,0-9.928-4.453-9.928-9.928   s4.453-9.928,9.928-9.928c2.652,0,5.146,1.033,7.021,2.908c1.875,1.875,2.908,4.367,2.908,7.02   C59.929,55.475,55.475,59.928,49.999,59.928z"/><path d="M49.999,34.281c0.828,0,1.5-0.672,1.5-1.5v-6.95c0-0.828-0.672-1.5-1.5-1.5s-1.5,0.672-1.5,1.5v6.95   C48.499,33.609,49.171,34.281,49.999,34.281z"/><path d="M49.999,65.719c-0.828,0-1.5,0.672-1.5,1.5v6.95c0,0.828,0.672,1.5,1.5,1.5s1.5-0.672,1.5-1.5v-6.95   C51.499,66.391,50.827,65.719,49.999,65.719z"/><path d="M74.169,48.5H67.22c-0.828,0-1.5,0.672-1.5,1.5s0.672,1.5,1.5,1.5h6.949c0.828,0,1.5-0.672,1.5-1.5   S74.997,48.5,74.169,48.5z"/><path d="M34.28,50c0-0.828-0.672-1.5-1.5-1.5h-6.949c-0.828,0-1.5,0.672-1.5,1.5s0.672,1.5,1.5,1.5h6.949   C33.608,51.5,34.28,50.828,34.28,50z"/><path d="M62.176,39.324c0.384,0,0.768-0.146,1.061-0.439l4.913-4.914c0.586-0.586,0.586-1.535,0-2.121s-1.535-0.586-2.121,0   l-4.913,4.914c-0.586,0.586-0.586,1.535,0,2.121C61.408,39.178,61.792,39.324,62.176,39.324z"/><path d="M36.763,61.115L31.85,66.03c-0.586,0.586-0.586,1.536,0,2.121c0.293,0.293,0.677,0.439,1.061,0.439   s0.768-0.146,1.061-0.439l4.913-4.915c0.586-0.586,0.586-1.536,0-2.121C38.298,60.529,37.349,60.529,36.763,61.115z"/><path d="M63.237,61.115c-0.586-0.586-1.535-0.586-2.121,0c-0.586,0.585-0.586,1.535,0,2.121l4.913,4.915   c0.293,0.293,0.677,0.439,1.061,0.439s0.768-0.146,1.061-0.439c0.586-0.585,0.586-1.535,0-2.121L63.237,61.115z"/><path d="M36.763,38.884c0.293,0.293,0.677,0.439,1.061,0.439s0.768-0.146,1.061-0.439c0.586-0.586,0.586-1.535,0-2.121   l-4.913-4.914c-0.586-0.586-1.535-0.586-2.121,0s-0.586,1.535,0,2.121L36.763,38.884z"/></g><text x="0" y="115" fill="#000000" font-size="5px" font-weight="bold" font-family="'Helvetica Neue', Helvetica, Arial-Unicode, Arial, Sans-serif">Created by asianson.design</text><text x="0" y="120" fill="#000000" font-size="5px" font-weight="bold" font-family="'Helvetica Neue', Helvetica, Arial-Unicode, Arial, Sans-serif">from the Noun Project</text></svg>
