<svg xmlns="http://www.w3.org/2000/svg" xmlns:xlink="http://www.w3.org/1999/xlink" version="1.1" x="0px" y="0px" viewBox="0 0 100 100" enable-background="new 0 0 100 100" xml:space="preserve"><g><path d="M74.756,32.342c-0.568-4.476-4.402-7.946-9.031-7.946c-4.418,0-8.16,3.23-8.945,7.454h-1.127   c-0.27,0-0.531,0.032-0.797,0.058c-2.27-2.467-5.523-4.017-9.133-4.017c-6.213,0-11.443,4.68-12.289,10.699h-2.17   c-6.52,0-11.824,5.305-11.824,11.824s5.305,11.824,11.824,11.824h1.295h0.578h2.117c0.828,0,1.5-0.672,1.5-1.5s-0.672-1.5-1.5-1.5   h-2.117h-0.578h-1.295c-4.865,0-8.824-3.959-8.824-8.824s3.959-8.824,8.824-8.824h3.553c0.816,0,1.482-0.652,1.5-1.471   c0.1-5.088,4.318-9.229,9.406-9.229c5.191,0,9.414,4.223,9.416,9.414c0,0.711,0.5,1.324,1.197,1.469   c4.072,0.84,7.029,4.475,7.029,8.641c0,4.865-3.959,8.824-8.824,8.824h-1.873h-0.609c-0.828,0-1.5,0.672-1.5,1.5s0.672,1.5,1.5,1.5   h0.609h1.873h0.213c0.072,0,0.143-0.012,0.215-0.021c6.32-0.227,11.396-5.428,11.396-11.803c0-0.398-0.027-0.791-0.066-1.181h5.57   c4.793,0,8.691-3.899,8.691-8.692C80.561,36.832,78.18,33.55,74.756,32.342z M71.869,46.233h-6.283   c-1.271-3.336-4.012-6.006-7.502-7.103c-0.145-1.524-0.57-2.967-1.217-4.281h1.262c0.816,0,1.482-0.653,1.5-1.471   c0.064-3.299,2.799-5.983,6.096-5.983c3.367,0,6.105,2.737,6.105,6.103c0,0.712,0.5,1.325,1.195,1.469   c2.629,0.543,4.535,2.888,4.535,5.574C77.561,43.68,75.008,46.233,71.869,46.233z"/><path d="M47.916,63.223c-0.289-0.184-0.615-0.25-0.932-0.223c-0.037-0.002-0.074-0.012-0.111-0.012h-2.969l2.781-4.381   c0.443-0.699,0.236-1.625-0.463-2.07c-0.699-0.443-1.625-0.236-2.07,0.463l-4.244,6.686c-0.02,0.029-0.029,0.063-0.047,0.096   c-0.027,0.049-0.055,0.098-0.076,0.15c-0.02,0.047-0.029,0.094-0.043,0.141s-0.029,0.092-0.039,0.141   c-0.01,0.057-0.014,0.113-0.018,0.17c-0.002,0.035-0.01,0.07-0.01,0.105c0,0.008,0.002,0.014,0.002,0.021   c0,0.057,0.01,0.111,0.016,0.166c0.006,0.043,0.008,0.088,0.018,0.131s0.025,0.084,0.039,0.125c0.016,0.051,0.027,0.104,0.049,0.15   c0.018,0.041,0.041,0.076,0.063,0.115c0.023,0.045,0.047,0.094,0.076,0.137c0.025,0.039,0.059,0.072,0.09,0.109   s0.061,0.078,0.096,0.113c0.029,0.029,0.064,0.053,0.098,0.08c0.043,0.037,0.086,0.074,0.135,0.105   c0.006,0.004,0.01,0.01,0.016,0.014c0.014,0.008,0.029,0.01,0.043,0.02c0.094,0.055,0.191,0.098,0.297,0.133   c0.031,0.01,0.063,0.021,0.096,0.029c0.117,0.029,0.238,0.051,0.365,0.051h0.002c0.002,0,0.002,0,0.002,0h3.207l-2.781,4.381   c-0.443,0.699-0.236,1.627,0.463,2.07c0.25,0.158,0.527,0.234,0.803,0.234c0.496,0,0.982-0.246,1.268-0.697l4.244-6.684   C48.822,64.594,48.615,63.666,47.916,63.223z"/><path d="M35.549,66.153c-0.697-0.442-1.625-0.237-2.07,0.463l-4.244,6.685c-0.443,0.699-0.236,1.626,0.463,2.07   c0.25,0.158,0.527,0.233,0.803,0.233c0.496,0,0.982-0.246,1.268-0.696l4.244-6.685C36.455,67.524,36.248,66.598,35.549,66.153z"/><path d="M58.588,66.153c-0.697-0.442-1.625-0.237-2.07,0.463l-4.242,6.685c-0.443,0.699-0.236,1.626,0.463,2.07   c0.25,0.158,0.527,0.233,0.803,0.233c0.496,0,0.982-0.246,1.268-0.696l4.242-6.685C59.494,67.524,59.287,66.598,58.588,66.153z"/></g><text x="0" y="115" fill="#000000" font-size="5px" font-weight="bold" font-family="'Helvetica Neue', Helvetica, Arial-Unicode, Arial, Sans-serif">Created by asianson.design</text><text x="0" y="120" fill="#000000" font-size="5px" font-weight="bold" font-family="'Helvetica Neue', Helvetica, Arial-Unicode, Arial, Sans-serif">from the Noun Project</text></svg>
