<svg xmlns="http://www.w3.org/2000/svg"
xmlns:xlink="http://www.w3.org/1999/xlink" version="1.1" x="0px" y="0px"
viewBox="0 0 100 100" enable-background="new 0 0 100 100"
xml:space="preserve"><g><path
d="M70.977,41.889c0-6.29-5.119-11.408-11.408-11.408c-3.973,0-7.467,2.047-9.508,5.136c-1.705-0.884-3.639-1.387-5.689-1.387
c-6.213,0-11.443,4.68-12.289,10.7h-2.17c-6.52,0-11.824,5.304-11.824,11.824c0,6.52,5.305,11.824,11.824,11.824h23.277
c6.52,0,11.824-5.305,11.824-11.824c0-1.555-0.313-3.051-0.873-4.428C68.158,50.56,70.977,46.553,70.977,41.889z
M53.189,65.578
H29.912c-4.865,0-8.824-3.959-8.824-8.824s3.959-8.824,8.824-8.824h3.553c0.816,0,1.482-0.653,1.5-1.471
c0.1-5.089,4.318-9.229,9.406-9.229c5.191,0,9.414,4.224,9.416,9.414c0,0.712,0.5,1.325,1.197,1.469
c4.072,0.841,7.029,4.475,7.029,8.641C62.014,61.619,58.055,65.578,53.189,65.578z
M62.656,49.692
c-1.459-1.957-3.514-3.464-5.924-4.221c-0.307-3.241-1.869-6.116-4.188-8.15c1.502-2.302,4.076-3.84,7.023-3.84
c4.637,0,8.408,3.771,8.408,8.408C67.977,45.434,65.768,48.459,62.656,49.692z"/><path
d="M59.568,28.46c0.828,0,1.5-0.672,1.5-1.5v-6.026c0-0.828-0.672-1.5-1.5-1.5s-1.5,0.672-1.5,1.5v6.026
C58.068,27.789,58.74,28.46,59.568,28.46z"/><path
d="M70.125,32.833c0.385,0,0.768-0.146,1.061-0.439l4.26-4.26c0.586-0.586,0.586-1.535,0-2.121s-1.535-0.586-2.121,0
l-4.26,4.26c-0.586,0.586-0.586,1.535,0,2.121C69.357,32.686,69.742,32.833,70.125,32.833z"/><path
d="M71.186,51.385c-0.586-0.585-1.535-0.585-2.121,0c-0.586,0.586-0.586,1.535,0,2.121l4.26,4.262
c0.293,0.293,0.678,0.439,1.061,0.439c0.385,0,0.768-0.146,1.061-0.439c0.586-0.586,0.586-1.535,0-2.121L71.186,51.385z"/><path
d="M47.951,32.393c0.293,0.293,0.676,0.439,1.061,0.439c0.383,0,0.768-0.146,1.061-0.439c0.586-0.586,0.586-1.535,0-2.121
l-4.26-4.261c-0.586-0.586-1.535-0.586-2.121,0s-0.586,1.535,0,2.121L47.951,32.393z"/><path
d="M57.197,71.295c-0.709-0.428-1.631-0.199-2.059,0.51l-3.91,6.486c-0.428,0.711-0.201,1.633,0.51,2.059
c0.242,0.146,0.51,0.217,0.773,0.217c0.508,0,1.004-0.26,1.285-0.727l3.91-6.486C58.135,72.645,57.906,71.723,57.197,71.295z"/><path
d="M48.584,71.295c-0.709-0.428-1.631-0.199-2.059,0.51l-3.91,6.486c-0.426,0.711-0.197,1.633,0.512,2.061
c0.242,0.145,0.51,0.215,0.773,0.215c0.508,0,1.004-0.26,1.285-0.727l3.91-6.486C49.521,72.645,49.293,71.723,48.584,71.295z"/><path
d="M39.973,71.295c-0.707-0.428-1.631-0.199-2.059,0.51l-3.91,6.486c-0.426,0.711-0.197,1.633,0.512,2.061
c0.242,0.145,0.51,0.215,0.773,0.215c0.508,0,1.004-0.26,1.285-0.727l3.91-6.486C40.91,72.645,40.682,71.723,39.973,71.295z"/><path
d="M31.361,71.295c-0.709-0.428-1.631-0.199-2.059,0.51l-3.91,6.486c-0.426,0.711-0.197,1.633,0.512,2.061
c0.242,0.145,0.51,0.215,0.773,0.215c0.508,0,1.004-0.26,1.285-0.727l3.91-6.486C32.299,72.645,32.07,71.723,31.361,71.295z"/><path
d="M80.412,40.389h-6.027c-0.828,0-1.5,0.672-1.5,1.5s0.672,1.5,1.5,1.5h6.027c0.828,0,1.5-0.672,1.5-1.5
S81.24,40.389,80.412,40.389z"/></g><text x="0" y="115" fill="#000000"
font-size="5px" font-weight="bold" font-family="'Helvetica Neue', Helvetica,
Arial-Unicode, Arial, Sans-serif">Created by asianson.design</text><text x="0"
y="120" fill="#000000" font-size="5px" font-weight="bold"
font-family="'Helvetica Neue', Helvetica, Arial-Unicode, Arial,
Sans-serif">from the Noun Project</text></svg>
