<svg xmlns="http://www.w3.org/2000/svg" data-name="Layer 1" viewBox="0 0 100 100" x="0px" y="0px"><title>07</title><path d="M13.46,80.82a3,3,0,0,0,3.74-2l1.94-6.47a35.65,35.65,0,0,0,60.8-.69l3,7.42a3,3,0,1,0,5.57-2.23L83.08,63.37a3.37,3.37,0,0,0-4.62-1.47L66,65.65a3,3,0,1,0,1.72,5.75l6.59-2a29.36,29.36,0,0,1-22,13.44V44.15h10a3,3,0,1,0,0-6h-10V32.71a11.08,11.08,0,1,0-6,0v5.44H37.57a3,3,0,0,0,0,6h8.76V82.86a29.36,29.36,0,0,1-22-13.44l6.59,2a3,3,0,0,0,1.72-5.75L20.19,61.9a3,3,0,0,0-1.54-.4,3,3,0,0,0-3.17,2.12l-4,13.46A3,3,0,0,0,13.46,80.82ZM44.25,22.05a5.08,5.08,0,1,1,5.08,5.08A5.08,5.08,0,0,1,44.25,22.05Z"/><text x="0" y="115" fill="#000000" font-size="5px" font-weight="bold" font-family="'Helvetica Neue', Helvetica, Arial-Unicode, Arial, Sans-serif">Created by krishna</text><text x="0" y="120" fill="#000000" font-size="5px" font-weight="bold" font-family="'Helvetica Neue', Helvetica, Arial-Unicode, Arial, Sans-serif">from the Noun Project</text></svg>
