<svg xmlns="http://www.w3.org/2000/svg" xmlns:xlink="http://www.w3.org/1999/xlink" xml:space="preserve" version="1.1" style="shape-rendering:geometricPrecision;text-rendering:geometricPrecision;image-rendering:optimizeQuality;" viewBox="0 0 847 1058.75" x="0px" y="0px" fill-rule="evenodd" clip-rule="evenodd"><defs><style type="text/css">
   
    .fil0 {fill:black;fill-rule:nonzero}
   
  </style></defs><g><path class="fil0" d="M456 624c-4,8 -4,17 -2,26 6,-2 11,-3 17,-5 -2,-9 -1,-18 2,-26 -5,2 -11,4 -17,5zm48 -496c0,34 -23,67 -56,77l2 49 115 6c4,-11 15,-18 27,-18 38,0 38,58 0,58 -12,0 -23,-8 -27,-18l-113 6 2 36c-8,-5 -14,-10 -18,-14 -17,-14 -39,-34 -55,-56l15 0 3 -49c-14,-4 -26,-12 -35,-22 3,-8 9,-16 15,-23 30,42 99,22 99,-32 0,-15 -7,-29 -17,-39 -1,-12 -7,-25 -16,-32 -1,-3 -3,-5 -5,-8 38,9 64,40 64,79zm-47 261l11 217c-22,9 -47,12 -73,6 -6,0 -11,0 -16,0l13 -273c21,17 44,34 65,50zm65 243c81,-23 140,-77 140,-159l-67 21 83 -61 84 61 -65 -20c0,241 -203,213 -274,350 -25,-49 -68,-77 -113,-104 12,-37 39,-62 95,-56 46,4 86,-9 117,-32zm-252 63c-64,-42 -121,-95 -121,-220l-64 19 83 -61 84 61 -75 -20c0,81 62,133 142,156 -22,14 -39,37 -49,65zm72 -410l-60 -3c-5,10 -15,18 -27,18 -38,0 -38,-58 0,-58 12,0 22,7 27,18l45 -3c4,10 9,19 15,28zm0 -160c1,-23 12,-43 28,-57 -1,8 0,18 3,28 -12,9 -22,18 -31,29zm-77 698c-2,-47 -2,-86 6,-119 17,-65 69,-92 123,-89 114,24 196,-101 114,-186 -62,-64 -189,-118 -187,-222 -1,-45 18,-84 56,-109 -21,-66 40,-103 73,-50 -4,-1 -8,-2 -13,-3 -1,-1 -1,-1 -4,-3 2,3 3,5 2,7 4,3 6,6 7,10 11,7 17,24 14,37 10,33 -15,73 -51,55 -6,0 -10,-4 -13,-8 -122,96 116,208 143,257 96,99 28,274 -130,261 -99,-11 -111,71 -107,161l-10 0 0 -8c-7,-6 -11,-14 -15,-22 1,10 1,20 1,31l-9 0zm125 -198c-4,0 -8,0 -12,0 -10,7 -12,16 -13,27 6,0 13,-1 19,-1 -1,-11 -1,-19 6,-26zm-27 1l-3 1c-7,1 -13,3 -18,6 -4,9 -7,20 -7,31 7,-5 14,-8 21,-10 0,-10 1,-19 7,-28zm-34 14c-8,5 -16,11 -22,17 -2,11 -2,23 2,34 4,-7 12,-15 17,-20 -1,-10 0,-22 3,-31zm-33 31c-6,10 -11,21 -15,33 1,13 3,25 9,37 2,-14 6,-28 12,-40 -4,-9 -6,-20 -6,-30zm-20 61c-1,7 -2,13 -2,20 2,15 5,33 13,46 0,-14 0,-27 1,-41 -5,-8 -9,-16 -12,-25zm169 -81c-2,-8 -3,-17 0,-26 -5,1 -11,1 -17,1 -7,5 -6,19 -5,26 7,0 15,0 22,-1zm-32 1c-1,-9 -1,-19 3,-26 -4,0 -8,0 -12,-1 -11,7 -11,15 -11,26 7,0 14,1 20,1zm87 -22c-2,-8 -3,-18 -3,-25 -3,3 -6,5 -12,9 -5,7 -6,19 -5,27 10,-4 18,-8 20,-11zm9 -5c9,-6 18,-14 23,-21 -3,-5 -7,-20 -7,-24 -4,5 -13,13 -18,18 -1,5 0,19 2,27zm30 -29c8,-8 17,-26 19,-32 -5,-6 -10,-13 -14,-20 -2,7 -6,17 -11,22 -1,11 2,21 6,30zm9 -66c3,8 9,16 14,23 4,-9 6,-27 7,-39 -6,-1 -13,-5 -17,-9 0,6 -2,21 -4,25zm20 -25c0,-14 -1,-27 -5,-40 -6,2 -13,1 -19,0 4,8 6,17 7,26 4,5 11,11 17,14zm-8 -49c-4,-11 -10,-21 -17,-31 -5,4 -12,7 -19,7 6,7 11,15 15,22 5,1 15,4 21,2zm-23 -39c-16,-19 -1,-3 -17,-20 -7,6 -16,8 -25,9 7,5 13,11 19,16 9,2 17,1 23,-5zm-142 -93c9,0 19,-2 27,-7 -7,-6 -14,-12 -20,-18 -8,4 -18,5 -27,6 7,8 12,12 20,19zm11 9l18 14c9,0 20,0 26,-7 -9,-6 -12,-9 -21,-16 -7,5 -14,8 -23,9zm29 23l21 17c9,-1 20,-4 27,-10 -8,-6 -16,-12 -25,-18 -6,7 -14,10 -23,11zm31 25c8,6 10,8 17,14 11,1 21,2 30,-5 -7,-7 -15,-14 -23,-20 -6,6 -15,9 -24,11zm-71 -89c-7,-7 -13,-14 -18,-21 -8,4 -17,4 -26,2 5,7 10,14 16,22 9,1 19,0 28,-3zm-24 -29c-6,-9 -12,-18 -16,-27 -8,1 -17,-4 -23,-10 3,12 4,23 12,34 8,4 19,6 27,3zm-19 -36c-3,-9 -5,-19 -4,-28 -6,-8 -11,-18 -13,-28 -3,10 -4,21 -4,33 3,10 10,20 21,23zm-2 -42c2,-7 5,-14 9,-21 -2,-13 -2,-26 0,-39 -7,8 -13,17 -17,27 -1,11 2,22 8,33zm17 -32c5,-5 11,-11 17,-16 0,-11 2,-24 6,-35 -6,3 -7,3 -13,7 -10,11 -11,31 -10,44zm27 -24c8,-5 17,-11 28,-16 2,-4 -1,-13 -2,-17 -5,0 -9,-1 -12,-4 -9,8 -13,26 -14,37zm32 -8c1,7 5,17 10,21 11,-9 14,-22 14,-36 -5,4 -13,6 -19,8 -1,4 -2,6 -5,7zm-9 5c-3,2 -6,4 -9,6 0,2 0,8 2,10 4,5 11,6 17,4 -5,-5 -8,-13 -10,-20zm-6 -91c-1,0 -4,1 -5,1 5,2 9,6 10,11 3,-2 5,-3 7,-3 -3,-4 -7,-8 -12,-9zm-21 15c-5,7 -6,17 -6,26 5,-7 12,-13 20,-14 2,0 3,-1 3,-2 1,-13 -9,-18 -17,-10zm-5 41l1 3c13,-5 17,-9 20,-22 -10,1 -15,10 -21,19zm31 -28c1,8 -1,13 -3,20 1,4 5,4 8,4 9,-7 12,-17 13,-27 -1,-4 -3,-6 -7,-8 -6,1 -9,6 -11,11zm13 30c1,3 2,7 3,11 5,-1 9,-3 11,-4 2,-2 3,-4 5,-8 0,-7 -2,-15 -6,-20 -3,8 -7,15 -13,21z"/></g><text x="0" y="862" fill="#000000" font-size="5px" font-weight="bold" font-family="'Helvetica Neue', Helvetica, Arial-Unicode, Arial, Sans-serif">Created by Aina</text><text x="0" y="867" fill="#000000" font-size="5px" font-weight="bold" font-family="'Helvetica Neue', Helvetica, Arial-Unicode, Arial, Sans-serif">from the Noun Project</text></svg>