<svg xmlns="http://www.w3.org/2000/svg" xmlns:xlink="http://www.w3.org/1999/xlink" version="1.1" x="0px" y="0px" viewBox="0 0 100 100" style="enable-background:new 0 0 100 100;" xml:space="preserve"><path d="M85.8,53v-3.2h-9.1C76,39.5,64.3,31.4,50,31.4s-26,8.2-26.8,18.5h-9.1V53h9.1v3.2h-2.3v11.4h7.8V56.3h-1.5V53h45.9v3.2h-1.9  v11.4h7.8V56.3h-1.9V53H85.8z M72.7,49.8h-7.1V39.6C69.7,42.2,72.3,45.8,72.7,49.8z M62.6,49.8h-6.2V36c2.2,0.4,4.3,1.1,6.2,2V49.8z   M53.4,35.5v14.3h-6.2V35.5c0.9-0.1,1.8-0.1,2.8-0.1C51.2,35.4,52.3,35.4,53.4,35.5z M44.2,49.8H38V37.7c1.9-0.8,4-1.4,6.2-1.8V49.8  z M35,39.2v10.6h-7.8C27.7,45.6,30.6,41.8,35,39.2z"/><text x="0" y="115" fill="#000000" font-size="5px" font-weight="bold" font-family="'Helvetica Neue', Helvetica, Arial-Unicode, Arial, Sans-serif">Created by Andrea Harris</text><text x="0" y="120" fill="#000000" font-size="5px" font-weight="bold" font-family="'Helvetica Neue', Helvetica, Arial-Unicode, Arial, Sans-serif">from the Noun Project</text></svg>
