<svg xmlns="http://www.w3.org/2000/svg" viewBox="0 0 64 64" x="0px" y="0px"><title>crossing railroad, railroad, crossing, railway, traffic, train</title><g data-name="Crossing Railroad"><path d="M22.33,39l-3.92-4.5H21.9L25.83,39Zm25,0v-4.5H43L46.92,39ZM19.68,39l-3.92-4.5h-3.5l1.72,2a1,1,0,0,1-.1,1.41,1,1,0,0,1-.66.24,1,1,0,0,1-.75-.34L9.61,34.54H6.12L10,39ZM32,39l-2-2.3a1,1,0,1,1,1.51-1.31L34.63,39h3.49l-3.93-4.5H24.56L28.48,39ZM54.7,8.92l3.54-3.54-1.6-1.59L53.11,7.33l.8.79ZM55,26.37a3.63,3.63,0,1,0,0-2H52.69V12.92l4,4,1.6-1.59L52.82,9.87,51,8V8L46.74,3.79,45.16,5.38,49.4,9.62h0l.75.75a1,1,0,0,1,0,1.42,1,1,0,0,1-1.41,0l-.06,0-3.53,3.54,1.59,1.59,3.94-4V24.37H48.37a3.63,3.63,0,1,0,0,2h2.32v6H49.32v17.3H51a1,1,0,0,1,0,2H47.61v2.54H2.88a1,1,0,0,0,0,2H60a1,1,0,0,0,0-2h-4.2V51.67h-.72a1,1,0,0,1-1-1V32.37H52.69v-6ZM3.46,34.54H2.74V39H7.39ZM44.26,39l-3.92-4.5H36.85L40.77,39ZM16.48,58.21H8.88a1,1,0,0,0,0,2h7.6a1,1,0,0,0,0-2Zm35.5,0H20.53a1,1,0,0,0,0,2H52a1,1,0,0,0,0-2Z"/></g><text x="0" y="79" fill="#000000" font-size="5px" font-weight="bold" font-family="'Helvetica Neue', Helvetica, Arial-Unicode, Arial, Sans-serif">Created by The Icon Z</text><text x="0" y="84" fill="#000000" font-size="5px" font-weight="bold" font-family="'Helvetica Neue', Helvetica, Arial-Unicode, Arial, Sans-serif">from the Noun Project</text></svg>
