<svg xmlns="http://www.w3.org/2000/svg" data-name="Layer 1" viewBox="0 0 100 100" x="0px" y="0px"><title>fruits</title><circle cx="40.64328" cy="48.40329" r="9.42963"/><path d="M21.09735,91.35449a9.42429,9.42429,0,0,0,1.378-1.76642,11.448,11.448,0,0,1-.86133-.77819,11.3064,11.3064,0,0,1-3.31182-7.9961,11.24837,11.24837,0,0,1-7.99567-3.3114,11.45919,11.45919,0,0,1-.78137-.8656,9.42812,9.42812,0,1,0,11.5722,14.71771Z"/><path d="M22.97253,87.45178A9.41918,9.41918,0,0,0,38.50665,83.978c-.20349-.17652-.40857-.35053-.602-.54395a11.38286,11.38286,0,0,1-3.30658-8.37421,11.26614,11.26614,0,0,1-6.95092-3.25762c-.06006-.06006-.11054-.1258-.169-.18689a9.41571,9.41571,0,0,0-4.50562,15.83648Z"/><path d="M18.46173,78.89948a11.25847,11.25847,0,0,1,7.713-8.91028,11.312,11.312,0,0,1-1.81231-5.48755,11.34041,11.34041,0,0,1-8.68006-3.28992c-.19262-.19263-.36584-.39685-.54174-.59949a9.42111,9.42111,0,0,0,3.3211,18.28724Z"/><path d="M52.59882,82.07593a9.37467,9.37467,0,0,0,2.21545-3.53113q-.43908-.35907-.84973-.76782a11.2788,11.2788,0,0,1-3.29376-8.07434,11.37255,11.37255,0,0,1-4.76947-1.02381,11.26458,11.26458,0,0,1-9.38416,6.40259,9.42009,9.42009,0,0,0,16.08167,6.99451Z"/><path d="M43.93262,65.02814a9.42967,9.42967,0,1,0,8.02582-15.98865,11.28134,11.28134,0,0,1-10.679,10.67908A9.37458,9.37458,0,0,0,43.93262,65.02814Z"/><path d="M24.39478,62.58215a11.2435,11.2435,0,0,1,6.18267-8.93444,11.3638,11.3638,0,0,1-1.27758-5.19922,11.27912,11.27912,0,0,1-7.96045-3.29663q-.40943-.40942-.76783-.84974a9.41979,9.41979,0,0,0,3.82319,18.28Z"/><path d="M29.45966,46.55048a11.272,11.272,0,0,1,9.33081-9.33075,9.42959,9.42959,0,1,0-9.33081,9.33075Z"/><path d="M29.00574,70.44366a9.41943,9.41943,0,0,0,15.21747-2.70019,11.24068,11.24068,0,0,1-4.845-7.74921l-.04742-.3266A11.10751,11.10751,0,0,1,31.62054,55.271a9.4084,9.4084,0,0,0-2.6148,15.17266Z"/><path d="M68.65875,76.41876a9.42182,9.42182,0,0,0-6.8919-16.08667,11.28707,11.28707,0,0,1-9.19477,9.19483,9.42188,9.42188,0,0,0,16.08667,6.89184Z"/><path d="M56.79993,37.34155a43.92179,43.92179,0,0,0-4.22632,7.02472,1.71956,1.71956,0,0,0,1.41785,2.47687,1.74466,1.74466,0,0,0,1.72259-.98077,34.68259,34.68259,0,0,1,7.77-10.73786c2.81665,1.53095,9.57806,1.566,10.78,4.27381a10.143,10.143,0,0,0-5.17237.27484c-3.68048,1.22-7.55578,9.40979-7.40582,13.56714a.44405.44405,0,0,0,.67639.42169c1.68378-.81922,4.00055-3.94031,3.89307-2.55793-.05194.66767-.91913.80024-.772,3.57306.21527,4.05811,1.681,6.07465,2.957,6.59925.58288.24,2.82617-1.683,4.32483-4.383a1.255,1.255,0,0,1,1.06659-.67578c.34173-.00159.64453.127.61956.52692L74.362,58.17389a3.53532,3.53532,0,0,0,.18463,1.41852A5.85373,5.85373,0,0,0,76.537,62.28705c.25268.1405.50378.28.75653.42077l6.95215,3.00336,3.78174-6.56158c.11877-.26386.23675-.52564.35553-.78943a5.854,5.854,0,0,0-.01337-3.35,3.533,3.533,0,0,0-.69922-1.24768l-.92554-1.09308c-.25891-.30584-.093-.59.18219-.79278a1.25511,1.25511,0,0,1,1.2591-.09516c2.81457,1.27033,5.76239,1.47229,6.08661.93177.70983-1.18286.68084-3.6756-1.57062-7.0589-1.53827-2.31165-2.31287-1.9-2.75342-2.40424-.912-1.04461,2.81036.07471,4.65009-.27411a.44424.44424,0,0,0,.29065-.74243c-2.36329-3.42383-10.363-7.6767-14.0434-6.45672a6.41111,6.41111,0,0,0-3.28522,2.465c-1.19708-2.78839-7.47717-3.10644-10.84668-5.56531a20.02192,20.02192,0,0,1,11.43061-3.16217c2.27429.06183,2.10461-3.45929-.14655-3.52-8.08026-.21826-14.52234,3.54743-19.38086,9.10242-5.67432,1.84491-11.1828-3.641-14.17395-8.23327-1.88629-2.89612-4.03223-6.19581-3.52539-9.81293a6.985,6.985,0,0,1,4.67212-5.683,16.48528,16.48528,0,0,0,.61371,6.05591c.94983,3.452,3.47131,6.959,6.86474,8.3548,3.17041,1.30414,5.92054-.45984,6.43091-3.81091.6001-3.94013-2.10931-8.03662-4.86011-10.61127A9.27847,9.27847,0,0,0,48.846,8.91937a3.39665,3.39665,0,0,1,1.55517-.84021c3.20551-.78412,6.60144,1.05194,9.0409,2.95172,1.01678.79187,2.07074-.91357,1.06128-1.6997-3.12262-2.43183-7.928-4.60944-11.84931-2.74836a4.99827,4.99827,0,0,0-2.452,2.5199,10.16592,10.16592,0,0,0-1.59986.44641,9.01951,9.01951,0,0,0-5.75268,8.18433c-.19867,4.41052,2.61883,8.43268,5.03711,11.87646C46.9071,33.91119,51.78186,37.55481,56.79993,37.34155ZM49.51837,10.97913c3.87775.5531,7.56494,5.33923,7.96936,9.10589.09619.89539.20429,2.4704-.51861,3.18152-1.15827,1.13934-2.97956.8324-4.15851.10535a10.785,10.785,0,0,1-3.59143-3.8747c-1.09223-1.92718-2.18024-5.8396-1.481-8.57654A8.4421,8.4421,0,0,1,49.51837,10.97913Z"/><text x="0" y="115" fill="#000000" font-size="5px" font-weight="bold" font-family="'Helvetica Neue', Helvetica, Arial-Unicode, Arial, Sans-serif">Created by Lyhn</text><text x="0" y="120" fill="#000000" font-size="5px" font-weight="bold" font-family="'Helvetica Neue', Helvetica, Arial-Unicode, Arial, Sans-serif">from the Noun Project</text></svg>
