<svg xmlns="http://www.w3.org/2000/svg" viewBox="0 0 64 64" x="0px" y="0px"><title>Share Certiﬁcate</title><g data-name="Share Certiﬁcate"><path d="M57.4925,44.4225a2.449,2.449,0,0,0-.0813-.27c-.0262-.0649-.0637-.1242-.0955-.1866a2.39,2.39,0,0,0-.1225-.2288c-.0378-.0576-.0856-.1085-.1285-.163a2.3782,2.3782,0,0,0-.1914-.23,4.3988,4.3988,0,0,1-.7478-.9928l-.0075-.0083-.0073-.0149-.0068-.0107a4.4414,4.4414,0,0,1-.483-1.3119c-.0061-.0283-.011-.0565-.0166-.0848a4.5831,4.5831,0,0,1-.0871-.84,2.4741,2.4741,0,0,0-2.4693-2.48,4.5832,4.5832,0,0,1-3.268-1.35,2.21,2.21,0,0,0-.2815-.2293c-.0379-.0278-.072-.0608-.1115-.0861a2.3569,2.3569,0,0,0-.3348-.1713c-.03-.0129-.0569-.0309-.0872-.0425a2.5111,2.5111,0,0,0-.3582-.1018c-.0343-.0076-.0668-.0213-.1014-.0275a2.6221,2.6221,0,0,0-.3756-.0343,2.6666,2.6666,0,0,0-.2711.0071,2.6062,2.6062,0,0,0-.2929.0267c-.06.0107-.1166.0328-.1755.0477a2.5044,2.5044,0,0,0-.2811.08c-.0507.0193-.0967.0485-.1459.0712a2.3329,2.3329,0,0,0-.2759.141c-.0475.03-.0887.07-.1339.1034a2.1666,2.1666,0,0,0-.2581.21A4.584,4.584,0,0,1,43.0315,37.6a2.4742,2.4742,0,0,0-2.48,2.4694,4.5859,4.5859,0,0,1-1.3492,3.2679,2.4177,2.4177,0,0,0-.2164.26c-.0348.0452-.0746.0869-.1059.1344a2.38,2.38,0,0,0-.1438.2675c-.0249.0507-.056.0983-.0772.1507a2.4285,2.4285,0,0,0-.09.2974c-.0139.0526-.0349.1026-.0452.1563a2.5284,2.5284,0,0,0-.0463.48,2.4158,2.4158,0,0,0,.7177,1.7391,4.5857,4.5857,0,0,1,1.2589,2.32,4.304,4.304,0,0,1,.0971.9437,2.4464,2.4464,0,0,0,2.233,2.4626,1.0618,1.0618,0,0,1,.1148.0167c.03.0026.0772,0,.1216.0005a4.5862,4.5862,0,0,1,3.268,1.3493,2.5194,2.5194,0,0,0,3.4845.0068,4.5835,4.5835,0,0,1,3.2638-1.3561,1.4458,1.4458,0,0,0,.1451-.0026,2.4793,2.4793,0,0,0,2.3347-2.4668,4.38,4.38,0,0,1,.0975-.9367c.0011-.0058-.0016-.0116,0-.0174l.0034-.0117.0008-.0081a4.5614,4.5614,0,0,1,1.2485-2.294,2.4211,2.4211,0,0,0,.724-1.7454,2.5377,2.5377,0,0,0-.0461-.4789C57.5329,44.5414,57.5091,44.4833,57.4925,44.4225Zm-9.458,6.0049a5.3449,5.3449,0,1,1,5.3448-5.3448A5.3511,5.3511,0,0,1,48.0345,50.4274Z"/><circle cx="48.0345" cy="45.0826" r="3.2069"/><path d="M51.88,55.0046c-.0512.0274-.1041.0508-.1533.0818a2.4831,2.4831,0,0,0-.4347.3408,4.6038,4.6038,0,0,1-6.52-.0068,2.45,2.45,0,0,0-.4322-.3374c-.048-.03-.1-.0531-.15-.08a2.4366,2.4366,0,0,0-.3444-.1534c-.0284-.01-.0576-.0172-.0864-.0261V62.745l3.8787-1.5518a1.0733,1.0733,0,0,1,.7944,0L52.31,62.745v-7.92c-.0287.0088-.0581.0161-.0865.0261A2.4315,2.4315,0,0,0,51.88,55.0046Z"/><path d="M59.7931,1.255H4.2069A3.21,3.21,0,0,0,1,4.4619V45.0826A3.21,3.21,0,0,0,4.2069,48.29H37.64a4.46,4.46,0,0,1-.2989-.3695c-.08-.1-.17-.1919-.2408-.2978a4.4568,4.4568,0,0,1-.2531-.4709c-.0527-.1044-.1184-.202-.1629-.31a4.5475,4.5475,0,0,1-.1754-.5794c-.01-.0372-.0244-.0725-.0332-.11H8.4828a1.069,1.069,0,0,1-1.069-1.0689,3.21,3.21,0,0,0-3.2069-3.2069,1.0691,1.0691,0,0,1-1.069-1.069V8.7377a1.069,1.069,0,0,1,1.069-1.0689A3.21,3.21,0,0,0,7.4138,4.4619a1.069,1.069,0,0,1,1.069-1.069H55.5172a1.069,1.069,0,0,1,1.069,1.069,3.21,3.21,0,0,0,3.2069,3.2069,1.069,1.069,0,0,1,1.069,1.0689v32.069a1.0691,1.0691,0,0,1-1.069,1.069,3.1617,3.1617,0,0,0-1.176.23c.0356.0415.0672.0856.1012.1282.089.1109.186.2156.2636.3338s.1353.25.2018.3758a4.4938,4.4938,0,0,1,.2074.403,4.5729,4.5729,0,0,1,.1376.4545c.0373.13.0875.2548.1134.3885a4.6647,4.6647,0,0,1-.0012,1.7975c-.0188.096-.0579.1849-.0826.279a4.5531,4.5531,0,0,1-.1741.5743c-.0439.1068-.1087.2033-.1607.3063a4.4551,4.4551,0,0,1-.2565.4764c-.0695.1045-.1592.1957-.2378.2946a4.5118,4.5118,0,0,1-.3.3723h1.3644A3.21,3.21,0,0,0,63,45.0826V4.4619A3.21,3.21,0,0,0,59.7931,1.255Z"/><path d="M57.6691,40.1773a5.2191,5.2191,0,0,1,1.055-.3341V9.6992a5.3607,5.3607,0,0,1-4.1683-4.1684H9.4442A5.3607,5.3607,0,0,1,5.2759,9.6992V39.8453a5.3606,5.3606,0,0,1,4.1683,4.1683H36.4627a4.5307,4.5307,0,0,1,.201-.6356c.0047-.0119.0109-.023.0157-.0349.0192-.0475.0451-.0916.066-.1383a4.4737,4.4737,0,0,1,.2733-.5208c.025-.0407.0468-.0826.073-.1226s.0577-.0788.086-.1188a4.5226,4.5226,0,0,1,.3409-.4218c.0313-.0347.0537-.0753.0862-.1091a2.6848,2.6848,0,0,0,.809-1.8321,4.6148,4.6148,0,0,1,4.6073-4.6177,2.6871,2.6871,0,0,0,1.8415-.8085c.0749-.0719.164-.1232.2436-.1888a4.52,4.52,0,0,1,5.8479-.0068c.0823.0676.1743.1208.2518.195a2.6829,2.6829,0,0,0,1.8315.8091,4.6149,4.6149,0,0,1,4.6178,4.6073C57.6552,40.1062,57.6674,40.1406,57.6691,40.1773ZM17.0345,20.4964A5.3448,5.3448,0,0,1,18.1034,31.078v1.177a1.069,1.069,0,0,1-2.1379,0V31.078A5.3538,5.3538,0,0,1,11.69,25.8412a1.069,1.069,0,1,1,2.1379,0,3.2069,3.2069,0,1,0,3.2069-3.2069,5.3448,5.3448,0,0,1-1.069-10.5816v-1.177a1.069,1.069,0,1,1,2.1379,0v1.177A5.3538,5.3538,0,0,1,22.3793,17.29a1.069,1.069,0,0,1-2.1379,0,3.2069,3.2069,0,1,0-3.2069,3.2069Zm24.5862,10.69H28.7931a1.069,1.069,0,1,1,0-2.1379H41.6207a1.069,1.069,0,1,1,0,2.1379Zm10.69-5.3448H28.7931a1.069,1.069,0,1,1,0-2.1379H52.31a1.069,1.069,0,1,1,0,2.1379Zm0-5.3448H28.7931a1.069,1.069,0,1,1,0-2.138H52.31a1.069,1.069,0,1,1,0,2.138Z"/></g><text x="0" y="79" fill="#000000" font-size="5px" font-weight="bold" font-family="'Helvetica Neue', Helvetica, Arial-Unicode, Arial, Sans-serif">Created by Andreas Vögele</text><text x="0" y="84" fill="#000000" font-size="5px" font-weight="bold" font-family="'Helvetica Neue', Helvetica, Arial-Unicode, Arial, Sans-serif">from the Noun Project</text></svg>
