<svg xmlns="http://www.w3.org/2000/svg" xmlns:xlink="http://www.w3.org/1999/xlink" version="1.1" x="0px" y="0px" viewBox="0 0 50 50" enable-background="new 0 0 50 50" xml:space="preserve"><g><path fill-rule="evenodd" clip-rule="evenodd" d="M40.194,19.538h3.257v2.42h-3.257V19.538z M35.715,23.157h3.257v2.421h-3.257   V23.157z M40.194,23.157h3.257v2.421h-3.257V23.157z M6.55,19.538h3.257v2.42H6.55V19.538z M6.55,23.157h3.257v2.421H6.55V23.157z    M14.286,19.538v2.42h-3.257v-2.42H14.286z M11.028,23.157h3.257v2.421h-3.257V23.157z M35.715,19.538h3.257v2.42h-3.257V19.538z    M27.125,11.284c0,1.173-0.951,2.124-2.125,2.124c-1.173,0-2.125-0.951-2.125-2.124S23.826,9.159,25,9.159   C26.174,9.159,27.125,10.11,27.125,11.284z M17.665,44.183h14.809l0.884,2.914H36.3l-5.16-17.048H50v-2.841h-1.937V14.926h-9.254   v-4.688L25,2.903l-13.809,7.335v4.688H1.937v12.283H0v2.841h19l-5.16,17.048h2.942L17.665,44.183z M19.262,38.924h11.617   l0.835,2.753H18.426L19.262,38.924z M20.744,34.037h8.651l0.722,2.38H20.022L20.744,34.037z M21.955,30.049h6.231l0.449,1.481   h-7.13L21.955,30.049z M28.916,21.646v5.563h-7.831v-5.563C21.084,16.941,28.916,16.909,28.916,21.646z"/></g><text x="0" y="65" fill="#000000" font-size="5px" font-weight="bold" font-family="'Helvetica Neue', Helvetica, Arial-Unicode, Arial, Sans-serif">Created by Georgiana Ionescu</text><text x="0" y="70" fill="#000000" font-size="5px" font-weight="bold" font-family="'Helvetica Neue', Helvetica, Arial-Unicode, Arial, Sans-serif">from the Noun Project</text></svg>
