<svg xmlns:dc="http://purl.org/dc/elements/1.1/" xmlns:cc="http://creativecommons.org/ns#" xmlns:rdf="http://www.w3.org/1999/02/22-rdf-syntax-ns#" xmlns:svg="http://www.w3.org/2000/svg" xmlns="http://www.w3.org/2000/svg" xmlns:sodipodi="http://sodipodi.sourceforge.net/DTD/sodipodi-0.dtd" xmlns:inkscape="http://www.inkscape.org/namespaces/inkscape" version="1.1" x="0px" y="0px" viewBox="0 0 95.218956 46"><g transform="translate(-296.76905,-376.56741)"><path style="" d="m 342.54638,387.78004 c -1.13127,0.64021 -2.24374,1.29993 -3.34898,1.97786 l -32.1521,30.08347 5.15485,0 30.34623,-32.06133 z" fill="#000000" fill-opacity="1" stroke="#000000" stroke-width="0.15287776px" stroke-linecap="butt" stroke-linejoin="miter" stroke-opacity="1"/><path style="" d="m 352.13946,376.64863 -9.00546,8.43216 c 0.59329,-0.27444 1.1921,-0.54218 1.79632,-0.80261 l 7.21392,-7.62955 -0.005,0 z" fill="#000000" fill-opacity="1" stroke="#000000" stroke-width="0.15287776px" stroke-linecap="butt" stroke-linejoin="miter" stroke-opacity="1"/><path style="" d="m 367.34124,376.99738 c -0.49124,0.11721 -0.97831,0.23956 -1.45711,0.36786 0.57426,-0.12485 1.14757,-0.24151 1.72465,-0.34875 l -0.26754,-0.0191 z m -1.45711,0.36786 c -6.95979,1.51316 -13.93086,3.74562 -19.7069,6.7314 -5.6953,2.94404 -10.63392,5.41806 -15.0919,8.79525 -9.91346,7.51004 -16.90725,11.83694 -34.11563,26.94948 l 5.15485,0 c 10.05464,-9.75723 20.13773,-19.58432 32.1951,-27.62787 5.87101,-3.9166 11.631,-7.31538 18.57942,-10.13771 3.88117,-1.57646 8.13251,-3.41019 12.98506,-4.71055 z" fill="#000000" fill-opacity="1" stroke="#000000" stroke-width="0.15287776px" stroke-linecap="butt" stroke-linejoin="miter" stroke-opacity="1"/><path style="" d="m 366.14759,394.44369 18.09548,25.29153 7.57528,0.10768 -25.97976,-29.17749 c -0.0183,0.65245 -0.0152,1.30458 0.0374,1.95703 0.049,0.60713 0.15114,1.21412 0.27155,1.82125 z" fill="#000000" fill-opacity="1" stroke="#000000" stroke-width="0.14982021px" stroke-linecap="butt" stroke-linejoin="miter" stroke-opacity="1"/><path style="" d="m 353.86889,376.64385 1.84887,3.14833 c 0.16313,-0.058 0.31882,-0.11941 0.48252,-0.17677 l -2.31706,-2.97156 -0.0143,0 z" fill="#000000" fill-opacity="1" stroke="#000000" stroke-width="0.15287776px" stroke-linecap="butt" stroke-linejoin="miter" stroke-opacity="1"/><path style="" d="m 310.9072,419.83605 5.96717,-5.77474 53.70451,-0.28874 3.3151,6.06348 z" fill="#000000" fill-opacity="1" stroke="#000000" stroke-width="0.16352302px" stroke-linecap="butt" stroke-linejoin="miter" stroke-opacity="1"/><path style="" d="m 320.43238,410.27977 4.79348,-4.61501 41.20153,-0.1146 1.98406,4.67422 z" fill="#000000" fill-opacity="1" stroke="#000000" stroke-width="0.16609915px" stroke-linecap="butt" stroke-linejoin="miter" stroke-opacity="1"/><path style="" d="m 327.58001,403.08191 3.1227,-3.16842 34.1809,-0.0553 0.97887,3.39733 z" fill="#000000" fill-opacity="1" stroke="#000000" stroke-width="0.16708978px" stroke-linecap="butt" stroke-linejoin="miter" stroke-opacity="1"/><path style="" d="m 332.66982,397.84214 1.93218,-2.15507 29.97375,0.0885 0.38737,2.18456 z" fill="#000000" fill-opacity="1" stroke="#000000" stroke-width="0.16792721px" stroke-linecap="butt" stroke-linejoin="miter" stroke-opacity="1"/><path style="" d="m 336.20307,394.22727 1.53689,-1.57949 25.99589,-0.14359 -0.14484,1.76075 z" fill="#000000" fill-opacity="1" stroke="#000000" stroke-width="0.16552822px" stroke-linecap="butt" stroke-linejoin="miter" stroke-opacity="1"/><path style="" d="m 338.88986,391.33623 1.00028,-1.00247 23.94338,0.0294 -0.24536,1.03188 z" fill="#000000" fill-opacity="1" stroke="#000000" stroke-width="0.16333675px" stroke-linecap="butt" stroke-linejoin="miter" stroke-opacity="1"/><path style="" d="m 367.98142,376.84928 c -2.64456,4.52455 -4.90295,9.43594 -4.97808,16.52991 -0.0301,2.53027 4.51026,16.744 10.12337,26.46218 l 6.79828,0 c -10.15601,-14.29129 -13.78188,-23.17739 -14.31795,-26.03221 -1.2409,-5.65263 0.81804,-11.30247 2.48426,-16.9551 l -0.10988,-0.005 z" fill="#000000" fill-opacity="1" stroke="#000000" stroke-width="0.15287776px" stroke-linecap="butt" stroke-linejoin="miter" stroke-opacity="1"/><path style="" d="m 341.04644,389.08053 0.77236,-0.75739 22.16404,0.27088 -0.25559,0.86598 z" fill="#000000" fill-opacity="1" stroke="#000000" stroke-width="0.14699845px" stroke-linecap="butt" stroke-linejoin="miter" stroke-opacity="1"/><path style="" d="m 343.214,387.32045 1.17599,-0.76702 19.93019,0.16612 -0.31302,0.95219 z" fill="#000000" fill-opacity="1" stroke="#000000" stroke-width="0.11931554px" stroke-linecap="butt" stroke-linejoin="miter" stroke-opacity="1"/><path style="" d="m 344.48219,385.65202 1.19082,-0.49313 19.26623,0.59037 -0.27356,0.56487 z" fill="#000000" fill-opacity="1" stroke="#000000" stroke-width="0.10854676px" stroke-linecap="butt" stroke-linejoin="miter" stroke-opacity="1"/><path style="" d="m 346.85829,384.54349 0.61,-0.39738 17.59402,0.44505 -0.27317,0.4824 z" fill="#000000" fill-opacity="1" stroke="#000000" stroke-width="0.09577397px" stroke-linecap="butt" stroke-linejoin="miter" stroke-opacity="1"/><path style="" d="m 348.74857,383.69665 0.92644,-0.408 15.54366,0.19769 -0.25109,0.49806 z" fill="#000000" fill-opacity="1" stroke="#000000" stroke-width="0.07787994px" stroke-linecap="butt" stroke-linejoin="miter" stroke-opacity="1"/><path style="" d="m 350.56818,382.92771 0.84803,-0.27725 13.68029,0.15333 -0.15419,0.27685 z" fill="#000000" fill-opacity="1" stroke="#000000" stroke-width="0.06773011px" stroke-linecap="butt" stroke-linejoin="miter" stroke-opacity="1"/><path style="" d="m 351.63091,382.37974 0.80863,-0.18736 13.05769,0.14365 -0.15435,0.18896 z" fill="#000000" fill-opacity="1" stroke="#000000" stroke-width="0.05474192px" stroke-linecap="butt" stroke-linejoin="miter" stroke-opacity="1"/><path style="" d="m 352.58761,381.85428 0.43877,-0.14029 12.55242,0.33601 -0.14466,0.1686 z" fill="#000000" fill-opacity="1" stroke="#000000" stroke-width="0.049588px" stroke-linecap="butt" stroke-linejoin="miter" stroke-opacity="1"/><path style="" d="m 353.65039,381.45144 0.67641,-0.13056 11.44926,0.41434 -0.17369,0.19021 z" fill="#000000" fill-opacity="1" stroke="#000000" stroke-width="0.04049149px" stroke-linecap="butt" stroke-linejoin="miter" stroke-opacity="1"/><path style="" d="m 354.52047,381.07013 0.66196,-0.0778 10.64857,0.43136 -0.12832,0.0964 z" fill="#000000" fill-opacity="1" stroke="#000000" stroke-width="0.03608906px" stroke-linecap="butt" stroke-linejoin="miter" stroke-opacity="1"/><path style="" d="m 355.95027,380.59395 0.34303,-0.0772 9.88401,0.37529 -0.1863,0.0951 z" fill="#000000" fill-opacity="1" stroke="#000000" stroke-width="0.03376779px" stroke-linecap="butt" stroke-linejoin="miter" stroke-opacity="1"/><path style="" d="m 356.32988,380.33794 0.55385,-0.0571 9.44992,0.35667 -0.18999,0.0915 z" fill="#000000" fill-opacity="1" stroke="#000000" stroke-width="0.0260298px" stroke-linecap="butt" stroke-linejoin="miter" stroke-opacity="1"/><path style="" d="m 357.1816,380.09762 0.53195,-0.0689 8.5532,0.3467 -0.10332,0.0837 z" fill="#000000" fill-opacity="1" stroke="#000000" stroke-width="0.03007981px" stroke-linecap="butt" stroke-linejoin="miter" stroke-opacity="1"/><path style="" d="m 357.8396,379.86729 0.29243,-0.0811 8.40854,0.31559 -0.15919,0.0983 z" fill="#000000" fill-opacity="1" stroke="#000000" stroke-width="0.03146261px" stroke-linecap="butt" stroke-linejoin="miter" stroke-opacity="1"/><path style="" d="m 358.75077,379.62894 0.43575,-0.0639 7.42207,0.27463 -0.15017,0.0957 z" fill="#000000" fill-opacity="1" stroke="#000000" stroke-width="0.02336701px" stroke-linecap="butt" stroke-linejoin="miter" stroke-opacity="1"/><path style="" d="m 359.35886,379.37902 0.43384,-0.0754 6.96306,0.28295 -0.0849,0.0869 z" fill="#000000" fill-opacity="1" stroke="#000000" stroke-width="0.02751951px" stroke-linecap="butt" stroke-linejoin="miter" stroke-opacity="1"/><path style="" d="m 359.94503,379.11664 0.25246,-0.0826 7.22345,0.3181 -0.13815,0.10006 z" fill="#000000" fill-opacity="1" stroke="#000000" stroke-width="0.02942295px" stroke-linecap="butt" stroke-linejoin="miter" stroke-opacity="1"/><path style="" d="m 360.37833,378.77998 0.39871,-0.0592 6.76176,0.36617 -0.13899,0.0947 z" fill="#000000" fill-opacity="1" stroke="#000000" stroke-width="0.02241336px" stroke-linecap="butt" stroke-linejoin="miter" stroke-opacity="1"/><path style="" d="m 361.18138,378.48073 0.37845,-0.0714 6.03322,0.37233 -0.076,0.0874 z" fill="#000000" fill-opacity="1" stroke="#000000" stroke-width="0.02585686px" stroke-linecap="butt" stroke-linejoin="miter" stroke-opacity="1"/><path style="" d="m 362.05656,378.3073 0.1825,-0.0895 5.18673,0.21224 -0.10059,0.10569 z" fill="#000000" fill-opacity="1" stroke="#000000" stroke-width="0.02536003px" stroke-linecap="butt" stroke-linejoin="miter" stroke-opacity="1"/><path style="" d="m 362.74853,378.05342 0.26739,-0.0729 4.52314,0.1809 -0.0938,0.10209 z" fill="#000000" fill-opacity="1" stroke="#000000" stroke-width="0.0186487px" stroke-linecap="butt" stroke-linejoin="miter" stroke-opacity="1"/><path style="" d="m 363.86084,377.80484 0.22329,-0.0889 3.54571,0.17406 -0.0455,0.0947 z" fill="#000000" fill-opacity="1" stroke="#000000" stroke-width="0.02034469px" stroke-linecap="butt" stroke-linejoin="miter" stroke-opacity="1"/><path style="" d="m 365.01422,377.57757 0.10077,-0.0977 2.80905,0.1122 -0.0567,0.11296 z" fill="#000000" fill-opacity="1" stroke="#000000" stroke-width="0.01911683px" stroke-linecap="butt" stroke-linejoin="miter" stroke-opacity="1"/><path style="" d="m 365.88348,377.3324 0.12238,-0.084 2.0314,0.0663 -0.0451,0.10996 z" fill="#000000" fill-opacity="1" stroke="#000000" stroke-width="0.0128236px" stroke-linecap="butt" stroke-linejoin="miter" stroke-opacity="1"/><path style="" d="m 367.08805,377.09272 0.0653,-0.10609 0.97661,0.0482 -0.0162,0.1054 z" fill="#000000" fill-opacity="1" stroke="#000000" stroke-width="0.01117295px" stroke-linecap="butt" stroke-linejoin="miter" stroke-opacity="1"/><path style="" d="m 355.02462,380.82341 0.64224,-0.079 10.32912,0.41856 -0.12461,0.097 z" fill="#000000" fill-opacity="1" stroke="#000000" stroke-width="0.03562238px" stroke-linecap="butt" stroke-linejoin="miter" stroke-opacity="1"/><rect style="" width="4.8781695" height="0.21420646" x="350.18445" y="378.44849" fill="#000000" fill-opacity="1" fill-rule="nonzero" stroke="none"/><rect style="" width="4.2527633" height="0.21420646" x="350.68326" y="377.97958" fill="#000000" fill-opacity="1" fill-rule="nonzero" stroke="none"/><rect style="" width="5.9919882" height="0.38693774" x="349.55753" y="379.01001" fill="#000000" fill-opacity="1" fill-rule="nonzero" stroke="none"/><path style="" d="m 348.85259,379.74918 0,0.49685 5.72814,0 c 0.548,-0.16954 1.09943,-0.33688 1.65299,-0.49685 l -7.38113,0 z m 7.43368,0.47774 c -0.0173,0.007 -0.0352,0.0126 -0.0525,0.0191 l 0.0525,0 0,-0.0191 z" fill="#000000" fill-opacity="1" fill-rule="nonzero" stroke="none"/><path style="" d="m 347.67734,380.80977 0,0.61151 3.73117,0 c 0.53781,-0.2096 1.08071,-0.4123 1.62911,-0.61151 l -5.36028,0 z m 6.096,0.60673 c -0.006,0.002 -0.0131,0.002 -0.0191,0.005 l 0.0191,0 0,-0.005 z" fill="#000000" fill-opacity="1" fill-rule="nonzero" stroke="none"/><path style="" d="m 346.18678,382.19045 0,0.60673 1.83931,0 c 0.45302,-0.20687 0.91198,-0.40815 1.3759,-0.60673 l -3.21521,0 z m 5.57526,0 c -0.47943,0.19846 -0.95499,0.40272 -1.42367,0.60673 l 1.93964,0 0,-0.60673 -0.51597,0 z" fill="#000000" fill-opacity="1" fill-rule="nonzero" stroke="none"/><rect style="" width="3.3999212" height="0.21420646" x="351.14447" y="377.53336" fill="#000000" fill-opacity="1" fill-rule="nonzero" stroke="none"/><rect style="" width="2.8103726" height="0.15696873" x="351.46503" y="377.25623" fill="#000000" fill-opacity="1" fill-rule="nonzero" stroke="none"/><rect style="" width="2.3581946" height="0.15696873" x="351.77411" y="376.95047" fill="#000000" fill-opacity="1" fill-rule="nonzero" stroke="none"/><rect style="" width="1.8201597" height="0.15124495" x="352.10034" y="376.65045" fill="#000000" fill-opacity="1" fill-rule="nonzero" stroke="none"/></g><text x="0" y="58.627491" fill="#000000" font-size="5px" font-weight="bold" font-family="'Helvetica Neue', Helvetica, Arial-Unicode, Arial, Sans-serif">Created by Felipe Perucho</text><text x="0" y="63.627491" fill="#000000" font-size="5px" font-weight="bold" font-family="'Helvetica Neue', Helvetica, Arial-Unicode, Arial, Sans-serif">from the Noun Project</text></svg>
