<svg xmlns="http://www.w3.org/2000/svg" xmlns:xlink="http://www.w3.org/1999/xlink" xml:space="preserve" version="1.1" style="shape-rendering:geometricPrecision;text-rendering:geometricPrecision;image-rendering:optimizeQuality;" viewBox="0 0 277 160" x="0px" y="0px" fill-rule="evenodd" clip-rule="evenodd"><defs><style type="text/css">
   
    .fil0 {fill:black}
   
  </style></defs><g><path class="fil0" d="M148 99c0,0 12,4 15,9 3,7 13,9 15,10 2,1 11,4 11,4 0,0 -17,-1 -22,-5 -5,-5 -9,-11 -11,-12 -1,0 -2,-2 -8,-5 -5,-2 -15,-8 -15,-8 5,2 10,4 15,7zm-148 49c10,0 22,-3 33,-3 9,1 17,5 27,3 1,0 3,-1 5,-1 3,0 6,-1 9,-1 2,0 5,0 8,0 -3,0 -21,3 -15,4 6,0 -13,5 -14,5 21,0 54,-9 79,-8 5,1 20,4 26,4 -18,-7 10,-4 19,-4 15,0 27,1 40,1 10,2 17,-2 27,-3 11,0 23,3 33,3 -8,-2 -11,-7 -16,-6 -3,0 -4,-2 -5,-4 -1,-1 -2,-2 -4,-1 -1,0 -1,1 -2,1 0,0 0,0 0,0 -1,0 -1,-1 -2,0 -1,0 -1,1 -2,0 0,0 -1,0 -2,0 0,0 0,0 0,-1 -1,0 -1,0 -1,0 -1,1 -1,1 -2,0 0,0 0,-2 -1,-2 -1,0 -1,2 -2,2 -1,-1 0,-3 -2,-3 0,0 -1,0 -1,1l-2 -2c0,0 0,-1 -1,-1 -22,-18 -47,-38 -54,-41 -5,-1 -23,-13 -23,-13 -5,-2 -10,3 -16,6 -6,6 -10,6 -13,9 -1,0 -10,0 -16,4 -3,2 -7,5 -8,5 0,0 5,-2 7,-1 3,2 8,3 8,5 0,3 4,6 6,8 4,4 13,10 13,10 0,0 -16,-10 -18,-12 -1,-3 -6,-7 -6,-7 -1,-1 -1,-2 -2,-1 -3,0 -8,0 -10,1 -3,2 -2,1 -6,2 -4,1 -7,3 -10,5 -5,4 -10,8 -15,11 0,0 14,-13 14,-13 1,0 14,-6 16,-7 3,-2 8,-5 9,-7 1,-1 4,-2 7,-2 0,0 8,-2 10,-3 2,-1 6,-3 8,-3 0,-1 1,-1 1,-1 -1,-1 -2,0 -3,-1 -12,-3 -11,-9 -18,-12 0,0 -13,-2 -18,3 -19,17 -15,26 -40,35 -11,8 -19,17 -27,26l-1 0c-5,-3 -6,-1 -8,0 -1,1 -2,0 -4,0 -5,-1 -7,8 -15,10zm211 -9c0,0 0,0 -1,-1 0,0 0,0 0,0 0,0 1,0 1,1z"/><path class="fil0" d="M201 0c8,0 14,5 16,12 24,-6 29,33 4,33 -5,0 -10,-2 -13,-6 -5,9 -16,14 -26,10 -3,13 -19,18 -29,9 -1,1 -3,2 -5,2 -6,14 -26,6 -19,-8 -8,-12 1,-29 17,-28 -1,-21 25,-29 38,-13 0,-1 1,-1 2,-1 2,-6 8,-10 15,-10z"/><circle class="fil0" cx="135" cy="76" r="5"/><circle class="fil0" cx="122" cy="67" r="2"/><circle class="fil0" cx="148" cy="72" r="3"/><circle class="fil0" cx="125" cy="75" r="1"/><circle class="fil0" cx="168" cy="77" r="1"/><circle class="fil0" cx="162" cy="68" r="2"/><circle class="fil0" cx="128" cy="67" r="1"/></g><text x="0" y="170" fill="#000000" font-size="5px" font-weight="bold" font-family="'Helvetica Neue', Helvetica, Arial-Unicode, Arial, Sans-serif">Created by ani</text><text x="0" y="175" fill="#000000" font-size="5px" font-weight="bold" font-family="'Helvetica Neue', Helvetica, Arial-Unicode, Arial, Sans-serif">from the Noun Project</text></svg>
