<svg xmlns="http://www.w3.org/2000/svg" data-name="Layer 1" viewBox="0 0 95 95" x="0px" y="0px"><title>wood</title><path d="M25.6,53.59A7.11,7.11,0,0,1,20.7,51.5a6.23,6.23,0,0,1-1.54-4.36A5.33,5.33,0,0,1,19.52,45a6.57,6.57,0,0,1,6.09-4.36.91.91,0,0,1,.91.91.86.86,0,0,1-.91.91,4.62,4.62,0,0,0-4.36,3.09A4.24,4.24,0,0,0,21,47.14a4.5,4.5,0,0,0,1,3.09,5.1,5.1,0,0,0,3.54,1.54,4.9,4.9,0,0,0,3.36-1.36,4.45,4.45,0,0,0,1.27-3.27.91.91,0,0,1,.91-.91.86.86,0,0,1,.91.91,6.55,6.55,0,0,1-1.73,4.54A6.68,6.68,0,0,1,25.6,53.59Z"/><path d="M27.33,48a.91.91,0,0,1-.91-.91.91.91,0,0,0-1.82,0,.91.91,0,0,1-.91.91.86.86,0,0,1-.91-.91,2.73,2.73,0,0,1,5.45,0A.86.86,0,0,1,27.33,48Z"/><path d="M43.59,53A4.5,4.5,0,0,1,42,52.77.92.92,0,1,1,42.68,51a4.44,4.44,0,0,0,1.18.09H44a4.77,4.77,0,0,0,3.54-1.27,3.34,3.34,0,0,0,.91-2.73,4.89,4.89,0,0,0-.73-2,5,5,0,0,0-1.54-1.54A4.22,4.22,0,0,0,44.14,43a4.46,4.46,0,0,0-3,1.45,3.27,3.27,0,0,0-.91,1.36.92.92,0,0,1-1.73-.64,4.61,4.61,0,0,1,1.36-2,6.11,6.11,0,0,1,4.27-2,5.72,5.72,0,0,1,3,.82,6.26,6.26,0,0,1,2.18,2.18,5.54,5.54,0,0,1,1,2.91A5.06,5.06,0,0,1,49,51c-1,1.27-2.73,1.91-4.91,1.91H44A1.43,1.43,0,0,1,43.59,53Z"/><path d="M21.33,68.76a.55.55,0,0,1-.36-.09.9.9,0,0,1-.45-1.18,4.53,4.53,0,0,0-1.82-5.91A4.12,4.12,0,0,0,16.34,61a4.7,4.7,0,0,0-4.63,2.91A4.77,4.77,0,0,0,12,67a.92.92,0,0,1-1.73.64A7.06,7.06,0,0,1,10,63.4a6.69,6.69,0,0,1,6.36-4.09,6.92,6.92,0,0,1,3.27.73,6.61,6.61,0,0,1,3.18,5.54,6,6,0,0,1-.64,2.73A.85.85,0,0,1,21.33,68.76Z"/><path d="M16.43,68.22a2.73,2.73,0,0,1-1.36-5.09.87.87,0,0,1,.82,1.54,1,1,0,0,0-.45.82.91.91,0,0,0,1.82,0,.91.91,0,0,1,1.82,0A2.66,2.66,0,0,1,16.43,68.22Z"/><path d="M35.87,71.85a.88.88,0,0,1-.91-.73A.92.92,0,0,1,35.69,70a4.75,4.75,0,0,0,3.73-4.54,3.7,3.7,0,0,0-1.91-3.54,7.23,7.23,0,0,0-2.91-1.09,4.43,4.43,0,0,0-3.18,1.54,3.86,3.86,0,0,0-.91,1.54.92.92,0,0,1-1.73-.64,6.56,6.56,0,0,1,1.27-2.18,5.89,5.89,0,0,1,4.54-2.18,8.42,8.42,0,0,1,3.82,1.36,5.45,5.45,0,0,1,2.82,5.09,6.5,6.5,0,0,1-5.09,6.27C36,71.85,35.87,71.85,35.87,71.85Z"/><path d="M34.78,68.22a2.73,2.73,0,0,1-2.73-2.73,2.68,2.68,0,0,1,2.73-2.73.91.91,0,1,1,0,1.82.91.91,0,1,0,.91.91.91.91,0,0,1,.91-.91.86.86,0,0,1,.91.91A2.79,2.79,0,0,1,34.78,68.22Z"/><path d="M53.13,71.94a.91.91,0,1,1,0-1.82,4.65,4.65,0,0,0,4.63-4.63,4.89,4.89,0,0,0-.73-2l-.09-.18a3.8,3.8,0,0,0-1.45-1.82,4.4,4.4,0,0,0-2.36-.64,4.62,4.62,0,0,0-4.36,3.09,4.24,4.24,0,0,0-.27,1.54,5.4,5.4,0,0,0,.64,2.36.92.92,0,1,1-1.54,1,6.24,6.24,0,0,1-.91-3.36A5.33,5.33,0,0,1,47,63.4,6.57,6.57,0,0,1,53.13,59a5.79,5.79,0,0,1,5.45,3.45l.09.18a6.45,6.45,0,0,1,.91,2.82A6.54,6.54,0,0,1,53.13,71.94Z"/><path d="M53.13,68.22a2.73,2.73,0,0,1-2.73-2.73,2.58,2.58,0,0,1,1-2.09.91.91,0,1,1,1.09,1.45,1.12,1.12,0,0,0-.36.73.91.91,0,0,0,.91.91.91.91,0,0,1,.91.91C54,67.85,53.59,68.22,53.13,68.22Z"/><path d="M34.78,35.05a6.14,6.14,0,0,1-6.45-6.18,5.33,5.33,0,0,1,.36-2.09.92.92,0,0,1,1.73.64,4.48,4.48,0,0,0,1.36,5,4.38,4.38,0,0,0,3,.91,4.68,4.68,0,0,0,2.45-.55,4.5,4.5,0,0,0,2.27-3.91,4.22,4.22,0,0,0-2.36-4,4.4,4.4,0,0,0-2.36-.64.91.91,0,1,1,0-1.82,5.93,5.93,0,0,1,3.27.91,5.88,5.88,0,0,1,3.27,5.54,6.37,6.37,0,0,1-3.18,5.45A7.26,7.26,0,0,1,34.78,35.05Z"/><path d="M35.78,31.15a.83.83,0,0,1-.73-.36,1,1,0,0,1,.18-1.27,1.28,1.28,0,0,0,.55-.73,1,1,0,0,0-1-.91.91.91,0,0,0-.91.91.91.91,0,0,1-.91.91.86.86,0,0,1-.91-.91,2.73,2.73,0,0,1,2.73-2.73,2.81,2.81,0,0,1,2.82,2.73A2.67,2.67,0,0,1,36.32,31,.67.67,0,0,1,35.78,31.15Z"/><path d="M44.68,49.68a.83.83,0,0,1-.73-.36A1,1,0,0,1,44.14,48a1.28,1.28,0,0,0,.55-.73,1,1,0,0,0-1-.91.91.91,0,0,0-.91.91.91.91,0,0,1-.91.91.86.86,0,0,1-.91-.91,2.73,2.73,0,0,1,2.73-2.73,2.81,2.81,0,0,1,2.82,2.73,2.67,2.67,0,0,1-1.27,2.18A.67.67,0,0,1,44.68,49.68Z"/><path d="M58.86,26.88a.91.91,0,0,1-.91-.91.86.86,0,0,1,.91-.91,1.4,1.4,0,0,0,1-.27c.09-.09.09-.09.09-.18s-.27-.55-1-.55a8.76,8.76,0,0,0-1.09.18,24.3,24.3,0,0,1-4,.45,25.53,25.53,0,0,1-4.18-.45,11.4,11.4,0,0,0-1.36-.18.91.91,0,1,1,0-1.82c.36,0,.91.09,1.64.18a23.12,23.12,0,0,0,3.91.45,20.87,20.87,0,0,0,3.63-.45,12.44,12.44,0,0,1,1.45-.18,2.54,2.54,0,0,1,2.82,2.36,1.94,1.94,0,0,1-.82,1.64A3,3,0,0,1,58.86,26.88Z"/><path d="M48.14,31.33A2.13,2.13,0,0,1,46,29.15a2.19,2.19,0,0,1,.64-1.54A2.63,2.63,0,0,1,48.5,27a.91.91,0,0,1,.91.91.86.86,0,0,1-.91.91c-.36,0-.73.09-.73.36s.09.36.27.36c.73,0,4.91-.09,8.63-.18,3.27-.09,6.36-.09,6.91-.09a.91.91,0,1,1,0,1.82c-.45,0-3.54.09-6.81.09C53,31.24,48.86,31.33,48.14,31.33Z"/><path d="M73.76,46.5c0-1.45-2.09-3.73-3.36-3.73a5.93,5.93,0,0,0-1,.18,8.45,8.45,0,0,1-4.27,0,.92.92,0,1,0-.64,1.73,8.7,8.7,0,0,0,4,.27,4.58,4.58,0,0,0,.18,3.27,10.15,10.15,0,0,0-4.63.55A1,1,0,0,0,63.67,50a1,1,0,0,0,.82.45.82.82,0,0,0,.45-.09c.91-.55,3.63-.36,4.82-.27h1.09C72.3,50,73.76,48,73.76,46.5Zm-2.82,1.73a2.7,2.7,0,0,1-.73-2.73c.18-.55.45-.45.64-.45H71a3,3,0,0,1,1,1.45A3.51,3.51,0,0,1,70.94,48.23Z"/><path d="M66.58,64.4a.82.82,0,0,1-.64-.27,1.91,1.91,0,0,1-.55-2c.55-1.27,2.63-1.73,3.18-1.73,1.54,0,3.82-.09,5.72-.09,1.36,0,2.45-.09,3-.09a.91.91,0,1,1,0,1.82c-.55,0-1.73,0-3,.09-1.82,0-4.18.09-5.72.09a2.85,2.85,0,0,0-1.45.55l.09.09a.88.88,0,0,1,0,1.27A.71.71,0,0,1,66.58,64.4Z"/><path d="M87.57,61.67c-.45-1.18-1.91-1-3.63-.73a.69.69,0,0,0-.36.09.09.09,0,0,1,.09-.09c.82-1,1.36-1.64,1.36-2.45a1.12,1.12,0,0,0-.45-.91,10.53,10.53,0,0,0-6.45-2.27H75.39a10.39,10.39,0,0,0,3.91-8.09A10.26,10.26,0,0,0,69,37H66.31a10.39,10.39,0,0,0,3.91-8.09c0-6-3.63-10-9.36-10.36-1.54-.09-3-.18-4.54-.18-2.18,0-4.18.09-6.09.18-1.18.09-2.36.09-3.54.18H43.23c-3.09,0-6.27-.09-7.54-.09h-.55a11,11,0,0,0-5.36,1.45,1.13,1.13,0,0,0-.45,1.36l.55,1.64c-.82,0-1.73.09-2.73.09a1,1,0,0,0-.91.55A9,9,0,0,0,24.79,29a8.74,8.74,0,0,0,1.91,5.54l.18.18A19.89,19.89,0,0,0,28.69,37H26.06A10.26,10.26,0,0,0,15.79,47.23a10.39,10.39,0,0,0,3.91,8.09H17a10.27,10.27,0,0,0,0,20.53h54.7a2.76,2.76,0,0,0,.64.45,2.56,2.56,0,0,0,1.36.36,3.17,3.17,0,0,0,2.18-.91H78A10.26,10.26,0,0,0,88.29,65.49,11.35,11.35,0,0,0,87.57,61.67ZM68.85,39.14a8.09,8.09,0,1,1,0,16.17H50.41a10.32,10.32,0,0,0,0-16.17H68.85ZM44,55.22A8.09,8.09,0,1,1,52,47.14,8.1,8.1,0,0,1,44,55.22Zm2.73,2.27A9.69,9.69,0,0,0,44,60.86a10.84,10.84,0,0,0-2.73-3.36h5.45Zm-9.18-2.27H32a9.69,9.69,0,0,0,2.73-3.36A11.13,11.13,0,0,0,37.51,55.22ZM32,39.14h5.45a9.69,9.69,0,0,0-2.73,3.36A8.93,8.93,0,0,0,32,39.14Zm10.9-18.26h3.54c1.27,0,2.45-.09,3.63-.18,2-.09,3.91-.18,6-.18,1.54,0,3,.09,4.45.18,4.54.27,7.27,3.36,7.27,8.18A8.1,8.1,0,0,1,59.67,37H41.14A10.39,10.39,0,0,0,45,28.87,10.29,10.29,0,0,0,41.32,21,8.81,8.81,0,0,1,42.87,20.88ZM28.15,33.05a7.13,7.13,0,0,1-1.45-4.27,6.85,6.85,0,0,1,.73-3.54c2-.09,3.73-.09,3.73-.18a1.12,1.12,0,0,0,.91-.45,1,1,0,0,0,.09-1l-.73-2.09a8.6,8.6,0,0,1,3.36-.73,8.09,8.09,0,1,1,0,16.17,9.27,9.27,0,0,1-3.63-.55,9,9,0,0,1-2.82-3ZM17.52,47.14a8.09,8.09,0,1,1,8.09,8.09A8.1,8.1,0,0,1,17.52,47.14ZM28.33,57.49a9.69,9.69,0,0,0-2.73,3.36,10.84,10.84,0,0,0-2.73-3.36Zm-20,8a8.09,8.09,0,1,1,8.09,8.09A8.1,8.1,0,0,1,8.34,65.49Zm14.45,8.09a9.69,9.69,0,0,0,2.73-3.36,10.84,10.84,0,0,0,2.73,3.36Zm12,0a8.09,8.09,0,1,1,8.09-8.09A8.1,8.1,0,0,1,34.78,73.58Zm6.45,0h0a10.56,10.56,0,0,0,2.63-3.36,10.84,10.84,0,0,0,2.73,3.36Zm11.9,0a8.09,8.09,0,1,1,8.09-8.09A8.1,8.1,0,0,1,53.13,73.58Zm21.9.27h0V74h0v.09h0l-.09.09c-.36.45-1.18.82-1.64.55a2.9,2.9,0,0,1-.64-.55c0-.09.09-.09.09-.18h0l.09-.09h0l.27-.27a2.42,2.42,0,0,1,1.27-.55h.36a1.27,1.27,0,0,1,.36.64C75,73.67,75,73.76,75,73.85Zm3-.27H76.94A2.72,2.72,0,0,0,76,71.67a11.94,11.94,0,0,1-2.54-4.18.93.93,0,0,0-1.82.36,14.06,14.06,0,0,0,1.73,3.63A4.21,4.21,0,0,0,71.3,73c-1.27-1.45-2.63-2.82-4.09-2.54a.93.93,0,1,0,.36,1.82c.36-.09,1.18.73,1.91,1.45h-10a10.32,10.32,0,0,0,0-16.17H77.94a7.8,7.8,0,0,1,4.45,1.36c-.18.18-.36.45-.55.64-1,1.18-1.91,2.27-1.09,3.27.64.82,1.82.64,3.45.45a7,7,0,0,1,1.36-.18A8.05,8.05,0,0,1,78,73.58Z"/><text x="0" y="110" fill="#000000" font-size="5px" font-weight="bold" font-family="'Helvetica Neue', Helvetica, Arial-Unicode, Arial, Sans-serif">Created by H V P</text><text x="0" y="115" fill="#000000" font-size="5px" font-weight="bold" font-family="'Helvetica Neue', Helvetica, Arial-Unicode, Arial, Sans-serif">from the Noun Project</text></svg>
