<svg xmlns="http://www.w3.org/2000/svg" xmlns:xlink="http://www.w3.org/1999/xlink" version="1.1" x="0px" y="0px" viewBox="0 0 100 100" enable-background="new 0 0 100 100" xml:space="preserve"><path d="M94.171875,73.9414063H6c-0.5522461,0-1,0.2798462-1,0.625s0.4477539,0.625,1,0.625h88.171875  c0.5522461,0,1-0.2798462,1-0.625S94.7241211,73.9414063,94.171875,73.9414063z"/><ellipse cx="25.6351929" cy="68.7721252" rx="4.0700684" ry="4.0621643"/><ellipse cx="17.4949951" cy="68.7721252" rx="4.0700684" ry="4.0621643"/><ellipse cx="85.6351929" cy="68.7721252" rx="4.0700684" ry="4.0621643"/><ellipse cx="77.4949951" cy="68.7721252" rx="4.0700684" ry="4.0621643"/><path d="M5.125,64h3.9822388v-0.9938354h5.9373779c-2.2404785,0.9558105-3.8151245,3.1799927-3.8151245,5.7658081h1  c0-2.9033203,2.3623047-5.265625,5.265625-5.265625h8.0722656c2.9033203,0,5.265625,2.3623047,5.265625,5.265625h1  c0-3.4550781-2.8105469-6.265625-6.265625-6.265625H25v-1.1728516h50v1.6726685h0.0446167  c-2.2404785,0.9558105-3.8151245,3.1799927-3.8151245,5.7658081h1c0-2.9033203,2.3623047-5.265625,5.265625-5.265625h8.0722656  c2.9033203,0,5.265625,2.3623047,5.265625,5.265625h1c0-2.5858154-1.574585-4.8099976-3.8150635-5.7658081h2.9998169v0.8271484H95  v-0.8271484V60.5v-1.4760742h-3.4824219V30.1665039V29.5v-0.3334961V24.5H8.6074219v4.6665039V29.5v0.6665039v28.8574219H5.125V60.5  H5v2.5061646h0.125V64z M33.8630371,30.5H35.5v1.625h9V30.5h1v28.3098145L63.8630371,30.5H65.5v28.3098145L83.8630371,30.5H85.5  v29.8334961h-1V31.3566895L65.7043457,60.3334961H64.5V31.3566895L45.7043457,60.3334961H44.5V52.125h-9v8.2084961h-1V31.3566895  L15.7043457,60.3334961H14.5V30.5h1v28.3098145L33.8630371,30.5z M9.6074219,25.5h80.9101563v3.6665039H9.6074219V25.5z"/><rect x="35.5" y="33.125" width="9" height="18"/><text x="0" y="115" fill="#000000" font-size="5px" font-weight="bold" font-family="'Helvetica Neue', Helvetica, Arial-Unicode, Arial, Sans-serif">Created by Evgeni Moryakov</text><text x="0" y="120" fill="#000000" font-size="5px" font-weight="bold" font-family="'Helvetica Neue', Helvetica, Arial-Unicode, Arial, Sans-serif">from the Noun Project</text></svg>
