<svg xmlns="http://www.w3.org/2000/svg" xmlns:xlink="http://www.w3.org/1999/xlink" version="1.1" x="0px" y="0px" viewBox="0 0 100 100" enable-background="new 0 0 100 100" xml:space="preserve"><path d="M94.171875,73.9414063H6c-0.5522461,0-1,0.2798462-1,0.625s0.4477539,0.625,1,0.625h88.171875  c0.5522461,0,1-0.2798462,1-0.625S94.7241211,73.9414063,94.171875,73.9414063z"/><ellipse cx="25.6352539" cy="68.7721252" rx="4.0700684" ry="4.0621643"/><ellipse cx="17.4949951" cy="68.7721252" rx="4.0700684" ry="4.0621643"/><ellipse cx="85.6352539" cy="68.7721252" rx="4.0700684" ry="4.0621643"/><ellipse cx="77.4949951" cy="68.7721252" rx="4.0700684" ry="4.0621643"/><path d="M5.125,64h3.9821777v-0.9938354h5.9375c-2.2404785,0.9558105-3.8151855,3.1799927-3.8151855,5.7658081h1  c0-2.9033203,2.3623047-5.265625,5.265625-5.265625h8.0722656c2.9033203,0,5.265625,2.3623047,5.265625,5.265625h1  c0-2.5858154-1.574585-4.8099976-3.8150635-5.7658081h16.9522705v2.5h10v-2.5h20.0744629  c-2.2404785,0.9558105-3.8151855,3.1799927-3.8151855,5.7658081h1c0-2.9033203,2.3623047-5.265625,5.265625-5.265625h8.0722656  c2.9033203,0,5.265625,2.3623047,5.265625,5.265625h1c0-2.5858154-1.574585-4.8099976-3.8150635-5.7658081h2.9998779v0.8271484H95  v-0.8271484V60.5v-1.4760742h-3.9821777V60.5H85.333252V38.0288086l2.8896484-3.1674194  c3.1013184-3.3994141,1.1334229-9.0873413-3.4494629-9.5008545c-0.1998291-0.0180054-0.4022217-0.0272217-0.6066895-0.0272217  H15.7739258c-0.2045898,0-0.4069824,0.0092163-0.6068115,0.0272217c-4.5828857,0.4135132-6.5506592,6.1014404-3.4494629,9.5008545  l3.1156006,3.4152222V60.5H9.1071777v-1.4760742H5.125V60.5H5v2.5061646h0.125V64z M80.833252,42.9615479V60.5h-16  L80.833252,42.9615479z M19.333252,43.2093506L35.1071777,60.5H25h-5.666748V43.2093506z"/><text x="0" y="115" fill="#000000" font-size="5px" font-weight="bold" font-family="'Helvetica Neue', Helvetica, Arial-Unicode, Arial, Sans-serif">Created by Evgeni Moryakov</text><text x="0" y="120" fill="#000000" font-size="5px" font-weight="bold" font-family="'Helvetica Neue', Helvetica, Arial-Unicode, Arial, Sans-serif">from the Noun Project</text></svg>
