<svg xmlns="http://www.w3.org/2000/svg" xmlns:xlink="http://www.w3.org/1999/xlink" version="1.1" x="0px" y="0px" viewBox="0 0 100 100" enable-background="new 0 0 100 100" xml:space="preserve"><path d="M94.171875,73.9414063H6c-0.5522461,0-1,0.2798462-1,0.625s0.4477539,0.625,1,0.625h88.171875  c0.5522461,0,1-0.2798462,1-0.625S94.7241211,73.9414063,94.171875,73.9414063z"/><ellipse cx="25.6351929" cy="68.7721252" rx="4.0700684" ry="4.0621643"/><ellipse cx="17.4949951" cy="68.7721252" rx="4.0700684" ry="4.0621643"/><ellipse cx="85.6351929" cy="68.7721252" rx="4.0700684" ry="4.0621643"/><ellipse cx="77.4949951" cy="68.7721252" rx="4.0700684" ry="4.0621643"/><g><rect x="58.40625" y="36.7194824" width="8.9277344" height="3.6665039"/><rect x="58.40625" y="46.3498535" width="8.9277344" height="3.9633789"/><rect x="58.40625" y="31.7194824" width="8.9277344" height="4"/><rect x="58.40625" y="41.3859863" width="8.9277344" height="3.9638672"/><rect x="58.40625" y="51.3132324" width="8.9277344" height="4.0727539"/><path d="M91.0177612,59.0239258V60.5h-7.9810181c1.1622314-0.4824829,2.1777954-1.2952271,2.8988037-2.3764648l0.5634766-0.8461914   c4.7695313-7.1542969,4.7695313-16.4003906,0-23.5546875l-0.5634766-0.8461914C84.734375,31.0751953,82.7246094,30,80.5605469,30   H57.7392578v-2.5H42.1808472V30h-22.741394c-2.1640625,0-4.1738281,1.0751953-5.375,2.8764648   c-5.1113281,7.668457-5.1113281,17.5786133,0,25.2470703c0.7210083,1.0812378,1.7365723,1.8939819,2.8988037,2.3764648H9.1072388   v-1.4760742H5.125V60.5H5v2.5061646h0.125V64h3.9822388v-0.9938354h5.9373779   c-2.2404785,0.9558105-3.8151245,3.1799927-3.8151245,5.7658081h1c0-2.9033203,2.3623047-5.265625,5.265625-5.265625h8.0722656   c2.9033203,0,5.265625,2.3623047,5.265625,5.265625h1c0-3.4550781-2.8105469-6.265625-6.265625-6.265625H25V61h20.125v2.0061646h10   V61h2.28125v-4.6140137v-5.0727539v-5.9633789v-4.9638672v-4.6665039v-5h10.9277344v5v4.6665039v4.9638672v5.9633789v5.0727539V61   H75v2.0061646h0.0446167c-2.2404785,0.9558105-3.8151245,3.1799927-3.8151245,5.7658081h1   c0-2.9033203,2.3623047-5.265625,5.265625-5.265625h8.0722656c2.9033203,0,5.265625,2.3623047,5.265625,5.265625h1   c0-2.5858154-1.574585-4.8099976-3.8150635-5.7658081h2.9998169v0.8271484H95v-0.8271484V60.5v-1.4760742H91.0177612z"/><rect x="58.40625" y="56.3859863" width="8.9277344" height="4.6140137"/></g><path d="M67.3339844,61v4.8967285H58.40625V61c-0.421875,0-0.609375,0-1,0v10.7297363h10.9277344V61  C67.9488525,61.0045204,67.6293335,60.9903374,67.3339844,61z M67.3339844,70.7297363H58.40625v-3.8330078h8.9277344V70.7297363z"/><text x="0" y="115" fill="#000000" font-size="5px" font-weight="bold" font-family="'Helvetica Neue', Helvetica, Arial-Unicode, Arial, Sans-serif">Created by Evgeni Moryakov</text><text x="0" y="120" fill="#000000" font-size="5px" font-weight="bold" font-family="'Helvetica Neue', Helvetica, Arial-Unicode, Arial, Sans-serif">from the Noun Project</text></svg>
