<?xml version="1.0" encoding="utf-8"?>
<!-- Generator: Adobe Illustrator 21.1.0, SVG Export Plug-In . SVG Version: 6.00 Build 0)  -->
<svg version="1.0" id="Layer_1" xmlns="http://www.w3.org/2000/svg" xmlns:xlink="http://www.w3.org/1999/xlink" x="0px" y="0px"
	 viewBox="0 0 170.08 170.08" style="enable-background:new 0 0 170.08 170.08;" xml:space="preserve">
<style type="text/css">
	.st0{fill:#D79CC6;}
	.st1{fill:#3F1F0C;}
</style>
<polygon class="st0" points="132.665,103.124 162.114,86.121 132.665,69.118 "/>
<path class="st1" d="M133.117,102.344V69.892l28.104,16.229L133.117,102.344z M132.254,103.082l-0.044,0.042l0.044,0.044v0.656
	l30.673-17.703l-30.673-17.703V103.082z"/>
<polygon class="st0" points="112.955,57.736 84.982,41.588 56.993,57.736 "/>
<path class="st1" d="M111.276,57.285H58.668l26.309-15.186L111.276,57.285z M55.464,58.147l0.004,0.027l0.017,0.017h58.977
	l0.017-0.017l0.011-0.042l-0.006-0.023L85.433,41.327l-0.478-0.233l-0.438,0.239L55.464,58.109V58.147z"/>
<polygon class="st0" points="59.931,116.199 84.966,130.654 110.023,116.199 "/>
<path class="st1" d="M58.402,115.764l-0.011,0.044l0.006,0.021l26.12,15.085l0.432,0.281l0.478-0.281l26.124-15.085l0.006-0.021
	l-0.011-0.044l-0.015-0.015H58.42L58.402,115.764z M61.601,116.648h46.746l-23.366,13.486h-0.004l-0.011,0.006L61.601,116.648z"/>
<polygon class="st0" points="33.665,71.204 7.834,86.121 33.665,101.037 "/>
<path class="st1" d="M33.216,71.985v28.278L8.729,86.121L33.216,71.985z M34.073,71.248l0.044-0.044l-0.044-0.044v-0.656
	L7.021,86.121l27.052,15.617V71.248z"/>
<path class="st1" d="M120.651,82.542l0.006,0.342c0,0.748,0.216,1.404,0.645,1.978c0.434,0.57,1.067,0.966,1.903,1.199l1.398,0.266
	c0.91,0.178,1.628,0.363,2.158,0.568c0.526,0.201,0.966,0.516,1.318,0.939c0.358,0.423,0.537,1.002,0.537,1.741
	c0,0.715-0.245,1.339-0.727,1.871c0.245-0.499,0.363-0.977,0.363-1.427c0-0.606-0.157-1.138-0.472-1.588
	c-0.314-0.451-0.754-0.786-1.316-1.004c-0.304-0.136-0.863-0.272-1.66-0.411l-1.833-0.369c-0.417-0.103-0.798-0.277-1.144-0.526
	c-0.26-0.189-0.494-0.434-0.694-0.733c-0.207-0.293-0.363-0.612-0.472-0.949c-0.101-0.331-0.157-0.666-0.157-0.997
	c0-0.298,0.05-0.679,0.153-1.155L120.651,82.542z M121.056,90.941l0.316,0.52l0.417,0.537c-0.298-0.011-0.52,0.015-0.662,0.086
	c-0.145,0.071-0.304,0.222-0.476,0.461v-2.51L121.056,90.941z M126.913,81.685l-0.559-0.727l-0.614-0.541l0.685,0.103
	c0.195,0,0.39-0.033,0.585-0.103l0.287,1.794L126.913,81.685z M120.364,93.061h0.503c0.277-0.379,0.65-0.574,1.117-0.574
	c0.281,0,0.689,0.103,1.22,0.304l1.117,0.4c0.216,0.071,0.541,0.103,0.97,0.103c0.759,0,1.442-0.195,2.06-0.585
	c0.62-0.39,1.096-0.91,1.438-1.561c0.34-0.656,0.509-1.356,0.509-2.11c0-0.78-0.184-1.481-0.553-2.104
	c-0.369-0.618-0.889-1.106-1.561-1.452c-0.363-0.191-0.857-0.342-1.477-0.461l-2.108-0.434c-0.78-0.168-1.371-0.417-1.773-0.754
	c-0.402-0.331-0.603-0.809-0.603-1.437c0-0.44,0.115-0.847,0.331-1.22c0.222-0.369,0.515-0.656,0.878-0.868
	c0.363-0.21,0.759-0.314,1.182-0.314c0.851,0,1.595,0.304,2.228,0.905c0.629,0.608,1.232,1.486,1.811,2.636h0.612l-0.379-3.86
	h-0.668c-0.281,0.151-0.58,0.228-0.899,0.228c-0.251,0-0.656-0.061-1.215-0.174c-0.553-0.119-1.02-0.174-1.404-0.174
	c-0.526,0-1.01,0.103-1.442,0.31c-0.428,0.207-0.798,0.488-1.096,0.845c-0.298,0.358-0.532,0.765-0.694,1.226
	c-0.168,0.465-0.249,0.949-0.249,1.452c0,0.526,0.092,1.02,0.275,1.475c0.186,0.461,0.461,0.857,0.819,1.188
	c0.36,0.325,0.792,0.585,1.303,0.771c0.331,0.124,0.89,0.249,1.676,0.39c0.786,0.136,1.419,0.287,1.903,0.444
	c0.482,0.157,0.899,0.44,1.241,0.836c0.346,0.396,0.52,0.955,0.52,1.67c0,0.759-0.26,1.387-0.78,1.877
	c-0.526,0.488-1.155,0.731-1.888,0.731c-0.585,0-1.15-0.163-1.691-0.488c-0.537-0.325-1.031-0.824-1.486-1.496
	c-0.455-0.673-0.845-1.507-1.171-2.494h-0.58V93.061z M107.842,91.879l0.478-0.801l-0.017,0.314c0,0.461,0.186,0.846,0.559,1.161
	h-1.691L107.842,91.879z M115.976,91.754c0,0.212-0.075,0.402-0.228,0.553c-0.151,0.159-0.363,0.245-0.639,0.245h-0.195l0.39-0.363
	c0.065-0.082,0.098-0.212,0.098-0.396c0-0.281-0.098-0.671-0.293-1.171l-3.118-8.503c-0.13-0.358-0.266-0.645-0.413-0.857
	c-0.14-0.21-0.358-0.379-0.639-0.499l0.417-0.036c0.287,0,0.511,0.086,0.679,0.27c0.163,0.174,0.319,0.478,0.476,0.907l3.145,8.501
	C115.868,91.001,115.976,91.45,115.976,91.754 M111.769,82.397l1.88,5.063h-3.742L111.769,82.397z M115.109,91.739
	c0,0.287-0.115,0.482-0.337,0.58c-0.228,0.103-0.57,0.174-1.02,0.228v0.52h5.243v-0.52c-0.488-0.113-0.846-0.281-1.085-0.505
	c-0.233-0.222-0.471-0.645-0.704-1.274l-4.078-11.098h-0.813l-2.116,0.775v0.461c0.342,0.038,0.597,0.109,0.777,0.212
	c0.178,0.101,0.341,0.302,0.503,0.595l-3.053,8.325c-0.557,1.528-1.289,2.364-2.205,2.51v0.52h4.082v-0.52
	c-0.444-0.021-0.792-0.189-1.041-0.509c-0.249-0.321-0.379-0.689-0.379-1.108c0-0.438,0.08-0.861,0.231-1.268l0.582-1.599h4.17
	l0.987,2.689C115.027,91.157,115.109,91.488,115.109,91.739 M96.549,92.606l-1.014-0.509c-0.348-0.212-0.689-0.499-1.025-0.846
	c-0.547-0.591-0.976-1.312-1.28-2.169c-0.31-0.857-0.467-1.72-0.467-2.598c0-0.694,0.097-1.372,0.283-2.022
	c0.189-0.656,0.465-1.276,0.819-1.861c0.358-0.585,0.763-1.085,1.215-1.496c0.449-0.407,0.932-0.721,1.442-0.933l1.002-0.293
	l-1.052,0.559c-0.298,0.18-0.612,0.434-0.949,0.765c-0.677,0.683-1.209,1.502-1.599,2.445c-0.39,0.945-0.585,1.888-0.585,2.819
	c0,0.803,0.151,1.605,0.455,2.42c0.308,0.807,0.742,1.534,1.301,2.173c0.423,0.478,0.836,0.847,1.241,1.111l1.481,0.815
	L96.549,92.606z M101.966,88.376c-0.115-0.195-0.283-0.379-0.499-0.547c0.39,0.044,0.677,0.142,0.857,0.298
	c0.178,0.151,0.293,0.363,0.335,0.633l0.065,1.341c0,0.503-0.054,0.91-0.163,1.224c-0.107,0.31-0.287,0.564-0.547,0.765
	c-0.254,0.195-0.612,0.346-1.079,0.455c0.423-0.243,0.727-0.553,0.916-0.928c0.189-0.373,0.281-0.748,0.281-1.132V89.25
	C102.132,88.864,102.079,88.577,101.966,88.376 M101.298,80.444l0.272,0.071l0.352,0.077l0.352,0.021
	c0.174,0,0.39-0.054,0.656-0.168l0.124,1.708C102.48,81.404,101.895,80.834,101.298,80.444 M103.255,79.625
	c-0.21,0.316-0.591,0.472-1.138,0.472c-0.201,0-0.694-0.092-1.486-0.272c-0.792-0.184-1.484-0.272-2.093-0.272
	c-0.899,0-1.723,0.186-2.477,0.564c-0.754,0.379-1.395,0.895-1.93,1.551c-0.532,0.656-0.945,1.404-1.226,2.25
	c-0.287,0.846-0.428,1.714-0.428,2.603c0,0.91,0.142,1.773,0.428,2.601c0.287,0.83,0.715,1.557,1.28,2.192
	c0.564,0.633,1.262,1.121,2.087,1.475c0.83,0.346,1.758,0.526,2.787,0.526c0.559,0,1.123-0.055,1.697-0.168
	c0.576-0.115,1.14-0.272,1.704-0.478c0.557-0.201,1.083-0.438,1.572-0.71v-2.093c0-0.608,0.036-1.037,0.113-1.291
	c0.077-0.254,0.228-0.428,0.455-0.526c0.222-0.098,0.629-0.174,1.215-0.222v-0.538h-5.725v0.538
	c0.574,0.048,0.981,0.124,1.215,0.228c0.237,0.103,0.384,0.281,0.449,0.537c0.059,0.254,0.092,0.698,0.092,1.328l-0.071,1.008
	c-0.048,0.266-0.151,0.52-0.308,0.754c-0.201,0.298-0.499,0.543-0.889,0.733c-0.39,0.184-0.813,0.277-1.264,0.277
	c-0.769,0-1.479-0.26-2.135-0.786c-0.656-0.526-1.178-1.264-1.563-2.219c-0.385-0.949-0.574-2.033-0.574-3.248
	c0-1.224,0.172-2.309,0.52-3.254c0.352-0.943,0.846-1.685,1.481-2.217c0.633-0.532,1.354-0.798,2.169-0.798
	c0.428,0,0.84,0.071,1.241,0.218c0.396,0.14,0.78,0.363,1.144,0.662s0.715,0.677,1.058,1.138c0.34,0.467,0.645,0.993,0.916,1.578
	h0.476l-0.151-4.143H103.255z M80.385,91.879l0.482-0.801l-0.021,0.314c0,0.461,0.189,0.846,0.559,1.161h-1.693L80.385,91.879z
	 M88.518,91.754c0,0.212-0.077,0.402-0.228,0.553c-0.147,0.159-0.363,0.245-0.641,0.245h-0.189l0.384-0.363
	c0.065-0.082,0.098-0.212,0.098-0.396c0-0.281-0.098-0.671-0.293-1.171l-3.118-8.503c-0.13-0.358-0.266-0.645-0.411-0.857
	c-0.142-0.21-0.358-0.379-0.635-0.499l0.413-0.036c0.287,0,0.515,0.086,0.677,0.27c0.163,0.174,0.325,0.478,0.476,0.907l3.145,8.501
	C88.409,91.001,88.518,91.45,88.518,91.754 M84.31,82.397l1.882,5.063h-3.742L84.31,82.397z M87.65,91.739
	c0,0.287-0.113,0.482-0.337,0.58c-0.228,0.103-0.568,0.174-1.02,0.228v0.52h5.245v-0.52c-0.49-0.113-0.847-0.281-1.085-0.505
	c-0.233-0.222-0.467-0.645-0.706-1.274L85.67,79.669h-0.813l-2.114,0.775v0.461c0.341,0.038,0.601,0.109,0.775,0.212
	c0.174,0.101,0.342,0.302,0.505,0.595l-3.053,8.325c-0.559,1.528-1.291,2.364-2.207,2.51v0.52h4.084v-0.52
	c-0.446-0.021-0.792-0.189-1.042-0.509c-0.249-0.321-0.373-0.689-0.373-1.108c0-0.438,0.075-0.861,0.228-1.268l0.58-1.599h4.17
	l0.987,2.689C87.57,91.157,87.65,91.488,87.65,91.739 M73.818,85.394c0.31-0.423,0.461-1.062,0.461-1.913
	c0-0.809-0.13-1.46-0.39-1.942c-0.26-0.488-0.656-0.874-1.188-1.161c0.694,0.109,1.23,0.417,1.605,0.928
	c0.375,0.509,0.564,1.197,0.564,2.06c0,0.89-0.212,1.593-0.635,2.116c-0.423,0.52-1.029,0.828-1.815,0.937
	C73.043,86.165,73.508,85.823,73.818,85.394 M72.001,87.297l0.218,0.298l1.262,1.578l1.194,1.593l1.079,1.247
	c0.337,0.331,0.683,0.585,1.046,0.777c-0.293-0.011-0.57-0.061-0.824-0.142c-0.26-0.082-0.559-0.266-0.895-0.553
	c-0.335-0.283-0.698-0.694-1.088-1.226l-1.28-1.756l-1.052-1.368l-0.738-0.769h0.721L72.001,87.297z M69.453,81.1
	c0.077-0.26,0.228-0.455,0.461-0.585c0.233-0.13,0.574-0.189,1.025-0.189c0.45,0,0.813,0.027,1.106,0.092
	c0.287,0.059,0.564,0.189,0.824,0.385c0.748,0.553,1.123,1.41,1.123,2.586c0,0.987-0.245,1.725-0.727,2.207
	c-0.239,0.249-0.597,0.455-1.064,0.624c-0.471,0.163-0.949,0.254-1.431,0.254H69.34v-4.245C69.34,81.735,69.382,81.36,69.453,81.1
	 M67.333,80.893c-0.082-0.237-0.272-0.428-0.581-0.568c0.369-0.023,0.647,0.027,0.824,0.145c0.18,0.121,0.293,0.304,0.342,0.549
	c0.054,0.249,0.086,0.612,0.086,1.1v9.478c0,0.612-0.396,0.928-1.165,0.949c0.405-0.222,0.612-0.624,0.612-1.215V82.06
	C67.452,81.517,67.408,81.126,67.333,80.893 M71.285,92.546l-0.559-0.038l-0.624-0.124c-0.319-0.098-0.526-0.26-0.618-0.488
	c-0.092-0.222-0.142-0.538-0.142-0.928v-3.984h0.977c0.21,0,0.45,0.151,0.731,0.455l1.274,1.637l1.232,1.676l1.052,1.285
	c0.308,0.325,0.629,0.58,0.964,0.757c0.337,0.18,0.694,0.272,1.069,0.272h1.664v-0.52l-0.591-0.272l-0.559-0.455l-0.574-0.629
	l-0.717-0.899l-0.27-0.325l-0.18-0.212l-0.872-1.1l-1.498-1.833c0.543-0.094,1.014-0.251,1.421-0.472
	c0.413-0.222,0.759-0.488,1.046-0.801c0.287-0.316,0.511-0.662,0.662-1.048c0.151-0.385,0.228-0.78,0.228-1.192
	c0-0.618-0.163-1.194-0.499-1.729c-0.331-0.537-0.824-0.966-1.481-1.291c-0.656-0.319-1.419-0.488-2.293-0.488H65.17v0.526
	c0.612,0.015,1.052,0.075,1.322,0.178c0.277,0.098,0.455,0.272,0.543,0.517c0.086,0.243,0.13,0.612,0.13,1.117v8.772
	c0,0.472-0.05,0.819-0.153,1.035c-0.101,0.218-0.293,0.369-0.568,0.457c-0.277,0.08-0.7,0.134-1.274,0.145v0.52h6.115V92.546z
	 M53.44,91.863c-0.033,0.21-0.124,0.379-0.275,0.499c-0.153,0.119-0.407,0.189-0.765,0.189h-0.222
	c0.298-0.136,0.499-0.298,0.597-0.494c0.098-0.195,0.145-0.526,0.145-0.998v-8.87c0-0.706-0.038-1.161-0.119-1.362
	c-0.082-0.199-0.266-0.367-0.553-0.503c0.541-0.012,0.884,0.103,1.023,0.331c0.142,0.228,0.218,0.689,0.218,1.377v8.876
	L53.44,91.863z M60.826,91.793c0,0.201-0.071,0.375-0.222,0.526c-0.147,0.151-0.337,0.233-0.57,0.233h-0.233
	c0.289-0.163,0.434-0.375,0.434-0.645c0-0.207-0.059-0.419-0.178-0.629l-0.564-0.809l-3.319-4.511l0.396-0.385l3.568,4.771
	C60.598,90.953,60.826,91.435,60.826,91.793 M60.723,80.845l-0.943,0.867c0.086-0.199,0.13-0.394,0.13-0.58
	c0-0.298-0.136-0.564-0.417-0.813h2.072C61.233,80.476,60.95,80.65,60.723,80.845 M58.554,80.325c0.337,0,0.603,0.086,0.786,0.26
	c0.185,0.178,0.277,0.402,0.277,0.689c0,0.26-0.098,0.536-0.304,0.83c-0.201,0.293-0.503,0.627-0.905,1.008l-3.579,3.411v-4.681
	c0-0.547,0.109-0.937,0.331-1.171c0.216-0.233,0.668-0.346,1.356-0.346h0.124v-0.526h-6.02v0.526c0.597,0,1.031,0.054,1.318,0.168
	c0.283,0.113,0.467,0.281,0.559,0.503c0.086,0.218,0.13,0.543,0.13,0.96v8.834c0,0.411-0.032,0.742-0.103,0.991
	c-0.075,0.245-0.233,0.434-0.476,0.564c-0.251,0.136-0.629,0.201-1.15,0.201h-0.277v0.52h6.02v-0.52l-0.331-0.033l-0.482-0.044
	c-0.375-0.042-0.635-0.201-0.782-0.471c-0.14-0.266-0.216-0.662-0.216-1.173v-3.6l1.106-1.052l3.487,4.652l0.379,0.559l0.142,0.484
	c0,0.449-0.467,0.677-1.41,0.677v0.52h5.932v-0.52c-0.287-0.038-0.536-0.113-0.754-0.222c-0.21-0.109-0.423-0.272-0.629-0.482
	l-0.828-1.016l-4.669-6.23l2.125-2.001l1.356-1.148c0.396-0.304,0.801-0.555,1.209-0.75c0.411-0.195,0.813-0.319,1.203-0.373v-0.526
	h-5.27v0.526H58.554z M38.828,91.879l0.482-0.801l-0.015,0.314c0,0.461,0.184,0.846,0.553,1.161h-1.693L38.828,91.879z
	 M46.962,91.754c0,0.212-0.077,0.402-0.228,0.553c-0.147,0.159-0.363,0.245-0.635,0.245h-0.195l0.384-0.363
	c0.065-0.082,0.098-0.212,0.098-0.396c0-0.281-0.098-0.671-0.287-1.171l-3.124-8.503c-0.13-0.358-0.264-0.645-0.411-0.857
	c-0.142-0.21-0.352-0.379-0.635-0.499l0.413-0.036c0.287,0,0.515,0.086,0.677,0.27c0.168,0.174,0.325,0.478,0.478,0.907l3.145,8.501
	C46.853,91.001,46.962,91.45,46.962,91.754 M42.753,82.397l1.882,5.063h-3.742L42.753,82.397z M46.099,91.739
	c0,0.287-0.113,0.482-0.34,0.58c-0.228,0.103-0.564,0.174-1.02,0.228v0.52h5.243v-0.52c-0.488-0.113-0.846-0.281-1.085-0.505
	c-0.233-0.222-0.467-0.645-0.7-1.274l-4.082-11.098h-0.813l-2.116,0.775v0.461c0.342,0.038,0.603,0.109,0.775,0.212
	c0.18,0.101,0.348,0.302,0.505,0.595l-3.053,8.325c-0.559,1.528-1.291,2.364-2.207,2.51v0.52h4.09v-0.52
	c-0.451-0.021-0.798-0.189-1.046-0.509c-0.251-0.321-0.375-0.689-0.375-1.108c0-0.438,0.077-0.861,0.228-1.268l0.585-1.599h4.164
	l0.987,2.689C46.013,91.157,46.099,91.488,46.099,91.739 M126.435,115.803v-0.021h-0.172v0.021H39.978
	c-3.265-0.011-5.905-2.657-5.916-5.922V64.052c0.011-3.263,2.651-5.905,5.916-5.917h86.371c3.263,0.012,5.905,2.653,5.916,5.917
	v45.828c-0.011,3.216-2.571,5.83-5.765,5.922H126.435z M126.263,116.61v0.011h0.172v-0.011h0.088c3.632-0.092,6.55-3.074,6.55-6.729
	V64.052c0-3.709-3.009-6.724-6.724-6.724H39.978c-3.709,0-6.724,3.015-6.724,6.724v45.828c0,3.715,3.015,6.729,6.724,6.729H126.263z
	"/>
<rect x="33.658" y="63.643" class="st1" width="99.013" height="0.821"/>
<rect x="33.658" y="71.734" class="st1" width="99.013" height="0.821"/>
<rect x="51.954" y="62.449" class="st1" width="0.916" height="11.483"/>
<rect x="59.642" y="62.449" class="st1" width="0.916" height="11.483"/>
<rect x="67.33" y="62.449" class="st1" width="0.916" height="11.483"/>
<rect x="75.018" y="62.449" class="st1" width="0.916" height="11.483"/>
<rect x="82.707" y="62.449" class="st1" width="0.916" height="11.483"/>
<rect x="90.395" y="62.449" class="st1" width="0.916" height="11.483"/>
<rect x="98.083" y="62.449" class="st1" width="0.916" height="11.483"/>
<rect x="105.771" y="62.449" class="st1" width="0.916" height="11.483"/>
<rect x="113.46" y="62.449" class="st1" width="0.916" height="11.483"/>
<rect x="121.148" y="62.449" class="st1" width="0.916" height="11.483"/>
<rect x="128.836" y="62.449" class="st1" width="0.916" height="11.483"/>
<rect x="33.658" y="100.869" class="st1" width="99.013" height="0.821"/>
<rect x="33.658" y="108.961" class="st1" width="99.013" height="0.821"/>
<rect x="51.954" y="99.677" class="st1" width="0.916" height="11.481"/>
<rect x="59.642" y="99.677" class="st1" width="0.916" height="11.481"/>
<rect x="67.33" y="99.677" class="st1" width="0.916" height="11.481"/>
<rect x="75.018" y="99.677" class="st1" width="0.916" height="11.481"/>
<rect x="82.707" y="99.677" class="st1" width="0.916" height="11.481"/>
<rect x="90.395" y="99.677" class="st1" width="0.916" height="11.481"/>
<rect x="98.083" y="99.677" class="st1" width="0.916" height="11.481"/>
<rect x="105.771" y="99.677" class="st1" width="0.916" height="11.481"/>
<rect x="113.46" y="99.677" class="st1" width="0.916" height="11.481"/>
<rect x="121.148" y="99.677" class="st1" width="0.916" height="11.481"/>
<rect x="128.836" y="99.677" class="st1" width="0.916" height="11.481"/>
<rect x="36.954" y="62.449" class="st1" width="0.916" height="11.483"/>
<rect x="44.642" y="62.449" class="st1" width="0.916" height="11.483"/>
<rect x="36.954" y="99.677" class="st1" width="0.916" height="11.481"/>
<rect x="44.642" y="99.677" class="st1" width="0.916" height="11.481"/>
</svg>
