<?xml version="1.0" encoding="UTF-8" standalone="no"?>
<!-- Created with Inkscape (http://www.inkscape.org/) -->

<svg
   xmlns:dc="http://purl.org/dc/elements/1.1/"
   xmlns:cc="http://creativecommons.org/ns#"
   xmlns:rdf="http://www.w3.org/1999/02/22-rdf-syntax-ns#"
   xmlns:svg="http://www.w3.org/2000/svg"
   xmlns="http://www.w3.org/2000/svg"
   xmlns:sodipodi="http://sodipodi.sourceforge.net/DTD/sodipodi-0.dtd"
   xmlns:inkscape="http://www.inkscape.org/namespaces/inkscape"
   version="1.1"
   id="svg2"
   width="147"
   height="83"
   viewBox="0 0 147 83"
   sodipodi:docname="Alabama_Tennessee_Northern.svg"
   inkscape:version="0.92.3 (2405546, 2018-03-11)">
  <metadata
     id="metadata8">
    <rdf:RDF>
      <cc:Work
         rdf:about="">
        <dc:format>image/svg+xml</dc:format>
        <dc:type
           rdf:resource="http://purl.org/dc/dcmitype/StillImage" />
        <dc:title></dc:title>
      </cc:Work>
    </rdf:RDF>
  </metadata>
  <defs
     id="defs6" />
  <sodipodi:namedview
     pagecolor="#ffffff"
     bordercolor="#666666"
     borderopacity="1"
     objecttolerance="10"
     gridtolerance="10"
     guidetolerance="10"
     inkscape:pageopacity="0"
     inkscape:pageshadow="2"
     inkscape:window-width="1209"
     inkscape:window-height="1028"
     id="namedview4"
     showgrid="false"
     inkscape:zoom="2.3265306"
     inkscape:cx="108.31561"
     inkscape:cy="60.730722"
     inkscape:window-x="597"
     inkscape:window-y="81"
     inkscape:window-maximized="0"
     inkscape:current-layer="svg2" />
  <path
     style="fill:#000000"
     d="m 130.03291,81.539655 c -2.44295,-2.94358 -11.75074,-7.50321 -18.6095,-9.11628 -12.22292,-2.874639 -23.408115,-0.859247 -33.906958,6.109488 l -5.425045,3.60094 -5.357268,-4.044776 C 58.828462,72.120182 54.176028,70.679116 42.5,70.582633 c -11.026511,-0.09112 -17.691079,1.8573 -26.332462,7.698408 -4.142493,2.800103 -4.389855,2.847183 -5.641405,1.073735 C 9.8062139,78.334649 8.0268798,76.221574 6.5720572,74.659054 5.1172346,73.096533 3.2034386,70.713927 2.3191773,69.364374 0.79040138,67.031167 0.83868214,66.777756 3.3021004,64.20532 4.7269694,62.717394 6.9293978,59.25 8.1963857,56.5 10.177807,52.199321 10.5,49.891562 10.5,40 10.5,29.385765 10.290927,28.114885 7.7855806,23.5 6.29265,20.75 4.2168614,17.422734 3.1727171,16.106076 L 1.2742729,13.712152 7.2514595,7.3923831 13.228646,1.0726143 16.38992,3.4838358 c 1.738701,1.3261718 6.299756,3.8919463 10.135677,5.7017212 6.499166,3.066285 7.691308,3.291316 17.49543,3.302471 9.900083,0.01126 10.917847,-0.183381 17.244565,-3.2980144 3.697945,-1.8204925 7.979819,-4.3670779 9.515275,-5.6590787 l 2.791737,-2.3490924 2.390894,2.4841317 c 3.708252,3.8528631 13.162418,8.1560098 20.49133,9.3268098 11.449892,1.829128 23.437182,-0.974019 31.948662,-7.4709759 l 4.33471,-3.3087637 6.08504,6.4166434 6.08505,6.4166432 -2.43524,3.588525 c -6.02141,8.873036 -7.80955,14.133994 -7.89336,23.223394 -0.0916,9.934624 1.35194,15.326215 6.14962,22.968488 l 3.34403,5.326738 -5.68737,6.173262 c -3.12805,3.395294 -6.00201,6.300749 -6.38658,6.456567 -0.38457,0.155818 -1.26949,-0.403825 -1.96648,-1.24365 z M 134.40995,77.75 c 1.01993,-1.2375 2.97001,-3.451883 4.3335,-4.920851 l 2.47907,-2.67085 -2.47768,-3.32915 C 134.11995,60.614912 132.5,54.433474 132.5,43 c 0,-9.810206 0.21133,-10.927015 3.21684,-17 1.76926,-3.575 3.89654,-7.414444 4.72729,-8.532098 1.40735,-1.893391 1.22191,-2.354529 -2.71684,-6.75584 -2.32501,-2.5980588 -4.54223,-4.7211149 -4.92716,-4.7179026 -0.38493,0.00321 -2.64466,1.3183649 -5.02163,2.9225613 C 119.63271,14.414252 115.54611,15.5 103,15.5 91.887142,15.5 91.28118,15.386326 85,12.123341 81.425,10.266179 77.295571,7.8965851 75.82349,6.8575769 73.152931,4.9726712 73.137369,4.9748743 68.82349,7.8485016 54.005622,17.71921 32.68823,17.449777 17.795861,7.2035576 L 13.30486,4.1136676 9.1524298,8.3446853 C 6.8685934,10.671745 5,13.101367 5,13.743845 c 0,0.642478 1.2653411,3.325445 2.8118691,5.962149 7.7434889,13.202013 7.3670289,30.743698 -0.9248368,43.094138 -1.5878678,2.365073 -2.8685765,4.840073 -2.8460193,5.5 0.022557,0.659927 1.824385,3.172302 4.0040619,5.583054 l 3.9630491,4.383186 3.868388,-2.680794 c 5.647587,-3.913781 13.623372,-6.702556 21.894282,-7.655449 9.12601,-1.051409 19.665694,1.378447 27.452684,6.32904 2.902087,1.845008 5.77186,3.65152 6.377274,4.014472 0.605414,0.362952 2.567247,-0.422034 4.359631,-1.744412 6.544127,-4.828105 15.477296,-7.580684 24.872467,-7.663958 10.84058,-0.09609 18.21609,1.969658 25.29859,7.085666 2.95271,2.132873 5.60605,3.916452 5.89632,3.963508 0.29027,0.04706 1.36225,-0.926945 2.38219,-2.164445 z M 127.5,73.900064 C 113.96065,64.243926 94.310024,63.69903 78.236709,72.534032 l -6.276257,3.449864 -4.085404,-2.959451 C 59.079497,66.652981 45.132914,63.753653 33.5,65.878283 c -3.3,0.602711 -9.518606,2.830854 -13.819123,4.95143 L 11.861753,74.685305 9.4008702,71.458921 6.9399873,68.232538 9.8697735,62.866269 C 16.518784,50.687776 17.753321,38.373954 13.566091,25.99756 12.22744,22.040849 10.42744,18.02481 9.5660906,17.073029 7.4961887,14.785813 7.5517132,14.454962 10.65901,10.56071 l 2.659011,-3.3324322 5.106522,3.2666022 c 14.439004,9.236519 32.894915,9.861746 48.104309,1.629618 l 6.855827,-3.7107361 7.403167,4.2188771 c 8.657941,4.93394 18.13549,6.973778 27.486364,5.915848 6.45033,-0.729772 15.67874,-3.78287 19.72579,-6.52602 1.375,-0.931994 2.9912,-1.975809 3.59155,-2.3195892 0.60035,-0.3437799 2.51438,0.8429362 4.2534,2.6371472 l 3.16185,3.262202 -2.53751,3.439392 C 132.68139,24.175837 129.87196,34.296035 129.8183,43 c -0.0556,9.016647 1.33221,14.695686 5.35019,21.89369 l 3.0108,5.39369 -3.33965,3.232724 L 131.5,76.752827 Z M 53,57.993613 C 53,57.515749 51.015127,50.909196 48.589172,43.312384 46.163217,35.715573 43.882892,28.4875 43.521784,27.25 42.968469,25.353814 42.168193,25 38.432612,25 35.994676,25 34,25.1473 34,25.327333 34,25.697313 24.5102,53.549357 23.463972,56.25 22.878405,57.761533 23.413803,58 27.393011,58 31.333333,58 32,57.710585 32,56 c 0,-1.77707 0.666667,-2 5.980948,-2 5.388171,0 6.037546,0.225506 6.552009,2.275287 0.4639,1.848326 1.311909,2.30455 4.519052,2.431228 C 51.223404,58.792283 53,58.471476 53,57.993613 Z M 36,45.149223 c 0,-0.467927 0.527701,-2.364539 1.172668,-4.214694 l 1.172668,-3.363917 1.251254,3.464694 C 41.338602,45.858897 41.307435,46 38.5,46 37.125,46 36,45.61715 36,45.149223 Z M 77,55.5 C 77,52.083333 76.90476,52 73,52 c -3.904762,0 -4,0.08333 -4,3.5 0,3.416667 0.09524,3.5 4,3.5 3.904762,0 4,-0.08333 4,-3.5 z m 27.48727,-5.162379 c -0.007,-4.489308 0.22182,-8.01741 0.50851,-7.840227 0.28669,0.177184 2.99242,3.954091 6.01274,8.393126 4.61524,6.783146 5.93028,8.074046 8.24148,8.090227 L 122,59 V 43 27 h -3.5 -3.5 v 7.122445 c 0,8.474716 -0.75246,8.286769 -6.67859,-1.668151 -3.60859,-6.061859 -4.03025,-6.420326 -7.57141,-6.436824 L 97,26 V 42.560365 59.120731 L 100.75,58.810365 104.5,58.5 Z M 67,48.790739 C 67,47.320993 65.007248,44 64.125331,44 c -0.62133,0 -3.134671,4.262914 -3.123051,5.297053 0.0013,0.111621 1.351255,0.250863 3,0.309428 C 65.651026,49.665045 67,49.297962 67,48.790739 Z M 64,47 c 0,-0.733333 0.3,-1.033333 0.666667,-0.666667 0.366666,0.366667 0.366666,0.966667 0,1.333334 C 64.3,48.033333 64,47.733333 64,47 Z m 7,1.345012 c 0,-1.539983 0.127078,-1.539983 1.828741,0 C 75.328808,50.607542 76,50.428697 76,47.5 76,46.125 75.55,45 75,45 c -0.55,0 -1,0.519744 -1,1.154988 0,0.690487 -0.736432,0.488525 -1.831152,-0.502182 -1.007133,-0.911443 -2.132133,-1.356188 -2.5,-0.988321 C 68.620356,45.712977 68.886433,50 70,50 c 0.55,0 1,-0.744744 1,-1.654988 z M 83.5,47.5 c 0,-1.438443 -0.772141,-2.088845 -2.75,-2.316422 C 78.36621,44.909292 78,45.217764 78,47.5 c 0,2.282236 0.36621,2.590708 2.75,2.316422 C 82.727859,49.588845 83.5,48.938443 83.5,47.5 Z m -3.5,0 c 0,-0.825 0.45,-1.5 1,-1.5 0.55,0 1,0.675 1,1.5 0,0.825 -0.45,1.5 -1,1.5 -0.55,0 -1,-0.675 -1,-1.5 z M 77,39 v -4 h 4.611291 4.611291 l -0.702076,-3.742384 c -0.386141,-2.058311 -0.91278,-4.083311 -1.170308,-4.5 C 84.092671,26.340927 78.508524,26 71.940983,26 62.475907,26 60,26.2851 60,27.375 c 0,0.75625 -0.28125,2.78125 -0.625,4.5 L 58.75,35 H 63.875 69 v 4 4 h 4 4 z"
     id="path24"
     inkscape:connector-curvature="0" />
</svg>
