<?xml version="1.0" encoding="UTF-8" standalone="no"?>
<!-- Created with Inkscape (http://www.inkscape.org/) -->

<svg
   xmlns:dc="http://purl.org/dc/elements/1.1/"
   xmlns:cc="http://creativecommons.org/ns#"
   xmlns:rdf="http://www.w3.org/1999/02/22-rdf-syntax-ns#"
   xmlns:svg="http://www.w3.org/2000/svg"
   xmlns="http://www.w3.org/2000/svg"
   xmlns:sodipodi="http://sodipodi.sourceforge.net/DTD/sodipodi-0.dtd"
   xmlns:inkscape="http://www.inkscape.org/namespaces/inkscape"
   version="1.1"
   id="svg2"
   width="216.32001"
   height="128"
   viewBox="0 0 216.32001 128"
   sodipodi:docname="Atlanta_Birmingham_Coast.svg"
   inkscape:version="0.92.3 (2405546, 2018-03-11)">
  <metadata
     id="metadata8">
    <rdf:RDF>
      <cc:Work
         rdf:about="">
        <dc:format>image/svg+xml</dc:format>
        <dc:type
           rdf:resource="http://purl.org/dc/dcmitype/StillImage" />
        <dc:title></dc:title>
      </cc:Work>
    </rdf:RDF>
  </metadata>
  <defs
     id="defs6" />
  <sodipodi:namedview
     pagecolor="#ffffff"
     bordercolor="#666666"
     borderopacity="1"
     objecttolerance="10"
     gridtolerance="10"
     guidetolerance="10"
     inkscape:pageopacity="0"
     inkscape:pageshadow="2"
     inkscape:window-width="1123"
     inkscape:window-height="772"
     id="namedview4"
     showgrid="false"
     inkscape:zoom="4.2833832"
     inkscape:cx="104.56133"
     inkscape:cy="64"
     inkscape:window-x="748"
     inkscape:window-y="340"
     inkscape:window-maximized="0"
     inkscape:current-layer="svg2" />
  <path
     style="fill:#000000;stroke-width:0.63999999"
     d="m 90.560004,124.76514 c -20.768001,-0.23346 -40.136002,-0.46512 -43.040002,-0.5148 l -5.28,-0.0903 V 109.1538 94.147603 l 20.320001,0.373811 c 11.176,0.205594 20.176001,0.217402 20.000001,0.02624 C 82.241412,94.2016 65.628182,85.174547 53.440002,78.724845 c -3.52,-1.862701 -11.44,-6.115802 -17.6,-9.451328 C 29.680001,65.937984 22.480001,62.048113 19.840001,60.629356 11.504571,56.149829 10.249715,55.376137 10.255582,54.72 c 0.0031,-0.352 1.707289,-1.556521 3.786982,-2.676712 5.731483,-3.087169 31.464124,-16.508716 45.157439,-23.553071 6.688,-3.440558 19.792001,-10.232003 29.120001,-15.0921 C 110.69746,1.7389652 107.97496,2.7039431 112.07752,4.9773496 c 9.41739,5.2186014 25.3757,13.8992744 45.04249,24.5012994 11.968,6.451741 23.776,12.826842 26.24,14.166892 2.464,1.340049 8.72239,4.668005 13.90752,7.395456 5.18514,2.727452 9.43314,5.106799 9.44,5.287439 0.0113,0.297104 -9.20184,5.140854 -38.35082,20.162726 -5.47619,2.822144 -15.69042,8.150144 -22.6983,11.84 l -12.7416,6.708838 8.9016,0.401914 c 4.89588,0.221049 13.7256,0.437049 19.6216,0.48 L 172.16001,96 v 14.72 14.72 l -21.92,-0.12519 c -12.056,-0.0689 -38.912,-0.31621 -59.680006,-0.54967 z M 168.83201,122.752 c 0.54137,-0.54138 0.768,-4.224 0.768,-12.48 V 98.56 l -19.36,-0.07949 c -10.648,-0.04371 -21.376,-0.263277 -23.84,-0.487904 l -4.48,-0.40841 4.16,-2.150106 c 2.288,-1.18256 6.032,-3.224524 8.32,-4.537708 8.48207,-4.868231 13.66518,-7.591316 37.12657,-19.505421 32.40028,-16.453422 29.82286,-15.002119 28.38508,-15.98322 -0.65541,-0.447229 -3.63965,-2.062662 -6.63165,-3.58985 C 183.76537,46.961389 160.80678,34.639718 151.7689,29.539244 138.44516,22.020075 138.53366,22.068636 128.64001,16.847137 123.53601,14.153439 117.138,10.700865 114.42221,9.1747514 111.70642,7.6486381 109.16306,6.4 108.77031,6.4 108.37756,6.4 102.39157,9.324663 95.468113,12.899251 70.938928,25.56369 43.01829,39.771528 29.317985,46.56074 21.682875,50.344333 15.512407,53.728 15.605833,54.08 c 0.177406,0.668406 4.440409,3.131452 15.754168,9.102322 3.696001,1.950574 7.872001,4.19108 9.280001,4.978894 1.408,0.787821 4.432,2.45399 6.72,3.702605 2.288,1.248621 9.632001,5.357421 16.320001,9.130669 6.688,3.773248 15.472001,8.721337 19.520001,10.995756 4.048,2.27442 7.792,4.573511 8.32,5.109095 0.859226,0.871565 -1.498502,0.930694 -22.460897,0.563264 l -23.420898,-0.410522 -0.419104,7.794437 c -0.230506,4.28695 -0.419103,9.73751 -0.419103,12.11237 v 4.31794 l 6.56,0.37052 c 3.608001,0.20379 25.424002,0.5438 48.480003,0.75559 23.056005,0.21179 42.040005,0.50477 42.186675,0.65106 0.14666,0.1463 6.06506,0.266 13.152,0.266 9.16859,0 13.10686,-0.22153 13.65333,-0.768 z m -32.192,-1.24659 C 97.079294,120.7732 69.084656,120.3594 57.760003,120.33945 L 46.720002,120.32 46.719698,109.6 46.719394,98.88 71.750563,99.092595 c 19.979598,0.16969 24.97668,0.04915 24.761166,-0.597421 C 96.228024,97.644051 74.898032,85.219424 55.360003,74.524467 49.024002,71.056192 40.096002,66.105414 35.520002,63.52274 30.944001,60.940065 25.273686,57.902899 22.9193,56.773483 c -2.354386,-1.129416 -4.226386,-2.265654 -4.16,-2.524974 0.06639,-0.25932 8.328701,-4.611133 18.360702,-9.670695 10.032,-5.059562 25.584001,-12.944169 34.560001,-17.521348 8.976001,-4.577179 21.006241,-10.687972 26.73387,-13.579541 l 10.413867,-5.2573954 4.94613,2.7304044 c 2.72038,1.501723 6.09814,3.352453 7.50614,4.112733 13.8411,7.473804 28.51619,15.464723 36.16,19.689937 18.30158,10.116438 20.28314,11.177598 29.44,15.765642 5.104,2.557359 9.53172,4.887069 9.83938,5.177133 0.30767,0.290064 -4.44433,3.027511 -10.56,6.083215 -29.27195,14.625796 -69.15635,35.984222 -69.28562,37.103025 -0.0477,0.412563 8.92514,0.697575 25.36624,0.805722 l 25.44,0.167347 V 110.72734 121.6 l -2.08,0.0929 c -4.99602,0.22306 -7.73911,0.20531 -28.96,-0.18746 z m 12.23348,-5.28049 c -0.19263,-0.76751 -1.52582,-3.90408 -2.96265,-6.97019 -2.26299,-4.8291 -2.827,-5.57473 -4.21684,-5.57473 -1.34028,0 -1.86895,0.60588 -3.21108,3.68 -0.88365,2.024 -2.1638,4.85093 -2.84478,6.28206 -0.68098,1.43114 -1.23813,2.96426 -1.23813,3.40693 0,1.30807 2.18578,0.5068 2.87176,-1.05273 0.54879,-1.24764 1.11316,-1.43626 4.29748,-1.43626 3.15013,0 3.77238,0.20254 4.42405,1.44 1.43178,2.71882 3.54758,2.88404 2.88019,0.22492 z m -9.35348,-4.44942 c 0,-0.96495 1.52033,-4.2555 1.96617,-4.2555 0.75892,0 2.56576,3.57474 2.06163,4.07886 -0.41543,0.41542 -4.0278,0.57385 -4.0278,0.17664 z m 22.45786,3.18088 c 1.31512,-2.1567 1.60778,-6.15995 0.58944,-8.06274 -0.86595,-1.61803 -5.66776,-3.34825 -8.59999,-3.0988 L 151.55578,104 l -0.0979,6.72 -0.0979,6.72 2.88,0.33619 c 3.87747,0.45263 6.27521,-0.42114 7.73786,-2.81981 z m -7.31119,0.45695 c -0.23467,-0.23466 -0.42667,-2.43234 -0.42667,-4.88374 v -4.45707 l 2.34476,0.3805 c 3.08936,0.50134 3.70615,1.22573 3.70615,4.35276 0,1.96454 -0.37043,2.91082 -1.49636,3.82255 -1.50996,1.22268 -3.34184,1.57106 -4.12788,0.785 z m -71.169723,1.74396 c 0.483476,-0.78228 -6.077606,-13.98827 -7.155187,-14.40178 -1.917645,-0.73587 -2.592167,0.37842 -8.395098,13.86855 -0.117338,0.27277 0.393792,0.49594 1.13584,0.49594 0.850234,0 1.574138,-0.5917 1.957491,-1.6 0.555424,-1.46087 0.941652,-1.6 4.441645,-1.6 3.323936,0 3.934087,0.19135 4.591649,1.44 1.156793,2.19666 2.681996,2.99733 3.42366,1.79729 z m -9.896954,-6.36381 c 0,-0.31159 0.401325,-1.52099 0.891834,-2.68757 l 0.891827,-2.12104 1.34578,2.20757 c 1.790931,2.93778 1.726406,3.16756 -0.88944,3.16756 -1.232001,0 -2.240001,-0.25494 -2.240001,-0.56652 z M 87.853713,109.92 c 0.307334,-6.43848 0.250688,-6.88 -0.88265,-6.88 -0.66608,0 -1.213401,0.216 -1.216262,0.48 -0.0026,0.264 -0.114125,3.216 -0.247239,6.56 -0.226816,5.69776 0.380404,8.51814 1.555968,7.22712 0.253984,-0.27892 0.609562,-3.60312 0.790183,-7.38712 z m 13.199557,7.25479 c 0.49129,-0.31108 0.71632,-1.02667 0.50008,-1.5902 -0.28842,-0.7516 -1.25113,-1.02459 -3.613262,-1.02459 h -3.220084 v -5.69153 c 0,-4.29237 -0.220614,-5.77618 -0.897427,-6.0359 -0.493587,-0.18941 -1.069587,-0.17222 -1.28,0.0382 -0.210419,0.2104 -0.382573,3.48818 -0.382573,7.28395 v 6.90139 l 3.68,0.23093 c 2.024001,0.127 3.824001,0.28097 4.000001,0.34213 0.175995,0.0612 0.721965,-0.1433 1.213265,-0.45439 z m 14.08268,-0.002 c 0.73927,-0.46806 0.65533,-0.87318 -0.48,-2.31651 -1.62337,-2.06353 -1.72275,-3.05181 -0.41594,-4.13636 1.40452,-1.16565 1.18308,-4.2223 -0.41367,-5.7099 -1.41343,-1.31681 -5.56408,-2.25239 -8.28614,-1.86774 -1.5046,0.21261 -1.54439,0.37664 -1.72185,7.09764 -0.17296,6.55103 -0.11941,6.88 1.12,6.88 1.06094,0 1.30165,-0.41425 1.30165,-2.24 0,-2.05986 0.15368,-2.24 1.91092,-2.24 1.52039,0 2.25716,0.52319 3.60505,2.56 1.81163,2.73756 1.99946,2.84721 3.37998,1.97313 z M 106.24,107.8768 c 0,-2.15034 0.11762,-2.2768 2.11768,-2.2768 5.17892,0 5.66916,3.97637 0.53715,4.3568 -2.65247,0.19662 -2.65483,0.19478 -2.65483,-2.08 z m 22.65692,8.9908 c 2.83788,-1.18574 4.22309,-3.30716 4.22309,-6.4676 0,-6.41581 -6.98029,-9.24125 -11.54744,-4.67411 -1.51617,1.51618 -1.89256,2.44579 -1.89256,4.67424 0,3.32208 2.28919,6.49365 4.98298,6.90368 0.95536,0.14543 1.81826,0.30756 1.91757,0.3603 0.0993,0.0527 1.14167,-0.30568 2.31636,-0.79651 z m -4.07348,-2.37806 c -1.98844,-0.79374 -1.87404,-0.65602 -2.57495,-3.09995 -0.50841,-1.77275 -0.37417,-2.28208 0.95066,-3.60691 3.01009,-3.0101 7.36086,-1.36618 7.36086,2.78126 0,1.38015 -0.51275,2.38649 -1.68631,3.30961 -1.89113,1.48756 -1.87354,1.48488 -4.05026,0.61599 z m -69.143437,-0.28731 c 0,-2.08236 0.1197,-2.20223 2.199049,-2.20223 1.899092,0 2.395308,0.34919 3.637851,2.56 0.853481,1.51857 1.911575,2.56 2.60095,2.56 1.5136,0 1.46558,-0.69255 -0.249565,-3.59951 -1.03822,-1.75966 -1.196601,-2.46439 -0.59864,-2.6637 1.427008,-0.47568 2.144262,-3.38842 1.322758,-5.3717 -0.893481,-2.15705 -4.022744,-3.28201 -8.272403,-2.9739 l -2.880001,0.20881 -0.183577,6.66765 c -0.131638,4.78116 0.04079,6.80633 0.609442,7.15778 1.248069,0.77134 1.814136,0.0402 1.814136,-2.3432 z m 0.245786,-5.68485 c -0.872577,-2.2739 0.0092,-3.23738 2.962979,-3.23738 2.621367,0 2.888156,0.14588 3.065673,1.67635 0.150158,1.29458 -0.141349,1.76629 -1.28,2.07126 -2.477656,0.66361 -4.376499,0.45959 -4.748652,-0.51023 z M 116.7391,85.812691 c 4.75668,-1.676486 7.41599,-3.700499 11.10728,-8.45383 1.96538,-2.530855 3.37213,-3.758861 4.30598,-3.758861 1.38592,0 8.40001,-2.634816 10.49197,-3.941267 0.85182,-0.531975 1.74395,-0.366669 3.86732,0.716601 3.7706,1.923616 10.13597,2.015341 14.20669,0.204724 3.44339,-1.531578 7.95031,-5.396781 8.42951,-7.22927 0.46189,-1.766231 -0.18944,-1.564675 -2.42784,0.751311 -2.75795,2.853536 -6.41737,4.347392 -10.68989,4.363847 -3.49134,0.01345 -6.91011,-0.946285 -6.91011,-1.939834 0,-0.257638 1.42551,-1.555539 3.16781,-2.884232 4.05047,-3.088933 6.32656,-7.142053 5.43695,-9.681804 -1.04944,-2.996052 -5.40476,-2.578399 -5.40476,0.518289 0,1.482954 0.57518,1.534918 1.59235,0.143859 0.9693,-1.325589 2.25325,-0.602831 2.23043,1.255547 -0.0302,2.460809 -7.36667,9.416315 -8.91968,8.456507 -2.84189,-1.756386 -3.59378,-10.163197 -1.30219,-14.559712 1.65632,-3.177713 3.43767,-4.730882 6.53802,-5.700531 1.9783,-0.618721 2.86936,-0.556727 5.29101,0.36811 3.27704,1.251512 5.26798,3.549531 7.37961,8.517855 0.78544,1.848 1.66856,3.36 1.96249,3.36 0.45696,0 0.0757,-12.751069 -0.3984,-13.324344 -0.093,-0.112389 -0.74514,0.155463 -1.44932,0.595227 -1.08114,0.675189 -1.87487,0.532749 -5.10234,-0.915656 -5.15579,-2.313778 -8.2652,-2.236288 -13.07211,0.325771 -4.44905,2.371319 -6.36682,4.640265 -7.89213,9.337339 -1.34523,4.142523 -1.02486,8.59461 0.88168,12.252383 0.75932,1.456787 1.38058,2.945888 1.38058,3.309126 0,0.82288 -8.30562,4.647879 -8.86901,4.084448 -0.22605,-0.22606 -0.31252,-3.068883 -0.19215,-6.317388 0.24055,-6.492255 -0.40445,-8.853661 -3.54608,-12.982533 C 126.7142,49.900054 120.00296,44.8 118.4576,44.8 c -0.59487,0 -1.41238,-0.330783 -1.81667,-0.735075 -0.55343,-0.553433 -0.0816,-1.420778 1.9096,-3.510004 3.54434,-3.718899 4.49033,-6.127654 4.18002,-10.643521 -0.29159,-4.243447 -1.51402,-6.245141 -5.5643,-9.1114 -2.45831,-1.739673 -3.26412,-1.9397 -8.57968,-2.129747 L 102.72,18.460506 93.440004,23.050044 c -5.104,2.524247 -9.419699,4.72633 -9.590439,4.893519 -0.170739,0.167189 0.299552,0.788283 1.045095,1.380209 2.652998,2.106357 2.785434,3.168234 2.78295,22.314154 -0.0019,17.162215 -0.08909,18.584269 -1.251699,20.491002 -0.687117,1.126912 -2.126042,2.50231 -3.197606,3.056435 -1.071565,0.554131 -1.943725,1.216109 -1.938125,1.471072 0.0099,0.450605 7.652551,5.520986 10.869824,7.211386 0.88,0.462368 3.616,1.515225 6.080001,2.339686 5.469725,1.830189 12.619045,1.677607 18.499095,-0.394816 z M 101.47701,84.165043 C 97.99459,82.924486 95.884164,81.257389 94.526398,78.674509 93.524728,76.769018 93.400478,75.131386 93.582993,66.24 c 0.137555,-6.701097 0.489959,-10.739967 1.019699,-11.686682 0.930682,-1.663255 10.810198,-6.806415 14.294788,-7.441706 8.17605,-1.490607 14.69608,5.493525 14.86847,15.926825 0.11062,6.694209 -0.40899,8.001563 -3.18021,8.001563 -3.09121,0 -4.90716,-1.043187 -4.43046,-2.54512 0.59027,-1.859782 -0.88317,-2.207853 -1.58063,-0.373389 -0.34263,0.901178 -1.01272,1.638509 -1.48908,1.638509 -1.24353,0 -6.84557,-3.825274 -6.84557,-4.6744 0,-0.392576 1.296,-1.903635 2.88001,-3.357905 2.49357,-2.289352 2.88,-2.987962 2.88,-5.206719 0,-3.332694 -1.72549,-4.971885 -5.23363,-4.971885 -2.1491,0 -2.92899,0.390212 -4.74888,2.376056 -2.45491,2.678765 -2.798443,5.097633 -1.17097,8.244829 0.85516,1.653685 0.87507,2.106094 0.1324,3.008219 -5.55778,6.751027 -1.51298,14.148711 6.33936,11.594304 1.34294,-0.43687 3.64474,-1.651155 5.1151,-2.698419 2.5921,-1.846214 2.77211,-1.880429 5.92,-1.125261 1.78564,0.428365 3.24554,1.110125 3.24422,1.515015 -0.004,1.355468 -2.43402,4.742982 -4.69669,6.548409 -4.75563,3.794611 -10.38949,4.946227 -15.42391,3.1528 z m 3.39697,-10.257837 c -2.52391,-1.363084 -2.90898,-4.84784 -0.80411,-7.277043 0.38043,-0.439059 7.87356,4.701837 7.90241,5.42169 0.0288,0.718957 -1.91947,1.867859 -4.13228,2.436806 -0.704,0.181011 -2.0387,-0.08065 -2.96602,-0.581453 z M 103.44339,60.64 c -0.74102,-2.765096 -0.39241,-4.747188 1.07786,-6.128439 1.85463,-1.742327 3.42892,-1.780928 3.96332,-0.09718 0.6557,2.065947 -0.28639,4.98269 -2.06001,6.37782 -2.08396,1.639238 -2.50687,1.617647 -2.98117,-0.152201 z M 94.080004,39.089104 c 0,-10.652931 0.02662,-10.862509 1.618893,-12.75484 3.415335,-4.058892 12.077143,-5.037965 16.678293,-1.885204 2.56161,1.75524 3.46282,3.578146 3.46282,7.004331 0,3.526079 -1.46814,6.35143 -5.0164,9.653794 C 107.86413,43.861574 97.053688,49.92 95.09834,49.92 c -0.891001,0 -1.018336,-1.354332 -1.018336,-10.830896 z M 76.68394,78.243923 c -1.040877,-1.216646 -2.162298,-5.36656 -6.568142,-24.30588 -2.432524,-10.45667 -2.756736,-12.616663 -2.161446,-14.4 0.38519,-1.153924 0.949037,-2.371643 1.252998,-2.706043 1.573152,-1.730699 -0.02566,-1.336328 -5.394528,1.330665 L 57.86564,41.116922 57.097978,44.3486 c -0.774304,3.259634 -6.998575,14.974629 -8.711411,16.396156 -0.508358,0.4219 -1.5233,0.812212 -2.255426,0.867362 -0.732126,0.05515 -1.331139,0.259711 -1.331139,0.454582 0,0.575424 6.924796,3.755169 7.319142,3.360826 0.198472,-0.198476 0.360858,-1.195795 0.360858,-2.216267 0,-2.40068 1.050857,-4.331259 2.357601,-4.331259 1.634565,0 11.640614,5.691328 12.355936,7.027917 1.125939,2.10384 0.767149,4.974969 -0.754925,6.041075 -0.770758,0.539859 -1.265613,1.117338 -1.099673,1.283283 0.801484,0.801479 11.782963,6.659155 12.026842,6.415283 C 77.51962,79.493715 77.212791,78.86208 76.68394,78.243923 Z M 60.951951,59.474331 c -2.550271,-1.408266 -4.631948,-2.988733 -4.631948,-3.516703 0,-1.460641 5.350349,-10.530344 6.08,-10.30658 1.002648,0.307484 4.562541,15.002412 3.815386,15.74957 -0.415316,0.415314 -2.217106,-0.244095 -5.263438,-1.926287 z M 48.000002,44.8 c 0,-0.352 -0.288,-0.64 -0.64,-0.64 -0.352,0 -0.64,0.288 -0.64,0.64 0,0.352 0.288,0.64 0.64,0.64 0.352,0 0.64,-0.288 0.64,-0.64 z"
     id="path817"
     inkscape:connector-curvature="0" />
</svg>
