<?xml version="1.0" encoding="utf-8"?>
<!-- Generator: Adobe Illustrator 21.1.0, SVG Export Plug-In . SVG Version: 6.00 Build 0)  -->
<svg version="1.0" id="Layer_1" xmlns="http://www.w3.org/2000/svg" xmlns:xlink="http://www.w3.org/1999/xlink" x="0px" y="0px"
	 viewBox="0 0 170.08 170.08" style="enable-background:new 0 0 170.08 170.08;" xml:space="preserve">
<style type="text/css">
	.st0{fill:#CA4D51;}
	.st1{fill:#348058;}
	.st2{fill:#FFFFFF;}
</style>
<rect x="7.5" y="38.167" class="st0" width="155.333" height="93.333"/>
<g>
	<rect x="143.71" y="38.167" class="st1" width="6.706" height="93.333"/>
	<g>
		<defs>
			<path id="SVGID_1_" d="M52.827,47.577c0.936,0.35,1.66,0.973,2.177,1.884c0.513,0.905,0.768,2.041,0.768,3.408
				c0,1.31-0.262,2.433-0.786,3.368c-0.526,0.942-1.242,1.581-2.16,1.928V47.577z M46.687,42.268V79.07h5.684V62.954
				c1.099,0.779,1.984,2.133,2.653,4.061c0.898,2.558,1.466,6.578,1.702,12.055h5.73c-0.363-4.385-0.792-7.817-1.305-10.32
				c-0.504-2.496-1.191-4.543-2.047-6.14c-0.412-0.751-1.059-1.547-1.94-2.391c1.204-0.918,2.096-1.884,2.664-2.888
				c0.806-1.418,1.211-3.033,1.211-4.856c0-3.221-0.997-5.721-2.983-7.513c-1.983-1.79-4.755-2.694-8.317-2.694H46.687z
				 M64.15,79.074h5.688V42.268H64.15V79.074z M78.197,63.22c1.037,0.482,1.849,1.211,2.441,2.19
				c0.592,0.969,0.892,2.067,0.892,3.282c0,1.398-0.317,2.527-0.956,3.39c-0.636,0.867-1.422,1.422-2.377,1.677V63.22z
				 M78.197,47.577c0.656,0.119,1.248,0.544,1.761,1.266c0.704,1.017,1.054,2.322,1.054,3.914c0,2.664-0.936,4.367-2.816,5.116
				V47.577z M72.52,42.268V79.07h4.312c2.259,0,4.187-0.473,5.796-1.415c1.609-0.936,2.758-2.027,3.445-3.258
				c0.911-1.66,1.367-3.544,1.367-5.666c0-2.14-0.475-3.967-1.417-5.484c-0.656-1.068-1.673-2.034-3.045-2.89
				c2.49-1.928,3.738-4.572,3.738-7.942c0-3.196-0.955-5.679-2.864-7.463c-1.904-1.785-4.486-2.683-7.738-2.683H72.52z
				 M104.767,42.268V79.07h8.993v-4.905h-3.307V42.268H104.767z M121.436,48.438c0.643,0.418,1.103,0.861,1.398,1.33
				c0.568,0.874,0.973,2.034,1.211,3.476c0.348,1.99,0.517,4.425,0.517,7.313c0,3.527-0.156,6.058-0.462,7.619
				c-0.313,1.561-0.749,2.771-1.316,3.65c-0.275,0.418-0.724,0.83-1.347,1.237V48.438z M115.763,42.268V79.07h2.633
				c2.067,0,3.819-0.368,5.261-1.085c1.068-0.531,2.065-1.367,2.996-2.527c1.253-1.565,2.208-3.626,2.864-6.177
				c0.654-2.547,0.979-5.455,0.979-8.724c0-3.188-0.319-5.941-0.955-8.248c-0.636-2.309-1.51-4.231-2.633-5.754
				c-1.118-1.528-2.441-2.626-3.969-3.289c-1.53-0.66-3.364-0.997-5.497-0.997H115.763z M132.696,79.074h5.688V42.268h-5.688V79.074
				z M15.542,47.04c-1.928,3.37-2.89,8.006-2.89,13.921c0,3.346,0.332,6.265,0.993,8.761c0.667,2.496,1.541,4.475,2.633,5.928
				c1.092,1.449,2.367,2.465,3.833,3.051c1.048,0.438,2.496,0.656,4.33,0.656c1.411,0,2.527-0.095,3.364-0.293V60.713h-7.826v4.786
				h2.248v8.717c-0.806-0.605-1.429-1.299-1.86-2.078c-0.568-1.054-1.01-2.626-1.341-4.717c-0.326-2.089-0.489-4.5-0.489-7.225
				c0-4.394,0.469-7.7,1.418-9.928c0.949-2.228,2.259-3.346,3.949-3.346c1.305,0,2.602,0.724,3.901,2.173v-5.761
				c-1.193-0.572-2.102-0.936-2.727-1.103c-0.63-0.163-1.297-0.251-2.003-0.251C19.978,41.979,17.471,43.665,15.542,47.04z
				 M36.433,57.961l0.387-9.891h0.473l0.594,12.105l0.429,7.476h-2.477L36.433,57.961z M34.106,41.973L29.332,79.07h5.635
				l0.562-6.619h3.17l0.282,6.619h5.728l-4.436-37.097H34.106z M94.516,57.961l0.394-9.891h0.466l0.594,12.105l0.429,7.476h-2.477
				L94.516,57.961z M92.189,41.973L87.414,79.07h5.635l0.561-6.619h3.177l0.275,6.619h5.728l-4.438-37.097H92.189z"/>
		</defs>
		<use xlink:href="#SVGID_1_"  style="overflow:visible;fill:#412714;"/>
		<clipPath id="SVGID_2_">
			<use xlink:href="#SVGID_1_"  style="overflow:visible;"/>
		</clipPath>
	</g>
</g>
<rect x="150.42" y="38.156" class="st2" width="6.706" height="93.351"/>
</svg>
