<?xml version="1.0" encoding="utf-8"?>
<!-- Generator: Adobe Illustrator 21.1.0, SVG Export Plug-In . SVG Version: 6.00 Build 0)  -->
<svg version="1.0" id="Layer_1" xmlns="http://www.w3.org/2000/svg" xmlns:xlink="http://www.w3.org/1999/xlink" x="0px" y="0px"
	 viewBox="0 0 170.08 170.08" style="enable-background:new 0 0 170.08 170.08;" xml:space="preserve">
<style type="text/css">
	.st0{fill:#3F89AA;}
	.st1{fill:#73C1D4;}
	.st2{fill:#412714;}
</style>
<path class="st0" d="M84.381,141.48h2.236l-1.12-3.386L84.381,141.48z M140.817,141.48h2.228l-1.113-3.386L140.817,141.48z
	 M42.656,136.166v2.639h0.174c1.086,0,1.629-0.425,1.629-1.28c0-0.356-0.111-0.668-0.327-0.941c-0.223-0.27-0.592-0.418-1.101-0.418
	H42.656z M115.089,136.166v2.639h0.182c1.086,0,1.622-0.425,1.622-1.28c0-0.356-0.111-0.668-0.327-0.941
	c-0.223-0.27-0.585-0.418-1.101-0.418H115.089z M36.632,133.365h8.907c1.541,0,2.752,0.398,3.636,1.172
	c0.877,0.779,1.324,1.747,1.324,2.917c0,1.283-0.523,2.292-1.56,3.017c1.477,1.678,2.354,3.858,2.639,6.533h-6.26
	c-0.113-1.727-0.371-2.995-0.774-3.818c-0.403-0.821-1.025-1.231-1.88-1.231v5.049h-6.032V133.365z M53.049,133.365h6.042v13.641
	h-6.042V133.365z M69.276,133.365h6.037v13.75h-4.575l-2.931-4.305v4.187h-6.032v-13.632h4.317l3.184,4.619V133.365z
	 M81.192,133.365h8.602l4.727,13.639h-6.025l-0.786-2.312h-4.43l-0.779,2.312h-6.039L81.192,133.365z M109.065,133.365h8.909
	c1.546,0,2.757,0.398,3.634,1.172c0.884,0.779,1.324,1.747,1.324,2.917c0,1.283-0.516,2.292-1.553,3.017
	c1.469,1.678,2.346,3.858,2.631,6.533h-6.26c-0.111-1.727-0.369-2.995-0.774-3.818c-0.396-0.821-1.022-1.231-1.879-1.231v5.049
	h-6.032V133.365z M125.485,133.365h6.042v13.641h-6.042V133.365z M96.458,145.213c-1.371-1.329-2.061-2.98-2.061-4.931
	c0-2.061,0.717-3.767,2.145-5.111c1.43-1.339,3.246-2.015,5.447-2.015c0.956,0,1.936,0.133,2.953,0.391
	c1.017,0.258,1.86,0.607,2.536,1.052l-2.521,4.813c-0.74-0.258-1.56-0.391-2.452-0.391c-1.275,0-1.917,0.349-1.917,1.044
	c0,0.334,0.182,0.6,0.538,0.789c0.354,0.187,0.862,0.278,1.523,0.278c0.892,0,1.659-0.16,2.307-0.482l2.521,5.162
	c-0.71,0.425-1.575,0.767-2.585,1.025c-1.01,0.258-1.978,0.388-2.904,0.388C99.677,147.225,97.831,146.549,96.458,145.213z
	 M76.197,96.822h18.666v9.297h-4.686v11.703h-9.292v-11.703h-4.688V96.822z M77.897,68.657H95.17v5.273h-7.988v3.808h5.912v5.265
	h-5.912v6.651h-9.285V68.657z M80.893,40.489h9.297v21h-9.297V40.489z M26.199,133.372h8.774v6.039h-3.037v7.585h-6.037v-7.585
	h-3.037v-0.265l-4.889,8.477h135.102l-4.776-8.288l2.661,7.661h-6.032l-0.781-2.305h-4.43l-0.786,2.305h-6.032l4.73-13.624h7.229
	L85.531,30.614L26.199,133.372z M15.631,148.068l7.231-12.521v-2.174h1.26l61.408-106.36l70.664,122.414H14.86L15.631,148.068z
	 M7.575,153.62H163.48L85.524,18.607L7.575,153.62z"/>
<polygon class="st1" points="24.123,133.372 26.199,133.372 85.531,30.614 144.856,133.372 146.23,133.372 148.298,139.335 
	153.075,147.616 17.973,147.616 22.862,139.146 22.862,135.547 15.631,148.068 14.86,149.426 156.195,149.426 85.531,27.012 "/>
<path class="st2" d="M76.197,96.822v9.297h4.688v11.703h9.292v-11.703h4.686v-9.297H76.197z M77.897,68.657v20.998h9.285v-6.651
	h5.912v-5.265h-5.912v-3.808h7.988v-5.273H77.897z M80.893,61.489h9.297v-21h-9.297V61.489z"/>
<path class="st2" d="M34.98,133.365H22.855v6.047h3.044v7.592h6.037v-7.592h3.044V133.365z M42.656,136.166h0.376
	c0.509,0,0.877,0.148,1.101,0.418c0.216,0.273,0.327,0.585,0.327,0.941c0,0.855-0.543,1.28-1.629,1.28h-0.174V136.166z
	 M36.632,133.365v13.639h6.032v-5.049c0.855,0,1.477,0.41,1.88,1.231c0.403,0.823,0.661,2.091,0.774,3.818h6.26
	c-0.285-2.676-1.162-4.855-2.639-6.533c1.037-0.725,1.56-1.735,1.56-3.017c0-1.17-0.447-2.138-1.324-2.917
	c-0.884-0.774-2.096-1.172-3.636-1.172H36.632z M53.049,147.006h6.042v-13.641h-6.042V147.006z M69.276,133.365v4.619l-3.184-4.619
	h-4.317v13.632h6.032v-4.187l2.931,4.305h4.575v-13.75H69.276z M85.497,138.095l1.12,3.386h-2.236L85.497,138.095z M81.192,133.365
	l-4.73,13.639h6.039l0.779-2.312h4.43l0.786,2.312h6.025l-4.727-13.639H81.192z M115.089,136.166h0.376
	c0.516,0,0.877,0.148,1.101,0.418c0.216,0.273,0.327,0.585,0.327,0.941c0,0.855-0.536,1.28-1.622,1.28h-0.182V136.166z
	 M109.065,133.365v13.639h6.032v-5.049c0.857,0,1.484,0.41,1.879,1.231c0.406,0.823,0.663,2.091,0.774,3.818h6.26
	c-0.285-2.676-1.162-4.855-2.631-6.533c1.037-0.725,1.553-1.735,1.553-3.017c0-1.17-0.44-2.138-1.324-2.917
	c-0.877-0.774-2.088-1.172-3.634-1.172H109.065z M125.485,147.006h6.042v-13.641h-6.042V147.006z M141.932,138.095l1.113,3.386
	h-2.228L141.932,138.095z M146.23,133.365h-8.602l-4.73,13.639h6.032l0.786-2.312h4.43l0.781,2.312h6.032l-2.661-7.668
	L146.23,133.365z M96.541,135.171c-1.428,1.344-2.145,3.049-2.145,5.111c0,1.951,0.69,3.602,2.061,4.931
	c1.373,1.337,3.219,2.012,5.531,2.012c0.926,0,1.894-0.13,2.904-0.388c1.01-0.258,1.875-0.6,2.585-1.025l-2.521-5.162
	c-0.648,0.322-1.415,0.482-2.307,0.482c-0.661,0-1.17-0.091-1.523-0.278c-0.356-0.189-0.538-0.455-0.538-0.789
	c0-0.695,0.641-1.044,1.917-1.044c0.892,0,1.712,0.133,2.452,0.391l2.521-4.813c-0.676-0.445-1.519-0.794-2.536-1.052
	c-1.017-0.258-1.998-0.391-2.953-0.391C99.787,133.156,97.971,133.832,96.541,135.171z"/>
</svg>
