<?xml version="1.0" encoding="utf-8"?>
<!-- Generator: Adobe Illustrator 21.1.0, SVG Export Plug-In . SVG Version: 6.00 Build 0)  -->
<svg version="1.0" id="Layer_1" xmlns="http://www.w3.org/2000/svg" xmlns:xlink="http://www.w3.org/1999/xlink" x="0px" y="0px"
	 viewBox="0 0 170.08 170.08" style="enable-background:new 0 0 170.08 170.08;" xml:space="preserve">
<style type="text/css">
	.st0{fill:#412714;stroke:#412714;stroke-width:1.9128;stroke-miterlimit:10;}
	.st1{fill:#F9B231;}
</style>
<ellipse class="st0" cx="85.372" cy="85.792" rx="77.906" ry="45.669"/>
<path class="st1" d="M87.975,122.397c-0.308,0.021-0.52,0.071-0.624,0.157c-0.107,0.088-0.157,0.277-0.151,0.559l0.08,2.95
	c1.01-0.059,1.731-0.26,2.165-0.591c0.4-0.308,0.595-0.775,0.574-1.404c-0.011-0.612-0.184-1.052-0.509-1.306
	c-0.304-0.239-0.765-0.364-1.389-0.364H87.975z M105.456,122.093l-0.662,3.059l1.486-0.216l1.182-0.239l-1.788-2.642l-0.13-0.08
	L105.456,122.093z M96.217,121.921c-0.31,0.027-0.514,0.092-0.618,0.189c-0.097,0.097-0.13,0.287-0.103,0.568l0.293,2.934
	c1.002-0.136,1.708-0.384,2.119-0.748c0.375-0.337,0.532-0.813,0.472-1.437c-0.065-0.614-0.266-1.037-0.606-1.27
	c-0.262-0.178-0.63-0.266-1.102-0.266L96.217,121.921z M55.432,118.916l-1.394,5.639c-0.098,0.402-0.059,0.689,0.12,0.878
	c0.178,0.186,0.58,0.36,1.215,0.511c0.476,0.119,0.92,0.178,1.327,0.178c1.605,0,2.636-0.926,3.097-2.776
	c0.58-2.353-0.337-3.828-2.755-4.424l-0.851-0.216l-0.304-0.023C55.621,118.683,55.47,118.759,55.432,118.916z M132.596,112.28
	c-0.792,0.352-1.312,0.931-1.563,1.744c-0.249,0.815-0.163,1.687,0.251,2.63c0.503,1.123,1.192,1.876,2.07,2.261
	c0.392,0.168,0.792,0.251,1.211,0.251c0.497,0,1.02-0.12,1.555-0.354c0.798-0.358,1.318-0.937,1.557-1.75
	c0.243-0.813,0.151-1.697-0.272-2.657c-0.494-1.111-1.188-1.85-2.083-2.228c-0.39-0.163-0.796-0.245-1.209-0.245
	C133.625,111.932,133.116,112.047,132.596,112.28z M95.219,87.821c-0.991,0.53-1.49,1.088-1.49,1.674v5.76
	c0,2.76,1.528,4.141,4.581,4.141c1.59,0,2.869-0.509,3.845-1.534c0.976-1.023,1.458-2.429,1.458-4.224
	c0-1.957-0.541-3.567-1.632-4.832c-1.029-1.186-2.282-1.783-3.757-1.783C97.204,87.023,96.206,87.289,95.219,87.821z
	 M134.889,88.108c-0.96,1.067-1.442,2.37-1.442,3.898c0,2.468,0.559,4.386,1.68,5.758c1.031,1.259,2.376,1.894,4.034,1.894
	c1.578,0,2.825-0.526,3.741-1.569c0.916-1.046,1.372-2.401,1.372-4.061c0-2.249-0.541-4.076-1.632-5.476
	c-1.061-1.36-2.406-2.043-4.04-2.043C137.085,86.509,135.848,87.044,134.889,88.108z M114.181,91.882v0.515l5.846-1.762
	c0.949-0.272,1.415-0.771,1.415-1.486c0-0.786-0.315-1.475-0.955-2.072c-0.635-0.591-1.421-0.89-2.353-0.89
	C115.505,86.187,114.181,88.085,114.181,91.882z M29.063,58.149l0.526,3.531l1.501-0.836l1.165-0.733l-2.982-2.093l-0.172-0.038
	L29.063,58.149z M121.019,49.028l-2.246,6.259c-0.157,0.438-0.145,0.775,0.033,1.008c0.184,0.233,0.623,0.476,1.324,0.727
	c0.71,0.255,1.35,0.379,1.936,0.379c1.593,0,2.722-0.943,3.399-2.825c0.934-2.607,0.065-4.392-2.613-5.35l-0.949-0.337l-0.473-0.077
	C121.209,48.812,121.067,48.889,121.019,49.028z M104.6,45.614c-0.763,0.601-1.257,1.475-1.475,2.628
	c-0.266,1.383-0.113,2.544,0.467,3.472c0.559,0.905,1.448,1.475,2.663,1.708l0.677,0.065c0.706,0,1.35-0.233,1.926-0.694
	c0.757-0.603,1.247-1.492,1.475-2.668c0.26-1.366,0.092-2.515-0.505-3.449c-0.57-0.899-1.442-1.458-2.624-1.685l-0.673-0.065
	C105.826,44.925,105.181,45.153,104.6,45.614z M94.861,43.519c-0.136,0.088-0.216,0.289-0.249,0.614l-0.319,3.355l0.601,0.023
	c0.851,0,1.498-0.136,1.942-0.39c0.494-0.293,0.781-0.798,0.846-1.513c0.065-0.7-0.065-1.22-0.396-1.551
	c-0.335-0.337-0.899-0.541-1.691-0.635h-0.277C95.106,43.422,94.955,43.454,94.861,43.519z M86.192,122.055l0.884-0.042l1.312-0.059
	h0.178c0.754,0,1.362,0.14,1.817,0.417c0.553,0.337,0.84,0.84,0.857,1.513c0.032,1.159-0.618,1.942-1.942,2.347
	c0.449,0.96,0.976,1.779,1.572,2.456c0.606,0.689,1.15,1.069,1.622,1.129l0.216,0.239l-0.245,0.151h-0.069
	c-1.475,0-2.902-1.241-4.285-3.736l-0.819,0.065l0.077,2.63c0.006,0.195,0.053,0.325,0.151,0.384
	c0.098,0.065,0.316,0.113,0.647,0.157c0.231,0.032,0.346,0.109,0.352,0.233l-0.055,0.195l-0.308,0.032h-0.283
	c-0.677,0-1.41,0.038-2.19,0.13h-0.054c-0.142,0-0.216-0.08-0.222-0.222c-0.006-0.109,0.086-0.174,0.26-0.195
	c0.411-0.054,0.612-0.283,0.601-0.689l-0.166-5.997c-0.011-0.396-0.251-0.635-0.717-0.715c-0.228-0.038-0.346-0.109-0.352-0.212
	l0.228-0.233l0.153,0.006l0.471,0.021L86.192,122.055z M77.087,129.789c0.006-0.109,0.098-0.168,0.277-0.174
	c0.249-0.021,0.411-0.059,0.488-0.124c0.092-0.082,0.142-0.251,0.151-0.52l0.251-5.765c0.015-0.39-0.011-0.633-0.076-0.742
	c-0.065-0.103-0.26-0.211-0.574-0.325l-0.174-0.319l0.103-0.136h0.038l0.293,0.048c0.266,0.056,0.964,0.109,2.087,0.159l2.288,0.054
	l0.614-0.006h0.065c0.228,0,0.34,0.021,0.34,0.071l-0.015,0.065c-0.103,0.402-0.163,0.872-0.174,1.404l-0.19,0.186l-0.239-0.18
	l-0.277-0.612c-0.13-0.163-0.314-0.272-0.563-0.321c-0.201-0.048-0.907-0.098-2.116-0.145l-0.266,0.053l-0.038,0.189l-0.113,2.615
	l0.174,0.163l0.471,0.006l1.188-0.011l0.281-0.174l0.168-0.515c0.032-0.13,0.098-0.201,0.195-0.201l0.103,0.021l0.174,0.201
	c-0.142,0.564-0.212,1.303-0.206,2.213l-0.21,0.174l-0.212-0.218c-0.027-0.325-0.071-0.536-0.13-0.639
	c-0.065-0.109-0.184-0.174-0.363-0.201l-1.551-0.13l-0.113,0.08l-0.115,2.728c-0.021,0.39,0.195,0.635,0.641,0.742l1.171,0.082
	l0.18,0.006c0.937,0,1.54-0.337,1.815-1.008l0.316-0.159l0.145,0.239c-0.14,0.493-0.239,0.993-0.298,1.492
	c-0.006,0.065-0.086,0.098-0.234,0.098h-0.151l-2.489-0.168l-2.538-0.065l-0.335,0.006
	C77.164,130.022,77.077,129.946,77.087,129.789z M94.417,121.697l0.872-0.107l1.306-0.153l0.576-0.027
	c0.574,0,1.052,0.098,1.442,0.298c0.58,0.293,0.895,0.775,0.964,1.448c0.115,1.15-0.471,1.98-1.768,2.483
	c0.526,0.922,1.107,1.697,1.747,2.326c0.656,0.65,1.226,0.987,1.702,1.014l0.228,0.228l-0.228,0.168l-0.26,0.012
	c-1.41,0-2.858-1.144-4.348-3.428l-0.813,0.12l0.26,2.619c0.021,0.195,0.081,0.32,0.184,0.379c0.103,0.05,0.319,0.088,0.65,0.103
	c0.234,0.017,0.358,0.088,0.369,0.212l-0.038,0.195l-0.31,0.059c-0.754,0.038-1.576,0.141-2.456,0.31h-0.08
	c-0.124,0-0.195-0.071-0.212-0.207c-0.01-0.109,0.077-0.18,0.251-0.212c0.406-0.08,0.585-0.325,0.547-0.731l-0.597-5.97
	c-0.042-0.396-0.298-0.614-0.769-0.662c-0.233-0.021-0.354-0.082-0.363-0.186l0.21-0.249l0.147-0.006l0.103,0.006L94.417,121.697z
	 M67.777,122.711c0.201-0.427,0.348-1.056,0.44-1.869c0.011-0.065,0.071-0.099,0.189-0.099l0.207,0.023l2.965,0.438
	c1.963,0.233,3.275,0.348,3.927,0.348h0.124c0.21,0,0.319,0.048,0.325,0.157c0.053,0.564,0.032,1.209-0.065,1.936l-0.05,0.147
	l-0.13,0.042l-0.287-0.21c-0.113-0.57-0.281-0.96-0.505-1.176c-0.308-0.289-0.888-0.49-1.739-0.591l-0.316-0.023
	c-0.151,0-0.239,0.023-0.266,0.071l-0.032,0.103l-0.727,6.203c-0.032,0.266,0.006,0.461,0.12,0.58
	c0.113,0.119,0.346,0.245,0.704,0.375l0.26,0.103l0.038,0.243l-0.157,0.142l-0.254-0.05c-1.069-0.222-1.963-0.331-2.684-0.331
	h-0.029l-0.329-0.042l-0.061-0.157c-0.021-0.136,0.065-0.218,0.245-0.245c0.369-0.05,0.623-0.13,0.765-0.245
	c0.157-0.13,0.254-0.352,0.293-0.677l0.71-6.029l-0.201-0.239l-0.363-0.048l-0.633-0.038c-0.484,0-0.868,0.08-1.161,0.243
	c-0.304,0.174-0.597,0.516-0.884,1.031l-0.31,0.136L67.777,122.711z M102.583,128.937c-0.032-0.103,0.08-0.239,0.34-0.413
	c0.283-0.184,0.484-0.526,0.614-1.025l0.937-3.703c0.331-1.414,0.538-2.559,0.624-3.432c0.006-0.13,0.147-0.281,0.417-0.455h0.032
	c0.065,0,0.168,0.109,0.298,0.319l4.22,6.322c0.249,0.354,0.591,0.559,1.035,0.608c0.201,0.021,0.298,0.08,0.293,0.184l-0.044,0.212
	l-0.178,0.015c-0.612,0-1.469,0.142-2.58,0.428l-0.201,0.032c-0.088,0-0.147-0.032-0.174-0.092l0.157-0.298
	c0.413-0.266,0.602-0.471,0.576-0.629l-0.124-0.249l-1.075-1.622l-1.534,0.298l-1.567,0.233l-0.337,1.59l-0.015,0.402
	c0.042,0.231,0.195,0.379,0.465,0.438c0.419,0.097,0.629,0.189,0.635,0.277c0.021,0.14-0.103,0.216-0.358,0.233
	c-0.786,0.059-1.496,0.21-2.131,0.461L102.583,128.937z M64.887,128.497c-1.079-0.245-1.913-0.396-2.516-0.455l-0.254-0.136v-0.13
	c0.032-0.08,0.136-0.124,0.325-0.136l0.629-0.059c0.145-0.059,0.243-0.216,0.287-0.467l1.09-6.05
	c0.059-0.342-0.136-0.591-0.582-0.754c-0.184-0.065-0.27-0.147-0.254-0.233l0.082-0.212h0.222c0.786,0.251,1.616,0.39,2.494,0.446
	l0.287,0.032l0.056,0.237c-0.017,0.103-0.142,0.168-0.375,0.191c-0.526,0.059-0.807,0.21-0.851,0.449l-1.079,5.997
	c-0.071,0.384,0.113,0.662,0.559,0.83c0.216,0.08,0.314,0.178,0.293,0.298l-0.092,0.184L64.887,128.497z M52.84,124.794l1.442-5.828
	c0.054-0.218,0.048-0.381-0.023-0.478l-0.438-0.287L53.469,118l-0.032-0.201l0.178-0.157l0.272,0.044
	c0.884,0.157,2.049,0.417,3.487,0.775c1.398,0.342,2.439,0.96,3.122,1.844c0.711,0.911,0.916,1.98,0.614,3.189
	c-0.348,1.41-1.079,2.368-2.196,2.867c-0.564,0.245-1.205,0.369-1.921,0.369c-0.601,0-1.253-0.086-1.963-0.26l-0.872-0.254
	l-1.052-0.298l-1.117-0.228c-0.18-0.027-0.251-0.12-0.212-0.277c0.023-0.08,0.092-0.124,0.212-0.124l0.098,0.006l0.151,0.01
	C52.557,125.303,52.757,125.137,52.84,124.794z M117.31,117.583c-0.05-0.168,0.015-0.266,0.195-0.293
	c0.683-0.103,1.415-0.316,2.206-0.624l0.272-0.082l0.157,0.18c0.029,0.097-0.059,0.216-0.26,0.337
	c-0.444,0.27-0.606,0.612-0.493,1.035l1.178,4.348l0.639,2.207c0.065,0.207,0.05,0.342-0.053,0.402l-0.163,0.044
	c-0.12,0-0.245-0.065-0.375-0.201c-0.304-0.331-1.351-1.058-3.139-2.186l-4.3-2.607h-0.115l-0.027,0.157l1.345,4.956
	c0.136,0.488,0.446,0.736,0.939,0.736l0.124-0.004l0.08-0.006c0.185,0,0.293,0.054,0.315,0.151c0.042,0.153-0.065,0.255-0.315,0.316
	c-0.97,0.216-1.718,0.417-2.238,0.606l-0.316-0.142l0.212-0.254c0.287-0.157,0.467-0.314,0.541-0.467
	c0.071-0.151,0.065-0.379-0.015-0.677l-1.454-5.352c-0.065-0.233-0.163-0.396-0.293-0.499c-0.124-0.086-0.336-0.151-0.635-0.199
	c-0.222-0.038-0.341-0.109-0.358-0.207c-0.021-0.115,0.059-0.18,0.233-0.201c0.547-0.071,1.004-0.18,1.377-0.325l0.212-0.038
	c0.124,0,0.254,0.038,0.379,0.119l6.534,4.025l0.168,0.075l0.006-0.172l-1.188-4.371c-0.124-0.467-0.428-0.7-0.895-0.7l-0.157,0.012
	l-0.103,0.006C117.402,117.686,117.326,117.654,117.31,117.583z M44.624,122.749c0.109-0.054,0.206-0.205,0.289-0.461l1.809-5.48
	c0.12-0.369,0.163-0.614,0.126-0.733c-0.038-0.118-0.191-0.277-0.467-0.472l-0.082-0.352l0.142-0.092l0.304,0.13l1.968,0.71
	l2.781,0.842l0.281,0.101l0.082,0.077l-0.027,0.059c-0.212,0.358-0.396,0.792-0.549,1.303l-0.233,0.124l-0.178-0.233l-0.109-0.662
	c-0.077-0.195-0.228-0.352-0.455-0.467l-1.989-0.715l-0.272-0.021l-0.092,0.168l-0.819,2.489l0.124,0.205l1.599,0.44l0.316-0.086
	l0.302-0.446l0.337-0.092l0.115,0.239c-0.289,0.503-0.559,1.192-0.803,2.072l-0.254,0.107l-0.142-0.266
	c0.059-0.314,0.076-0.536,0.044-0.65l-0.287-0.293l-1.454-0.547l-0.136,0.048l-0.857,2.598c-0.124,0.369,0.017,0.662,0.417,0.89
	l1.102,0.396c0.346,0.115,0.662,0.168,0.943,0.168c0.526,0,0.943-0.195,1.253-0.597l0.346-0.059l0.071,0.266l-0.689,1.36
	l-0.103,0.05l-0.293-0.077l-2.353-0.83l-2.743-0.84c-0.174-0.048-0.233-0.145-0.186-0.293c0.023-0.076,0.082-0.109,0.186-0.109
	l0.13,0.017l0.331,0.038L44.624,122.749z M121.387,116.27l0.05-0.157l0.319-0.088l1.995-0.645l2.707-1.046l0.346-0.109l0.056,0.027
	l0.01,0.061c0.056,0.417,0.18,0.872,0.369,1.366l-0.109,0.249l-0.287-0.08l-0.488-0.455c-0.124-0.076-0.266-0.109-0.428-0.109
	l-0.216,0.017l-2.012,0.66l-0.228,0.153l0.038,0.189l0.878,2.468l0.222,0.086l1.534-0.635l0.195-0.266l-0.036-0.536
	c-0.023-0.18,0.048-0.277,0.21-0.283l0.239,0.121c0.08,0.574,0.293,1.285,0.639,2.131l-0.136,0.239l-0.275-0.12l-0.364-0.547
	l-0.239-0.071l-0.168,0.021l-1.485,0.461l-0.076,0.12l0.916,2.575c0.109,0.304,0.337,0.461,0.673,0.461l0.205-0.015l1.111-0.363
	c0.981-0.348,1.471-0.913,1.471-1.681c0.004-0.18,0.075-0.266,0.216-0.266l0.245,0.168c0.054,0.509,0.151,1.002,0.287,1.496
	c0.021,0.071-0.088,0.147-0.331,0.218l-2.364,0.792l-2.684,1.023l-0.325-0.119l0.189-0.266c0.227-0.109,0.363-0.212,0.407-0.298
	c0.054-0.109,0.036-0.287-0.055-0.538l-1.936-5.433c-0.13-0.369-0.249-0.585-0.346-0.662c-0.088-0.059-0.255-0.086-0.505-0.086
	h-0.157C121.48,116.498,121.392,116.422,121.387,116.27z M132.693,119.708c-1.129-0.375-1.953-1.144-2.468-2.305
	c-0.499-1.121-0.511-2.244-0.038-3.367c0.472-1.106,1.28-1.915,2.435-2.424c0.677-0.304,1.344-0.455,2.001-0.455
	c0.476,0,0.949,0.08,1.415,0.243c1.121,0.386,1.93,1.155,2.439,2.293c0.494,1.102,0.499,2.219,0.023,3.351
	c-0.467,1.111-1.259,1.915-2.387,2.42c-0.698,0.308-1.387,0.465-2.054,0.465C133.598,119.93,133.137,119.855,132.693,119.708z
	 M32.68,117.701c0.119-0.075,0.243-0.254,0.373-0.532l2.37-5.016c0.098-0.222,0.13-0.411,0.08-0.568
	c-0.036-0.142-0.163-0.325-0.367-0.553l-0.147-0.402h0.304c0.553,0.337,1.058,0.574,1.523,0.704l0.342,0.159l0.077,0.27l0.065,6.546
	l0.032,0.151l0.168-0.113l4.847-4.252c0.13-0.113,0.249-0.168,0.364-0.168l0.124,0.029c0.358,0.151,0.878,0.314,1.567,0.482
	l0.293,0.092v0.254c-0.038,0.077-0.13,0.115-0.293,0.115l-0.119-0.006l-0.298-0.017c-0.364,0-0.576,0.082-0.641,0.256l-2.169,5.698
	c-0.086,0.228-0.097,0.411-0.032,0.547c0.05,0.115,0.18,0.245,0.386,0.381c0.201,0.134,0.276,0.254,0.228,0.362l-0.136,0.153
	l-0.319-0.109c-0.981-0.467-1.764-0.798-2.332-0.987c-0.18-0.065-0.239-0.168-0.174-0.314c0.021-0.053,0.076-0.082,0.174-0.082
	l0.157,0.017l0.612,0.08l0.088-0.01c0.113-0.027,0.21-0.159,0.302-0.386l1.888-5.01L42,115.289l-0.151,0.053l-2.689,2.326
	l-2.305,2.131l-0.34,0.363l-0.228,0.071l-0.109-0.027c-0.071-0.033-0.098-0.174-0.059-0.428c0.124-0.97,0.107-3.254-0.05-6.842
	l-0.08-0.195l-0.174,0.14l-2.125,4.48c-0.239,0.497-0.115,0.905,0.379,1.23c0.195,0.13,0.272,0.251,0.222,0.358l-0.134,0.153
	l-0.316-0.103c-0.867-0.413-1.555-0.7-2.054-0.874c-0.18-0.065-0.239-0.168-0.174-0.314c0.023-0.054,0.082-0.082,0.174-0.082
	l0.157,0.017l0.358,0.044L32.68,117.701z M131.922,99.353c-1.528-1.486-2.299-3.46-2.299-5.905c0-2.538,0.972-4.669,2.902-6.404
	c1.876-1.676,4.115-2.51,6.723-2.51c2.793,0,4.966,0.754,6.529,2.255c1.523,1.458,2.282,3.437,2.282,5.926
	c0,2.494-0.928,4.604-2.776,6.328c-1.844,1.725-4.137,2.586-6.871,2.586C135.676,101.63,133.512,100.872,131.922,99.353z
	 M51.489,101.523c-0.142-0.098-0.216-0.331-0.216-0.689c0-0.325,0.379-0.603,1.138-0.815c0.834-0.243,1.247-1.035,1.247-2.385
	v-5.628c0-1.129-0.115-1.924-0.343-2.382c-0.314-0.633-0.97-1.111-1.957-1.442c-0.444-0.157-0.668-0.39-0.668-0.71
	c0-0.411,0.325-0.721,0.972-0.922c1.203-0.373,2.267-0.867,3.198-1.481c0.742-0.515,1.203-0.775,1.372-0.775
	c0.576,0,0.857,0.375,0.842,1.117l-0.088,11.473c0,0.928,0.136,1.593,0.407,1.995c0.304,0.446,0.878,0.759,1.718,0.943
	c0.934,0.218,1.356,0.555,1.27,1.01c-0.071,0.417-0.245,0.65-0.514,0.71l-0.103,0.006l-0.928-0.044
	c-0.889-0.065-1.773-0.092-2.651-0.092c-1.226,0-2.441,0.059-3.644,0.174l-0.526,0.033C51.755,101.62,51.581,101.588,51.489,101.523
	z M76.871,101.523c-0.142-0.098-0.212-0.331-0.212-0.689c0-0.325,0.381-0.603,1.14-0.815c0.828-0.243,1.241-1.035,1.241-2.385
	v-5.628c0-1.129-0.115-1.924-0.342-2.382c-0.314-0.633-0.964-1.111-1.951-1.442c-0.446-0.157-0.668-0.39-0.668-0.71
	c0-0.411,0.319-0.721,0.966-0.922c1.203-0.373,2.271-0.867,3.198-1.481c0.748-0.515,1.203-0.775,1.377-0.775
	c0.57,0,0.851,0.375,0.836,1.117l-0.088,11.473c0,0.928,0.136,1.593,0.413,1.995c0.298,0.446,0.872,0.759,1.718,0.943
	c0.928,0.218,1.351,0.555,1.264,1.01c-0.071,0.417-0.245,0.65-0.517,0.71l-0.101,0.006l-0.928-0.044
	c-0.889-0.065-1.773-0.092-2.651-0.092c-1.226,0-2.441,0.059-3.644,0.174l-0.526,0.033C77.137,101.62,76.963,101.588,76.871,101.523
	z M112.765,99.462c-1.572-1.504-2.358-3.51-2.358-6.014c0-2.837,0.878-5.113,2.642-6.833c1.643-1.605,3.665-2.406,6.056-2.406
	c1.415,0,2.743,0.455,3.969,1.354c1.106,0.803,1.838,1.72,2.196,2.749c0.13,0.36,0.32,0.559,0.58,0.603
	c0.369,0.071,0.559,0.319,0.559,0.754c0,0.585-0.704,1.085-2.108,1.502l-9.901,2.946c0.645,3.405,2.391,5.107,5.243,5.107
	c1.643,0,3.518-0.597,5.628-1.8c0.314-0.186,0.624-0.283,0.922-0.283c0.228,0,0.346,0.207,0.346,0.624
	c0,0.614-0.834,1.383-2.494,2.299c-1.892,1.014-3.828,1.525-5.823,1.525C116.063,101.588,114.24,100.882,112.765,99.462z
	 M53.978,78.603c-0.428-0.402-0.645-0.922-0.645-1.569c0-0.627,0.266-1.219,0.786-1.762c0.526-0.541,1.085-0.813,1.685-0.813
	c1.459,0,2.196,0.689,2.196,2.06c0,0.662-0.249,1.274-0.742,1.838c-0.499,0.564-1.035,0.851-1.626,0.851
	C54.959,79.209,54.412,79.003,53.978,78.603z M79.365,78.603c-0.428-0.402-0.645-0.922-0.645-1.569c0-0.627,0.26-1.219,0.786-1.762
	c0.52-0.541,1.085-0.813,1.685-0.813c1.46,0,2.19,0.689,2.19,2.06c0,0.662-0.249,1.274-0.742,1.838
	c-0.493,0.564-1.035,0.851-1.622,0.851C80.346,79.209,79.794,79.003,79.365,78.603z M34.995,72.958l0.786-0.056h0.092
	c0.287,0.056,0.455,0.245,0.494,0.591c0.044,0.386-0.048,0.652-0.276,0.792l-0.88,0.26c-1.002,0.228-1.637,0.488-1.892,0.786
	c-0.26,0.293-0.385,0.912-0.385,1.856V96.41c0,1.203,0.402,2.027,1.209,2.462c0.813,0.438,2.282,0.656,4.419,0.656
	c2.033,0,3.535-0.262,4.516-0.786c0.983-0.522,1.785-1.504,2.397-2.955c0.174-0.428,0.413-0.647,0.727-0.647l0.325,0.071
	c0.461,0.115,0.629,0.375,0.517,0.792c-0.49,1.833-0.733,3.552-0.733,5.157c0,0.233-0.342,0.352-1.025,0.352l-0.346-0.006
	c-2.261-0.119-5.065-0.174-8.399-0.174c-3.552,0-6.718,0.071-9.495,0.23h-0.264c-0.262,0-0.428-0.038-0.511-0.115
	c-0.097-0.092-0.145-0.31-0.145-0.65c0-0.375,0.302-0.591,0.92-0.645c1.406-0.147,2.104-0.895,2.104-2.257V78.065
	c0-1.002-0.136-1.746-0.405-2.228c-0.331-0.576-0.96-1.02-1.888-1.333c-0.564-0.201-0.807-0.526-0.731-0.966
	c0.042-0.319,0.134-0.505,0.276-0.559l0.331-0.038l0.786,0.055c0.987,0.107,2.06,0.163,3.215,0.163
	C32.04,73.159,33.461,73.094,34.995,72.958z M63.831,101.544c-0.136-0.086-0.207-0.319-0.207-0.71c0-0.342,0.39-0.629,1.171-0.869
	c0.781-0.233,1.171-0.943,1.171-2.114v-19.44c0-1.159-0.166-2.01-0.503-2.559c-0.336-0.541-0.928-0.964-1.773-1.263
	c-0.446-0.157-0.662-0.379-0.662-0.668c0-0.428,0.319-0.754,0.966-0.964c0.97-0.316,1.978-0.803,3.024-1.465
	c0.863-0.515,1.406-0.769,1.634-0.769c0.53,0,0.796,0.363,0.796,1.09l-0.086,2.152c-0.044,1.415-0.059,2.814-0.044,4.185
	l0.088,19.184c0,0.874,0.216,1.507,0.645,1.898c0.428,0.396,1.165,0.656,2.213,0.786c0.645,0.071,0.964,0.316,0.964,0.733
	c0,0.511-0.255,0.765-0.765,0.765l-0.199-0.012c-0.857-0.086-1.802-0.124-2.837-0.124c-1.35,0-2.858,0.071-4.511,0.207l-0.597,0.033
	C64.074,101.62,63.911,101.597,63.831,101.544z M92.725,100.899c-1.55-0.472-2.326-0.901-2.341-1.285l0.021-3.46l0.065-5.285
	l-0.042-7.229l-0.044-6.28c0-1.029-0.157-1.739-0.473-2.125c-0.287-0.346-0.91-0.618-1.865-0.819
	c-0.379-0.13-0.564-0.363-0.564-0.71c0-0.298,0.283-0.553,0.842-0.748c0.801-0.287,1.794-0.771,2.982-1.442
	c0.949-0.532,1.534-0.792,1.762-0.792c0.444,0,0.668,0.363,0.668,1.094l-0.065,2.234l-0.023,4.099l0.044,7.435
	c0,0.494,0.119,0.736,0.358,0.736l0.375-0.136c1.718-0.987,3.508-1.484,5.368-1.484c2.148,0,3.898,0.65,5.243,1.945
	c1.345,1.297,2.018,2.988,2.018,5.081c0,2.837-0.987,5.211-2.961,7.131c-1.892,1.848-4.143,2.77-6.751,2.77
	C95.871,101.63,94.325,101.387,92.725,100.899z M136.033,63.914l3.751-5.444c0.186-0.277,0.289-0.505,0.31-0.694
	c0.015-0.218-0.076-0.461-0.266-0.721l-0.021-0.402l0.184-0.103l0.298,0.218c0.532,0.459,1.221,0.926,2.066,1.404l0.249,0.151
	l0.023,0.254l-0.228,0.163l-0.289-0.092l-0.58-0.151l-0.086,0.006c-0.124,0.032-0.277,0.178-0.461,0.438l-3.633,5.281
	c-0.224,0.325-0.272,0.629-0.13,0.901c0.14,0.275,0.503,0.612,1.088,1.014c0.559,0.385,1.02,0.597,1.389,0.645l0.147,0.006
	c0.325,0,0.683-0.124,1.068-0.369l0.402,0.044l-0.011,0.314c-0.476,0.413-0.872,0.836-1.171,1.28l-0.071,0.032l-0.375-0.201
	l-2.27-1.637l-2.647-1.735l-0.195-0.168l0.082-0.21l0.145-0.077l0.228,0.071c0.159,0.086,0.304,0.13,0.434,0.13
	C135.685,64.26,135.876,64.145,136.033,63.914z M28.77,66.64c-0.082-0.113-0.017-0.308,0.189-0.601
	c0.228-0.304,0.31-0.754,0.239-1.335L28.7,60.362c-0.222-1.643-0.461-2.95-0.727-3.916c-0.048-0.145,0.044-0.363,0.272-0.65
	l0.059-0.021c0.082,0,0.222,0.071,0.417,0.222c2.164,1.593,4.522,3.275,7.072,5.037c0.281,0.191,0.585,0.289,0.905,0.289
	l0.446-0.055l0.199-0.033c0.103,0,0.163,0.038,0.191,0.109l0.036,0.245l-0.178,0.092c-0.65,0.243-1.513,0.742-2.586,1.502
	l-0.31,0.136l-0.113-0.05l0.042-0.384c0.331-0.444,0.451-0.748,0.358-0.901l-0.228-0.216l-1.81-1.301l-1.519,0.949l-1.578,0.884
	l0.287,1.833l0.147,0.44c0.113,0.189,0.293,0.287,0.532,0.287l0.145-0.011l0.494-0.044c0.174,0,0.272,0.029,0.293,0.082
	c0.077,0.142-0.021,0.272-0.287,0.396c-0.819,0.379-1.513,0.83-2.093,1.36H28.77z M127.835,60.111
	c0.136-0.042,0.272-0.199,0.411-0.471l2.988-5.878c0.201-0.396,0.293-0.662,0.272-0.801c-0.017-0.142-0.163-0.348-0.44-0.614
	l-0.032-0.411l0.168-0.082l0.325,0.195c0.251,0.186,0.949,0.564,2.098,1.15l2.993,1.427c0.287,0.124,0.417,0.216,0.385,0.272
	l-0.042,0.054c-0.304,0.373-0.582,0.83-0.847,1.377l-0.281,0.109l-0.163-0.304c0.033-0.358,0.027-0.612-0.006-0.765
	c-0.054-0.228-0.195-0.434-0.434-0.601c-0.184-0.147-0.889-0.532-2.125-1.155l-0.304-0.071l-0.13,0.174l-1.354,2.672l0.101,0.254
	l1.731,0.771l0.373-0.044l0.419-0.449l0.396-0.05l0.086,0.293c-0.417,0.516-0.836,1.253-1.264,2.202l-0.302,0.077l-0.12-0.319
	c0.126-0.354,0.18-0.597,0.168-0.733l-0.276-0.379l-1.551-0.869l-0.163,0.033l-1.415,2.781c-0.201,0.396-0.092,0.754,0.319,1.079
	l1.176,0.635c0.499,0.254,0.955,0.379,1.356,0.379c0.455,0,0.857-0.157,1.194-0.476l0.4-0.015l0.044,0.319
	c-0.379,0.444-0.721,0.916-1.019,1.41l-0.086,0.042l-0.352-0.14l-2.517-1.345l-2.955-1.421c-0.184-0.08-0.237-0.207-0.157-0.363
	c0.032-0.065,0.088-0.098,0.168-0.098l0.201,0.05l0.476,0.113L127.835,60.111z M35.125,52.5v-0.207l0.364-0.142
	c0.668-0.205,1.431-0.541,2.282-1.002l0.26-0.124l0.233,0.107l0.017,0.283l-0.233,0.195c-0.277,0.201-0.434,0.363-0.478,0.488
	c-0.036,0.124,0.006,0.331,0.126,0.624l2.542,5.878c0.157,0.373,0.39,0.568,0.694,0.595l0.086,0.006c0.304,0,0.754-0.13,1.35-0.39
	c0.624-0.266,1.052-0.547,1.28-0.834c0.233-0.289,0.348-0.694,0.348-1.22c-0.006-0.207,0.074-0.31,0.243-0.319l0.266,0.178
	c0.092,0.624,0.239,1.182,0.455,1.676c0.033,0.082-0.092,0.18-0.379,0.287l-2.592,1.058l-2.875,1.318l-0.249,0.071l-0.136-0.18
	c-0.048-0.113,0.021-0.222,0.201-0.319c0.411-0.228,0.526-0.553,0.346-0.966l-2.619-6.068c-0.136-0.308-0.275-0.52-0.423-0.633
	c-0.145-0.109-0.346-0.163-0.597-0.163l-0.157,0.006l-0.044,0.004C35.266,52.705,35.163,52.636,35.125,52.5z M117.391,55.411
	l2.316-6.452c0.086-0.245,0.098-0.428,0.027-0.549l-0.467-0.379l-0.375-0.266l-0.015-0.233l0.216-0.157l0.304,0.08
	c0.993,0.283,2.282,0.712,3.877,1.28c1.551,0.559,2.663,1.377,3.34,2.462c0.7,1.123,0.807,2.359,0.325,3.699
	c-0.559,1.561-1.502,2.563-2.825,3.003c-0.488,0.157-1.008,0.233-1.567,0.233c-0.868,0-1.821-0.186-2.863-0.559l-0.964-0.39
	l-1.161-0.461l-1.247-0.39c-0.195-0.05-0.266-0.163-0.201-0.337c0.027-0.082,0.098-0.124,0.201-0.124l0.157,0.027l0.266,0.033
	C117.05,55.932,117.266,55.763,117.391,55.411z M50.806,55.211c-1.209-0.618-2.001-1.611-2.37-2.976
	c-0.375-1.4-0.178-2.695,0.58-3.894c0.738-1.153,1.79-1.919,3.168-2.288c0.807-0.216,1.522-0.325,2.158-0.325h0.402
	c0.645,0.071,1.002,0.18,1.073,0.352c0.147,0.337,0.325,0.901,0.538,1.693c0.032,0.124-0.065,0.233-0.293,0.319l-0.168,0.038
	c-0.092,0-0.163-0.038-0.207-0.115c-0.455-0.721-0.934-1.182-1.421-1.377c-0.227-0.092-0.497-0.14-0.801-0.14
	c-0.337,0-0.727,0.059-1.155,0.172c-1.025,0.277-1.767,0.842-2.234,1.693c-0.499,0.922-0.58,2.028-0.239,3.307
	c0.342,1.274,0.987,2.202,1.936,2.787c0.608,0.384,1.259,0.574,1.953,0.574c0.358,0,0.733-0.054,1.117-0.157
	c0.727-0.195,1.257-0.503,1.593-0.932c0.319-0.407,0.52-0.987,0.585-1.735c0.023-0.218,0.168-0.337,0.446-0.348h0.027
	c0.178,0,0.281,0.077,0.304,0.228c0.107,0.629,0.14,1.155,0.103,1.567c-0.029,0.272-0.321,0.582-0.889,0.945
	c-0.614,0.384-1.362,0.698-2.24,0.932c-0.564,0.153-1.111,0.228-1.637,0.228C52.308,55.758,51.533,55.574,50.806,55.211z
	 M105.826,54.028c-1.46-0.277-2.58-0.943-3.372-2.001c-0.813-1.085-1.085-2.343-0.813-3.768c0.26-1.377,0.981-2.441,2.163-3.189
	c0.846-0.532,1.762-0.801,2.743-0.801c0.364,0,0.736,0.036,1.117,0.113c1.448,0.272,2.559,0.949,3.346,2.028
	c0.798,1.096,1.062,2.343,0.792,3.747c-0.26,1.356-0.981,2.408-2.164,3.156c-0.851,0.547-1.767,0.819-2.745,0.819
	C106.541,54.132,106.189,54.099,105.826,54.028z M60.149,53.822c-0.021-0.124,0.065-0.21,0.266-0.266
	c0.275-0.08,0.449-0.163,0.514-0.254c0.086-0.109,0.103-0.314,0.05-0.618l-1.107-6.496c-0.074-0.444-0.163-0.71-0.26-0.813
	c-0.098-0.097-0.34-0.18-0.721-0.228c-0.205-0.027-0.293-0.13-0.27-0.31l0.086-0.168l0.379-0.033c0.31-0.01,1.096-0.119,2.37-0.335
	c1.264-0.212,2.347-0.428,3.254-0.641l0.358-0.053l0.109,0.038v0.075c-0.023,0.478,0.027,1.014,0.145,1.611l-0.168,0.251
	l-0.308-0.142l-0.461-0.612c-0.18-0.153-0.413-0.228-0.7-0.228h-0.021c-0.245,0-1.041,0.113-2.381,0.34l-0.287,0.13v0.218
	l0.505,2.95l0.234,0.14l1.848-0.405l0.277-0.26l0.065-0.608c0.006-0.189,0.086-0.281,0.233-0.281h0.059l0.243,0.184
	c-0.027,0.662,0.076,1.507,0.298,2.521l-0.201,0.245l-0.287-0.189c-0.107-0.354-0.205-0.582-0.298-0.689
	c-0.086-0.088-0.216-0.136-0.39-0.136h-0.059l-1.762,0.228l-0.109,0.119l0.52,3.08c0.077,0.44,0.375,0.662,0.901,0.673l1.328-0.186
	c1.167-0.201,1.833-0.736,1.985-1.605c0.032-0.172,0.107-0.26,0.233-0.26l0.08,0.011l0.222,0.228
	c-0.036,0.585-0.033,1.165,0.023,1.741c0.01,0.092-0.124,0.151-0.407,0.189l-2.82,0.417l-3.221,0.641h-0.113
	C60.252,54.034,60.17,53.963,60.149,53.822z M94.71,52.267c-0.857-0.12-1.794-0.189-2.82-0.207
	c-0.207-0.006-0.304-0.103-0.287-0.281c0.015-0.12,0.124-0.186,0.325-0.186c0.476,0,0.731-0.233,0.775-0.698l0.65-6.827
	c0.044-0.451-0.195-0.754-0.715-0.907c-0.254-0.08-0.379-0.172-0.363-0.287c0.011-0.163,0.097-0.249,0.245-0.249h0.042l0.168,0.038
	l0.89,0.13l1.008,0.075l1.498,0.121c0.949,0.086,1.685,0.34,2.202,0.748c0.58,0.455,0.834,1.062,0.759,1.833
	c-0.126,1.318-0.966,2.114-2.527,2.391c0.379,1.15,0.861,2.152,1.437,2.999c0.597,0.872,1.159,1.377,1.685,1.511l0.207,0.304
	c0,0.092-0.077,0.147-0.216,0.147h-0.077c-1.702-0.174-3.177-1.785-4.413-4.853l-0.939-0.044l-0.287,2.994
	c-0.021,0.222,0.021,0.373,0.124,0.455c0.103,0.086,0.337,0.174,0.71,0.266c0.256,0.071,0.381,0.178,0.364,0.319l-0.086,0.212
	l-0.109,0.015L94.71,52.267z M81.035,44.887l-0.174-0.266c0.174-0.515,0.272-1.241,0.283-2.181c0-0.092,0.098-0.145,0.302-0.145
	h0.136c1.031,0.092,2.169,0.145,3.422,0.163l1.767,0.015c1.383,0,2.326-0.033,2.837-0.098l0.157-0.01
	c0.168,0,0.26,0.048,0.275,0.145c0.126,0.635,0.174,1.371,0.153,2.207l-0.038,0.174l-0.147,0.065l-0.086,0.01
	c-0.13,0-0.212-0.071-0.26-0.211c-0.195-0.641-0.434-1.063-0.715-1.28c-0.386-0.298-1.069-0.449-2.045-0.467h-0.071
	c-0.352,0-0.547,0.044-0.585,0.119l-0.021,0.126l-0.098,7.135c-0.006,0.304,0.065,0.52,0.205,0.645
	c0.142,0.124,0.425,0.239,0.847,0.342l0.308,0.086l0.065,0.272l-0.157,0.18l-0.298-0.029c-0.736-0.075-1.404-0.113-1.995-0.113
	l-1.123,0.054l-0.228,0.017L83.6,51.821l-0.092-0.172c-0.038-0.153,0.048-0.251,0.254-0.304c0.411-0.098,0.689-0.222,0.84-0.369
	c0.163-0.163,0.245-0.428,0.251-0.801l0.097-6.936l-0.256-0.249l-0.423-0.012l-0.103-0.006c-0.855,0-1.49,0.153-1.907,0.446
	c-0.331,0.233-0.623,0.656-0.884,1.28c-0.061,0.145-0.142,0.216-0.233,0.216L81.035,44.887z M78.449,42.263l0.319-0.033l0.142,0.233
	c0.01,0.119-0.115,0.228-0.363,0.325c-0.559,0.201-0.819,0.559-0.781,1.058l0.396,5.134l0.243,2.607
	c0.033,0.251-0.015,0.396-0.142,0.44l-0.13,0.021c-0.157,0-0.302-0.101-0.438-0.314c-0.277-0.434-1.291-1.475-3.059-3.124
	l-4.273-3.845l-0.13-0.021l-0.059,0.168l0.449,5.855c0.05,0.624,0.396,0.972,1.037,1.042c0.266,0.033,0.406,0.119,0.417,0.249
	c0.011,0.184-0.13,0.277-0.423,0.287c-1.138,0.038-2.022,0.109-2.646,0.212h-0.082c-0.151,0-0.233-0.082-0.243-0.239
	c-0.006-0.098,0.092-0.174,0.293-0.233c0.358-0.113,0.597-0.249,0.704-0.406c0.115-0.159,0.157-0.413,0.13-0.765L69.323,44.6
	c-0.021-0.277-0.098-0.484-0.222-0.624c-0.119-0.126-0.343-0.245-0.668-0.369c-0.237-0.088-0.357-0.189-0.357-0.31
	c0-0.113,0.088-0.172,0.254-0.172l0.056,0.004l0.564,0.017c0.39,0,0.736-0.033,1.046-0.086l0.124-0.012
	c0.184,0,0.358,0.077,0.52,0.228l6.479,5.911l0.174,0.124l0.038-0.195l-0.396-5.163c-0.05-0.606-0.39-0.937-1.031-1.002
	c-0.227-0.017-0.346-0.077-0.352-0.168c-0.015-0.195,0.071-0.293,0.266-0.293h0.021l0.298,0.006
	C76.844,42.496,77.613,42.419,78.449,42.263z M85.477,40.126c-21.581,0-41.113,5.157-55.199,13.447
	C16.174,61.875,7.568,73.262,7.574,85.726c-0.006,12.46,8.6,23.847,22.704,32.149c14.086,8.29,33.612,13.442,55.187,13.442
	c21.587,0.006,41.117-5.151,55.203-13.442c14.104-8.302,22.709-19.689,22.704-32.149c0.006-12.464-8.6-23.851-22.704-32.153
	c-14.086-8.29-33.613-13.447-55.182-13.447H85.477z"/>
</svg>
