<?xml version="1.0" encoding="UTF-8" standalone="no"?>
<!-- Created with Inkscape (http://www.inkscape.org/) -->

<svg
   xmlns:dc="http://purl.org/dc/elements/1.1/"
   xmlns:cc="http://creativecommons.org/ns#"
   xmlns:rdf="http://www.w3.org/1999/02/22-rdf-syntax-ns#"
   xmlns:svg="http://www.w3.org/2000/svg"
   xmlns="http://www.w3.org/2000/svg"
   xmlns:sodipodi="http://sodipodi.sourceforge.net/DTD/sodipodi-0.dtd"
   xmlns:inkscape="http://www.inkscape.org/namespaces/inkscape"
   version="1.1"
   id="svg2"
   width="445"
   height="327"
   viewBox="0 0 445 327"
   sodipodi:docname="Louisville_Nashville.svg"
   inkscape:version="0.92.3 (2405546, 2018-03-11)">
  <metadata
     id="metadata8">
    <rdf:RDF>
      <cc:Work
         rdf:about="">
        <dc:format>image/svg+xml</dc:format>
        <dc:type
           rdf:resource="http://purl.org/dc/dcmitype/StillImage" />
        <dc:title></dc:title>
      </cc:Work>
    </rdf:RDF>
  </metadata>
  <defs
     id="defs6" />
  <sodipodi:namedview
     pagecolor="#ffffff"
     bordercolor="#666666"
     borderopacity="1"
     objecttolerance="10"
     gridtolerance="10"
     guidetolerance="10"
     inkscape:pageopacity="0"
     inkscape:pageshadow="2"
     inkscape:window-width="963"
     inkscape:window-height="915"
     id="namedview4"
     showgrid="false"
     inkscape:zoom="1.4434251"
     inkscape:cx="135.90042"
     inkscape:cy="184.8908"
     inkscape:window-x="885"
     inkscape:window-y="149"
     inkscape:window-maximized="0"
     inkscape:current-layer="svg2" />
  <path
     style="fill:#000000"
     d="M 0,163.5 V 0 H 222.5 445 V 163.5 327 H 222.5 0 Z m 425.59855,92.74082 C 425.27327,228.33337 424.73863,164.325 424.41048,114 424.08232,63.675 423.74322,22.446557 423.65692,22.381239 423.57061,22.31592 332.18959,22.022504 220.58798,21.729204 L 17.675968,21.195931 18.335149,92.847965 c 0.36255,39.408615 0.660457,103.712355 0.662016,142.897185 L 19,306.99029 l 98.75,0.25486 c 54.3125,0.14017 145.93025,0.13822 203.59499,-0.004 l 104.84499,-0.25917 -0.59143,-50.74083 z M 27.997261,234.25 c -0.0015,-35.0625 -0.300714,-95.43486 -0.664906,-134.16081 l -0.662168,-70.41081 75.914903,0.653282 c 41.7532,0.359305 129.34233,0.656669 194.6425,0.66081 L 415.95518,31 l 0.0148,70.75 c 0.008,38.9125 0.31575,98.9875 0.68363,133.5 L 417.32246,298 H 222.66123 28 Z M 354.907,224.13061 c 3.25363,-4.56931 4.25017,-7.96842 3.01356,-10.27905 l -1.07973,-2.01749 -1.95524,1.76947 c -1.07538,0.9732 -2.50771,2.92304 -3.18297,4.33296 L 350.47489,220.5 331.73744,220.77207 313,221.04413 v 1.14919 c 0,0.63206 0.74474,1.97213 1.65499,2.97794 L 316.30998,227 h 18.27691 18.27692 z m -57.03014,-3.06599 c 2.43791,-5.66709 2.59662,-7.19114 0.92314,-8.86462 -1.92753,-1.92753 -2.59069,-1.46162 -4.69698,3.3 l -1.99056,4.5 -9.80623,0.10213 c -5.39343,0.0562 -13.30038,0.1099 -17.571,0.1194 -4.27063,0.009 -7.99837,0.39522 -8.28388,0.85719 -0.28551,0.46196 0.0544,1.75823 0.75532,2.8806 L 258.48109,226 h 18.63631 18.63631 z m -116.85282,-4.32747 c 2.17633,-3.43043 3.96123,-6.8041 3.96646,-7.49704 0.005,-0.69293 -3.21045,-4.7326 -7.14593,-8.97703 -4.03583,-4.35265 -8.15233,-9.97129 -9.44201,-12.88748 C 165.59119,181.01857 163,167.80413 163,159.82379 163,153.25316 161.77885,150 159.31241,150 h -1.61722 l 0.65821,12.31218 c 1.08666,20.32665 5.1102,31.10874 15.15279,40.60574 l 5.72918,5.41791 -2.09946,4.32134 -2.09947,4.32133 -42.68508,0.26075 -42.685082,0.26075 -0.377782,1.13393 c -0.20778,0.62366 0.321275,1.83298 1.175678,2.68739 l 1.55346,1.55346 42.524726,0.0498 42.52472,0.0498 3.95696,-6.23714 z m 168.4699,-1.72544 1.53688,-2.97199 -3.51541,-1.46883 L 344,209.10205 343.87651,178.30103 c -0.0679,-16.94057 -0.23801,-37.71843 -0.37799,-46.17304 l -0.25451,-15.372 1.878,-1.878 C 346.1549,113.8451 348.13912,113 349.53138,113 c 3.52687,0 3.94168,-2.03084 1.40776,-6.89226 l -2.17049,-4.16418 -13.09639,0.27822 -13.09638,0.27822 -2.31071,3.43168 c -2.79846,4.15603 -2.55232,5.23721 1.42709,6.26838 1.68092,0.43557 3.51968,1.35625 4.08614,2.04594 1.32944,1.61868 2.10078,67.04856 0.79874,67.754 -0.50757,0.275 -2.77914,-3.1 -5.04794,-7.5 -7.94431,-15.4068 -16.79964,-32.09882 -23.2772,-43.87677 -3.59359,-6.53411 -6.58289,-12.82734 -6.6429,-13.98496 -0.0721,-1.39099 1.13204,-2.9105 3.5508,-4.48075 l 3.6599,-2.37599 -1.01508,-2.91188 c -0.5583,-1.60153 -1.82525,-3.34545 -2.81545,-3.87539 -0.9902,-0.52994 -9.92364,-0.95441 -19.85208,-0.94328 l -18.05173,0.0203 -2.04273,2.86875 c -2.50376,3.51621 -2.59294,5.05883 -0.29273,5.06375 0.9625,0.002 3.2125,0.89544 5,1.9853 l 3.25,1.98156 -0.0564,42.7647 -0.0564,42.7647 -1.19356,3.47854 c -1.18471,3.45276 -2.35229,4.17126 -8.94356,5.50366 -3.28463,0.66398 -3.47592,2.32523 -0.67742,5.88294 l 2.07258,2.63486 h 17.31241 17.31241 l 1.61501,-2.46482 C 291.27325,213.17953 292,211.67831 292,211.19913 c 0,-0.47917 -2.64692,-1.60714 -5.88204,-2.50658 -3.53716,-0.98342 -6.19444,-2.34439 -6.6657,-3.41395 -0.79571,-1.80595 -1.92583,-57.86229 -1.29589,-64.2786 l 0.34363,-3.5 2.59595,4 c 1.42777,2.2 5.20447,8.95 8.39265,15 3.18819,6.05 8.37836,15.725 11.53372,21.5 12.23702,22.39642 13.37444,25.52162 10.9425,30.06574 -0.56935,1.06384 -1.8928,1.93426 -2.94099,1.93426 -2.96173,0 -3.34326,1.74266 -1.078,4.92392 l 2.07229,2.91027 18.96947,0.0747 18.96948,0.0748 1.53687,-2.97199 z m -176.82035,-3.15578 c 2.20873,-1.83308 1.50162,-4.71397 -1.54355,-6.28868 -4.5717,-2.36412 -11.58523,-10.90055 -14.16175,-17.2368 L 154.59745,182.5 154.21774,164.75 C 154.0089,154.9875 153.52701,147 153.14686,147 c -0.38014,0 -2.3687,1.38276 -4.41902,3.0728 L 145,153.14561 v 16.40414 16.40414 l -2.44747,1.60365 C 139.68544,189.43613 134,197.93185 134,200.33755 V 202 h -8.39301 -8.39301 l -0.57052,-1.48674 c -0.31378,-0.81771 -0.59344,-20.54983 -0.62146,-43.84916 l -0.051,-42.36242 2.76447,-2.79084 c 1.52047,-1.53496 4.22698,-3.40888 6.01448,-4.16426 3.67941,-1.55488 3.86736,-2.25206 1.72432,-6.39624 L 124.94864,98 H 107.52521 90.101783 l -2.730557,3.57994 -2.730556,3.57995 1.429665,0.90474 c 0.786316,0.49761 1.992165,0.91164 2.679665,0.92006 C 89.4375,106.99311 90.9,107.9 92,109 l 2,2 v 43.27749 43.2775 l -1.566082,2.23589 c -0.861344,1.22974 -3.336344,3.13902 -5.5,4.24283 C 84.770263,205.13753 83,206.51109 83,207.08607 c 0,1.29687 2.034794,5.23837 3.053055,5.91393 1.614262,1.07097 85.283125,-0.0341 86.620535,-1.14407 z M 209.74576,208 c 5.92601,-6.79746 9.39482,-13.43559 11.38417,-21.7855 0.98816,-4.1476 2.29018,-8.03011 2.89336,-8.62779 L 225.12,176.5 l -0.53412,7.64614 c -0.29376,4.20537 -1.06886,8.81977 -1.72244,10.25422 -1.41352,3.10235 -0.44352,4.51227 1.93452,2.81188 0.93612,-0.66936 2.68403,-1.6432 3.88425,-2.1641 l 2.1822,-0.94709 -1.14617,-3.03656 -1.14617,-3.03656 1.21396,-1.21396 L 231,185.6 l 1.1645,1.1645 c 0.64048,0.64048 1.24028,2.19298 1.33288,3.45 0.0926,1.25703 0.69359,2.2405 1.3355,2.1855 0.64192,-0.055 2.29212,-0.1675 3.66712,-0.25 1.375,-0.0825 2.5,-0.52037 2.5,-0.97304 0,-0.45267 -1.97447,-3.94017 -4.38771,-7.75 -2.41324,-3.80983 -4.69356,-7.93946 -5.06739,-9.17696 L 230.86522,172 h 14.64072 14.64071 l -0.33824,-1.75 -0.33824,-1.75 h -15.2359 c -8.37975,0 -15.23554,-0.28765 -15.23509,-0.63922 4.5e-4,-0.35156 0.9017,-1.70156 2.00279,-3 1.37472,-1.62111 1.81117,-1.81248 1.39301,-0.61078 L 231.78602,166 H 235.89301 240 v -2.09362 c 0,-1.24867 -0.80263,-2.30351 -1.98875,-2.61369 C 235.45066,160.62308 236.4284,159 239.39235,159 c 2.88268,0 3.87501,0.97293 2.58172,2.53124 -1.55127,1.86917 -0.0346,4.46876 2.60724,4.46876 1.59574,0 2.8516,-0.93647 3.85313,-2.87322 0.81719,-1.58026 1.19905,-3.15995 0.84859,-3.51041 -0.35046,-0.35046 0.77594,-0.35458 2.5031,-0.009 1.72716,0.34543 4.28184,0.34154 5.67708,-0.009 L 260,158.9619 V 156.48095 154 h -6.5 c -3.575,0 -6.5,0.42659 -6.5,0.94798 0,0.57557 -1.17854,0.53714 -3,-0.0978 -2.0876,-0.72775 -3.9124,-0.72775 -6,0 -1.82146,0.63496 -3,0.67339 -3,0.0978 C 235,154.42659 231.86383,154 228.03073,154 h -6.96927 l -3.38265,-5.25 c -1.86046,-2.8875 -4.5511,-6.40294 -5.97919,-7.81209 l -2.59653,-2.56209 2.97855,-4.43791 c 1.6382,-2.44085 3.89484,-6.46291 5.01475,-8.93791 l 2.0362,-4.5 -0.68193,-6.89087 -0.68194,-6.89087 -3.13436,-3.39379 c -7.71848,-8.35735 -18.69865,-4.031394 -21.48333,8.46398 l -0.95571,4.28845 1.34242,5.71155 c 1.501,6.38628 3.76202,11.38551 5.98301,13.22877 2.20137,1.82698 1.89419,2.68574 -2.93568,8.20701 -2.42821,2.77581 -6.10374,8.464 -8.16784,12.64042 l -3.75291,7.5935 -0.8493,9.52093 c -0.46711,5.2365 -0.58663,11.03437 -0.2656,12.88415 1.1625,6.69835 5.79748,14.57983 12.6178,21.45575 l 6.76384,6.81898 1.4458,-0.81898 c 0.7952,-0.45044 3.2112,-2.84398 5.3689,-5.31898 z m -8.76075,-5.02105 c -5.48348,-7.70084 -8.51644,-22.78663 -6.9625,-34.63106 1.28898,-9.8248 5.33172,-21.39259 8.52463,-24.39218 l 2.4319,-2.28465 2.11638,1.91447 c 3.42885,3.10173 12.5264,16.85735 14.40876,21.78624 1.71962,4.50275 1.5259,7.62823 -0.4728,7.62823 -0.56726,0 -1.04126,-0.7875 -1.05334,-1.75 -0.0511,-4.06866 -3.89923,-10.24478 -7.43329,-11.93005 l -3.56116,-1.6982 -2.7418,2.04366 c -4.09804,3.05456 -6.38285,7.68901 -7.20823,14.62097 -0.89643,7.52862 0.56845,12.5983 4.2419,14.68045 l 2.58786,1.46684 2.10537,-1.90533 c 2.6422,-2.39116 2.25428,-4.7675 -0.8998,-5.51208 C 204.01659,182.29571 203.11284,180 205.88148,180 c 1.12649,0 2.56742,-0.97026 3.20208,-2.15613 l 1.15393,-2.15613 -1.97377,-1.59387 c -1.08557,-0.87663 -2.27421,-2.44478 -2.64143,-3.48477 C 204.74784,168.13255 207.48514,164 210,164 c 3.30178,0 5.30369,4.47181 5.74555,12.83431 l 0.40505,7.66569 -2.04906,5.83027 C 212.09658,196.03509 205.66181,206 203.98293,206 c -0.46571,0 -1.81477,-1.35947 -2.99792,-3.02105 z m 24.45363,-40.29617 c -0.84249,-2.17407 0.57808,-3.90852 2.31965,-2.83217 l 1.24156,0.76733 -1.4285,1.94103 -1.42851,1.94103 z m -21.80288,-32.42026 c -0.79719,-1.54158 -1.92263,-5.36266 -2.50099,-8.49129 l -1.05156,-5.68843 1.46626,-4.93743 c 2.14453,-7.22143 6.3448,-8.02578 8.45894,-1.61989 1.87344,5.67659 -0.75994,20.96686 -3.95067,22.93884 -0.53491,0.33059 -1.6248,-0.66022 -2.42198,-2.2018 z m 148.90443,78.67245 c 0.36202,-0.58576 0.60379,-19.82326 0.53726,-42.75 L 352.95649,124.5 l 2.07163,-3.35618 2.07163,-3.35618 2.99415,0.43945 c 1.64679,0.2417 3.21773,0.0777 3.491,-0.36445 0.76791,-1.24252 -2.37692,-6.68097 -4.52951,-7.833 -2.85453,-1.52769 -3.33557,-1.28211 -2.67147,1.36388 l 0.60073,2.39352 -2.52334,0.63332 c -1.38784,0.34832 -3.40771,2.08374 -4.48859,3.85648 l -1.96524,3.22316 -0.004,42.31574 c -0.002,27.26419 0.36447,43.00375 1.03144,44.25 1.15041,2.14956 2.50596,2.48573 3.50501,0.86923 z M 286.9682,181.25 l -0.0318,-23.75 -1.32844,-1.75 c -0.73064,-0.9625 -1.61633,-1.75 -1.96819,-1.75 -1.10537,0 -0.72685,46.96876 0.39542,49.06574 2.50147,4.67404 2.96388,1.23462 2.93302,-21.81574 z m -160.69365,17.47692 c 0.26869,-0.70019 0.29796,-18.58769 0.065,-39.75 L 125.91611,120.5 l 2.00171,-3.20801 2.00171,-3.20801 4.73661,-1.38113 c 2.60514,-0.75962 4.87935,-1.80933 5.0538,-2.33268 0.17445,-0.52335 -1.32641,-2.50824 -3.33526,-4.41086 l -3.65244,-3.45931 0.53615,2.21518 0.53616,2.21518 -4.39171,2.57371 c -2.41543,1.41554 -5.08923,3.92258 -5.94176,5.5712 l -1.55007,2.99749 0.0303,40.0361 c 0.0166,22.01986 0.28822,40.45348 0.60351,40.96362 0.83463,1.35047 3.16165,1.13487 3.72975,-0.34556 z m 243.36818,-18.30442 1.68885,-2.57749 -0.93882,-2.67251 -0.93881,-2.6725 -3.94952,-1.2971 c -2.17224,-0.7134 -5.53688,-1.1634 -7.47698,-1 L 354.5,170.5 l -0.31955,2.25 c -0.33753,2.37658 0.14611,2.57244 5.60868,2.27133 l 3.28913,-0.18131 -0.64698,2.57776 c -0.92019,3.66631 0.11436,5.58222 3.01428,5.58222 1.59218,0 3.12517,-0.94141 4.19717,-2.5775 z m -287.250292,-5.30365 1.702414,-1.88114 -1.653372,-1.65337 -1.653372,-1.65337 -1.556675,1.28451 -1.556676,1.28452 0.491991,-1.5 0.49199,-1.5 6.234447,-0.29937 6.234446,-0.29938 -0.324154,-1.70062 L 90.479323,165.5 83.64965,165.20226 c -7.448331,-0.32471 -8.951888,0.35738 -10.485539,4.75682 l -0.991065,2.84297 1.470181,2.09897 c 1.852744,2.64517 6.448946,2.7596 8.749211,0.21783 z M 377,173.02044 v -2.86153 l 3.05748,-0.67154 3.05749,-0.67153 -0.30749,-2.15792 c -0.20431,-1.43385 -1.3689,-2.47078 -3.47077,-3.09032 l -3.16329,-0.9324 0.16329,-2.45839 c 0.21919,-3.3 -2.09192,-3.95086 -3.24643,-0.91426 -1.02531,2.69677 -5.26567,4.81819 -9.09028,4.54782 -5.6211,-0.39738 -9.08334,0.24324 -9.6771,1.79055 -0.88174,2.29778 1.5852,3.55162 5.96256,3.03052 6.03189,-0.71806 10.57796,1.02275 12.88586,4.93435 2.29545,3.89051 3.82868,3.67212 3.82868,-0.54535 z m -196.75,-1.62128 c 1.04074,-0.31754 1.75,-1.51985 1.75,-2.96655 V 166 h -8.03138 -8.03139 l -0.5756,1.5 c -1.23417,3.21619 0.33256,4.21207 6.80218,4.32374 3.48491,0.0602 7.12369,-0.13091 8.08619,-0.42458 z M 143.5,168.5 v -2 l -7.25,-0.29381 -7.25,-0.29381 v 2.58762 2.58762 l 7.25,-0.29381 7.25,-0.29381 z m -71.317631,-3 2.971082,-2.5 H 83.076725 91 v -1.93261 c 0,-2.45173 -1.949911,-3.02728 -9.796799,-2.89169 l -6.296798,0.10881 -2.757921,-2.64225 C 70.631626,154.18901 68.816931,153 68.115826,153 h -1.274737 l 0.682489,3.10735 0.682489,3.10735 -1.734701,-0.97079 C 64.371791,157.06893 59,158.82335 59,160.68405 c 0,2.03319 3.865671,3.50208 7.308652,2.77717 L 69.5,162.78929 68.25,164.09465 C 66.703113,165.71003 66.618468,168 68.105644,168 c 0.608104,0 2.442631,-1.125 4.076725,-2.5 z M 324.6404,162.39305 c -0.32742,-2.38878 -2.74296,-8.46597 -5.36786,-13.50486 -12.40765,-23.81838 -15.19285,-29.51687 -15.23119,-31.16294 -0.0232,-0.9961 1.0555,-2.19177 2.45865,-2.72525 3.01759,-1.14729 3.19722,-3.30278 0.5,-6 -2.51019,-2.51019 -4,-2.55302 -4,-0.11501 0,1.03674 -1.125,2.62212 -2.5,3.52305 -1.67214,1.09563 -2.49119,2.54107 -2.47339,4.36501 0.0146,1.49982 4.30328,10.82695 9.53032,20.72695 5.22704,9.9 10.92413,20.7871 12.6602,24.19357 3.53626,6.93877 5.31705,7.22038 4.42327,0.69948 z M 260,163.44521 v -2.55479 l -4.64079,0.30479 -4.64079,0.30479 -0.82698,2.25 -0.82699,2.25 H 254.53222 260 Z m -116.3229,-1.04613 c 0.94174,-2.45415 -1.58836,-3.42936 -8.1771,-3.15182 l -6,0.25274 -0.31955,2.25 -0.31955,2.25 h 7.10093 7.10094 z m 39.59226,0.35092 c 1.07414,-3.07935 -0.50276,-3.75 -8.81733,-3.75 -8.30892,0 -10.15625,0.72245 -9.07203,3.54789 L 165.93723,164 h 8.44805 c 5.85923,0 8.58167,-0.38305 8.88408,-1.25 z m 183.65167,-2.01474 c 1.33157,-0.67939 2.83637,-2.48718 3.34402,-4.0173 l 0.92298,-2.78205 -1.61707,-2.46795 C 366.96818,147.49561 361,148.66707 361,153.15031 c 0,0.96267 0.7875,2.20899 1.75,2.76959 l 1.75,1.01928 -4.69098,0.0304 c -4.83823,0.0314 -6.39609,1.05816 -5.42902,3.5783 0.70184,1.82896 9.07832,1.95411 12.54103,0.18737 z M 185.5,155.5 v -2 l -9.41035,-0.28965 c -9.57692,-0.29477 -11.83999,0.39192 -10.73984,3.25885 l 0.61537,1.60364 9.76741,-0.28642 L 185.5,157.5 Z m -41.68045,-0.75 -0.31955,-2.25 -6.59261,-0.2921 -6.59262,-0.2921 -1.24347,1.49829 c -2.17939,2.626 -0.15639,3.58591 7.55727,3.58591 h 7.51053 z M 90.5,154 v -1.5 L 84.577849,152 c -3.257183,-0.275 -6.09538,-1.02709 -6.307104,-1.67131 -0.23583,-0.71757 0.342149,-0.98118 1.492007,-0.68048 1.032329,0.26996 2.439253,-0.18668 3.126498,-1.01476 l 1.249538,-1.50561 -1.104578,-2.06392 c -1.468183,-2.74332 -6.367018,-2.73111 -9.120868,0.0227 l -2.086658,2.08666 0.629299,2.66334 c 0.346115,1.46484 1.583294,3.46973 2.749289,4.45532 l 2.119989,1.79199 6.587369,-0.29199 L 90.5,155.5 Z"
     id="path22"
     inkscape:connector-curvature="0" />
</svg>
