<?xml version="1.0" encoding="UTF-8" standalone="no"?>
<!-- Created with Inkscape (http://www.inkscape.org/) -->

<svg
   xmlns:dc="http://purl.org/dc/elements/1.1/"
   xmlns:cc="http://creativecommons.org/ns#"
   xmlns:rdf="http://www.w3.org/1999/02/22-rdf-syntax-ns#"
   xmlns:svg="http://www.w3.org/2000/svg"
   xmlns="http://www.w3.org/2000/svg"
   xmlns:sodipodi="http://sodipodi.sourceforge.net/DTD/sodipodi-0.dtd"
   xmlns:inkscape="http://www.inkscape.org/namespaces/inkscape"
   version="1.1"
   id="svg2"
   width="182"
   height="130"
   viewBox="0 0 182 130"
   sodipodi:docname="Mobile_and_Ohio.svg"
   inkscape:version="0.92.3 (2405546, 2018-03-11)">
  <metadata
     id="metadata8">
    <rdf:RDF>
      <cc:Work
         rdf:about="">
        <dc:format>image/svg+xml</dc:format>
        <dc:type
           rdf:resource="http://purl.org/dc/dcmitype/StillImage" />
        <dc:title></dc:title>
      </cc:Work>
    </rdf:RDF>
  </metadata>
  <defs
     id="defs6" />
  <sodipodi:namedview
     pagecolor="#ffffff"
     bordercolor="#666666"
     borderopacity="1"
     objecttolerance="10"
     gridtolerance="10"
     guidetolerance="10"
     inkscape:pageopacity="0"
     inkscape:pageshadow="2"
     inkscape:window-width="948"
     inkscape:window-height="688"
     id="namedview4"
     showgrid="false"
     inkscape:zoom="1.8153846"
     inkscape:cx="91"
     inkscape:cy="65"
     inkscape:window-x="792"
     inkscape:window-y="189"
     inkscape:window-maximized="0"
     inkscape:current-layer="svg2" />
  <path
     style="fill:#000000"
     d="M 0,65 V 0 h 91 91 v 65 65 H 91 0 Z m 171.24685,1.55707 C 171.07898,29.459189 170.64612,10.399325 169.96189,9.9764472 168.00849,8.7691786 9.0096468,9.1748314 8.8925959,10.387382 8.5087904,14.363291 9.197044,121.50981 9.6106878,122.1791 c 0.2830519,0.45798 36.8239412,0.71755 81.2019762,0.5768 L 171.5,122.5 Z M 18.25,119.20228 12,118.90457 11.966646,88.702283 C 11.948302,72.091027 11.81349,48.825 11.667065,37 11.52064,25.175 11.562817,14.809307 11.760793,13.965127 12.080427,12.602188 20.85144,12.423026 90.060374,12.365735 L 168,12.301218 l 0.0803,14.599391 c 0.0442,8.029665 0.15667,32.149391 0.25,53.599391 l 0.16968,39 h -72 c -39.6,0 -74.8125,-0.13397 -78.25,-0.29772 z M 116,112.39301 C 116,111.62686 115.1,111 114,111 c -1.88258,0 -2.71914,1.94753 -1.40223,3.26443 0.97314,0.97315 3.40223,-0.36299 3.40223,-1.87142 z m 30.375,1.80924 c 0.27117,-0.43876 0.0915,-1.44749 -0.39934,-2.24164 -0.67454,-1.09142 -1.17421,-1.16206 -2.04689,-0.28938 -0.63498,0.63498 -0.85216,1.64371 -0.48262,2.24164 0.78966,1.27769 2.23008,1.42001 2.92885,0.28938 z M 96.589356,111.5 c 0.705788,-2.81208 4.103154,-3.46489 5.059674,-0.97222 0.32245,0.84028 1.49427,2.01373 2.60405,2.60766 1.83034,0.97957 1.95832,0.84297 1.37768,-1.47047 -0.35206,-1.4027 -0.11021,-3.71336 0.53744,-5.13479 1.94559,-4.27011 -0.0333,-5.15548 -10.4182,-4.6611 -2.639885,0.12568 -2.75,0.34448 -2.75,5.46425 0,2.93334 0.3,5.63334 0.666667,6 1.283552,1.28356 2.300506,0.64564 2.922689,-1.83333 z m 0.41135,-6.25 c 3.89e-4,-0.4125 1.125389,-0.8149 2.5,-0.89421 1.374614,-0.0793 2.499294,0.25818 2.499294,0.75 0,0.49181 -1.125,0.89421 -2.5,0.89421 -1.375,0 -2.499682,-0.3375 -2.499294,-0.75 z M 128.5,112 c 0.34913,-1.1 1.3962,-2 2.32684,-2 0.93064,0 2.25413,0.9 2.94109,2 1.71968,2.75365 2.90373,2.50406 3.55797,-0.75 0.3041,-1.5125 0.84558,-3.92445 1.20329,-5.35989 0.76279,-3.06089 -1.03384,-3.85419 -8.77919,-3.87646 -5.13608,-0.0148 -4.99844,-0.21004 -4.92411,6.98635 0.0568,5.50018 -0.10391,5 1.60672,5 0.78794,0 1.71826,-0.9 2.06739,-2 z m 0.5,-6 c 0,-0.55 1.125,-1 2.5,-1 1.375,0 2.5,0.45 2.5,1 0,0.55 -1.125,1 -2.5,1 -1.375,0 -2.5,-0.45 -2.5,-1 z M 93.224998,93.825372 c 5.349734,-3.781046 5.602796,-13.82017 0.469926,-18.642251 -1.337052,-1.256095 -4.274657,-2.437908 -6.982367,-2.809041 -4.066913,-0.557433 -5.126076,-0.296052 -8.151659,2.011673 -3.767439,2.873566 -5.557239,7.392476 -4.9599,12.522817 0.575095,4.939291 2.035868,6.795864 6.637543,8.436 4.879897,1.739301 9.06952,1.249185 12.986457,-1.519198 z M 80.710193,89.75 c -1.673682,-1.251208 -2.165563,-3.238863 -1.868637,-7.551027 0.200268,-2.908422 6.226986,-5.767842 9.013525,-4.276531 4.586471,2.454604 5.796341,7.595275 2.614931,11.110694 -2.031011,2.244242 -7.208065,2.624499 -9.759819,0.716864 z m 72.902497,4.180353 C 159.96411,90.00496 160.18004,79.376536 154,74.866647 c -5.78712,-4.223149 -14.49436,-2.678922 -17.48307,3.10062 -5.89507,11.399807 6.20227,22.695633 17.09576,15.963086 z m -9.29732,-2.991475 c -4.80955,-1.818615 -5.78445,-8.638141 -1.69477,-11.855081 2.99178,-2.353339 6.68601,-1.976664 9.81477,1.000745 1.63164,1.552717 1.78858,2.425653 1,5.562444 -1.07044,4.257959 -5.32521,6.7268 -9.12,5.291892 z M 56.903341,93.18061 c 0.589648,-1.101768 0.899348,-15.794292 0.785183,-37.25 L 57.5,20.5 54.3657,20.195271 c -2.818161,-0.273993 -3.342336,0.129463 -5.196842,4 C 48.034459,26.562872 45.485488,34.35 43.504478,41.5 41.523467,48.65 39.398401,56.075 38.782109,58 l -1.12053,3.5 -0.861002,-3 C 36.327026,56.85 34.154069,48.669157 31.971783,40.320349 26.64071,19.925168 26.673441,20 23.083768,20 c -1.631154,0 -3.265913,0.485699 -3.632797,1.079331 -0.993736,1.607898 -1.535675,70.203646 -0.566865,71.750745 0.473941,0.756841 2.079081,1.18782 3.724401,1 L 25.5,93.5 26,75 c 0.275,-10.175 0.799387,-17.6 1.165305,-16.5 0.365917,1.1 2.090105,7.85 3.831529,15 4.010433,16.466181 4.949424,19.5 6.035405,19.5 0.482424,0 1.173539,-1.57997 1.535811,-3.511045 0.362272,-1.931075 1.0079,-3.726877 1.434729,-3.990672 0.426829,-0.263795 2.705795,-7.468472 5.064371,-16.010393 2.358575,-8.541921 4.588864,-15.044471 4.956199,-14.450111 0.367334,0.59436 0.536171,9.249095 0.375191,19.232746 -0.190922,11.840661 0.07918,18.600166 0.77683,19.440783 1.547182,1.864241 4.597487,1.581629 5.727971,-0.530698 z M 104.8075,90.241373 105.115,86 h 4.9425 c 5.29013,0 4.99068,-0.364466 5.34056,6.5 0.0662,1.299353 0.80259,2 2.10194,2 1.8483,0 2.01227,-0.720584 2.16175,-9.5 C 119.83,75.118575 118.89124,72.015451 116.36732,74.110114 115.61529,74.73424 115,76.539789 115,78.122445 115,80.908844 114.84161,81 110,81 c -5.16983,0 -5.75592,-0.675428 -5.05682,-5.827632 0.11525,-0.84936 -0.65261,-1.209604 -2.13152,-1 -2.20062,0.311894 -2.31575,0.735931 -2.39676,8.827632 -0.10183,10.170268 0.32156,12.195769 2.46439,11.789797 1.12876,-0.213848 1.71405,-1.594481 1.92821,-4.548424 z M 130.08758,85 c -0.21589,-9.837406 -0.83503,-11.694625 -3.55117,-10.652346 -1.35776,0.521023 -1.52997,2.082036 -1.14539,10.382782 0.24895,5.37326 0.48781,9.913362 0.53081,10.089115 0.043,0.175753 1.04479,0.175753 2.2262,0 2.04154,-0.303707 2.1377,-0.790577 1.93955,-9.819551 z m 9.01896,-19 c 2.43893,0 4.04879,-3.973366 3.24274,-8.003577 -0.46091,-2.304573 -1.32864,-3.196211 -3.72508,-3.827707 -3.97264,-1.046849 -6.58643,-0.390327 -6.75984,1.697915 -0.66106,7.960739 0.77185,11.79739 3.96743,10.622865 C 136.56427,66.220273 138.03791,66 139.10654,66 Z m -4.40877,-2.635568 C 134.31399,62.980661 134,61.377544 134,59.801949 c 0,-3.252721 2.26713,-4.655067 4.51273,-2.79138 1.6174,1.342319 2.05892,5.989431 0.56906,5.989431 -0.50502,0 -1.54102,0.238995 -2.30224,0.531099 -0.76121,0.292104 -1.69801,0.217104 -2.08178,-0.166667 z M 125.58936,63.5 c 0.7465,-2.974307 -0.22406,-7.5 -1.60841,-7.5 -0.53952,0 -0.99785,1.2375 -1.0185,2.75 l -0.0375,2.75 -3.41776,-3.994694 c -2.22808,-2.60419 -3.75002,-3.648453 -4.37229,-3 -1.52644,1.590688 -1.83303,9.745491 -0.38486,10.237059 0.85373,0.289791 1.25,-0.768737 1.25,-3.33903 v -3.763332 l 3.57792,4.179998 c 4.14331,4.840522 5.14774,5.121228 6.01144,1.679999 z M 101.39428,63.47731 C 103.67837,61.980718 107,62.353827 107,64.106989 107,64.598145 107.70532,65 108.56739,65 c 1.67427,0 1.4736,-1.368875 -1.13615,-7.75 -1.95085,-4.770045 -4.71651,-4.301957 -7.32111,1.239102 -3.132347,6.663774 -2.863993,7.706179 1.28415,4.988213 z M 103,58.5 c 0,-0.825 0.45,-1.5 1,-1.5 0.55,0 1,0.675 1,1.5 0,0.825 -0.45,1.5 -1,1.5 -0.55,0 -1,-0.675 -1,-1.5 z M 79.385121,42.911704 C 87.482763,36.542098 86.523567,25.405169 77.5,21.024151 73.36258,19.015399 69.106232,19.267227 64.372077,21.80087 c -2.663459,1.425441 -5.014828,6.269803 -4.798379,9.885769 0.09262,1.547349 0.226432,3.851228 0.297354,5.119732 0.07092,1.268504 1.579236,3.631004 3.351809,5.25 C 65.914818,44.515093 67.292815,45 71.588003,45 c 3.700558,0 5.886607,-0.585488 7.797118,-2.088296 z M 69.5,40.27639 C 66.399344,39.514238 65.118034,38.087017 64.044755,34.199919 63.176736,31.056212 63.365011,30.210228 65.578528,27.308157 67.652845,24.588587 68.776833,24 71.895904,24 c 4.455083,0 6.914688,2.226319 8.057463,7.293237 0.97463,4.321382 -0.212132,6.499108 -4.523374,8.300461 -1.851166,0.773466 -3.492709,1.354101 -3.647874,1.290301 C 71.626953,40.820198 70.6,40.546774 69.5,40.27639 Z m 37.67126,3.068622 c 2.00015,-1.81011 2.40553,-6.398745 0.82604,-9.350065 -0.67028,-1.252416 -0.67028,-2.079024 0,-2.493276 1.83697,-1.135311 1.11751,-7.087653 -1.09951,-9.096683 C 105.15386,20.824672 103.24164,20.5 95.677996,20.5 h -9.11758 L 86.505996,31 c -0.07822,15.091914 -0.841143,14 9.781893,14 7.022101,0 9.465131,-0.371501 10.883371,-1.654988 z M 92.120439,39.156814 C 90.588956,36.172305 91.954061,35 96.960889,35 c 8.642711,0 8.860341,4.180846 0.274423,5.271761 -3.332938,0.423479 -4.450437,0.179885 -5.114873,-1.114947 z M 92,27.5 c 0,-2.360349 0.303934,-2.5 5.440983,-2.5 2.992537,0 5.731277,0.469712 6.086087,1.043805 C 104.84564,28.177285 101.78204,30 96.877555,30 92.341496,30 92,29.824965 92,27.5 Z m 25.7843,5.50282 C 118.07521,21.405057 117.58594,19.454189 114.66722,20.574206 113.24692,21.119227 113,22.888952 113,32.523655 c 0,11.13842 0.48497,12.809702 3.5,12.061531 0.57179,-0.141888 1.12174,-5.101578 1.2843,-11.582366 z m 23.53981,10.594946 C 142.13558,41.483108 141.12543,41 135.89235,41 c -2.65221,0 -5.10616,-0.536932 -5.5209,-1.20799 -0.41061,-0.664395 -0.77993,-4.922153 -0.8207,-9.461685 -0.0752,-8.370241 -0.99077,-10.912478 -3.39504,-9.426559 -0.97058,0.599853 -1.32276,3.677129 -1.30968,11.443756 0.01,5.8428 0.30006,11.079843 0.64494,11.637875 1.01238,1.638065 15.18899,1.290989 15.83314,-0.387631 z M 163,43.5 c 0,-1.482592 -0.63244,-1.679337 -6.5,-2.022094 -1.65,-0.09638 -3.5625,-0.243345 -4.25,-0.326576 C 151.56141,41.067966 151,39.652624 151,38 c 0,-2.602348 0.36451,-3.00203 2.75,-3.015313 3.70868,-0.02065 5.68455,-1.409887 4.90278,-3.447144 -0.35126,-0.915369 -1.07114,-1.397018 -1.59973,-1.070331 -0.52859,0.326687 -2.10677,0.306426 -3.50706,-0.04503 C 151.70583,29.960337 151,29.120154 151,27.391592 151,25.201635 151.40469,25 155.8,25 c 4.73792,0 7.2,-1.238476 7.2,-3.621745 0,-0.855401 -2.38113,-1.237305 -7.94098,-1.273638 -9.33533,-0.06101 -8.94247,-0.600868 -8.88197,12.20547 C 146.23957,45.546061 145.85489,45 155.11663,45 161.4574,45 163,44.706484 163,43.5 Z"
     id="path3723"
     inkscape:connector-curvature="0" />
</svg>
