<?xml version="1.0" encoding="UTF-8" standalone="no"?>
<!-- Created with Inkscape (http://www.inkscape.org/) -->

<svg
   xmlns:dc="http://purl.org/dc/elements/1.1/"
   xmlns:cc="http://creativecommons.org/ns#"
   xmlns:rdf="http://www.w3.org/1999/02/22-rdf-syntax-ns#"
   xmlns:svg="http://www.w3.org/2000/svg"
   xmlns="http://www.w3.org/2000/svg"
   xmlns:sodipodi="http://sodipodi.sourceforge.net/DTD/sodipodi-0.dtd"
   xmlns:inkscape="http://www.inkscape.org/namespaces/inkscape"
   version="1.1"
   id="svg2"
   width="202"
   height="202"
   viewBox="0 0 202 202"
   sodipodi:docname="Tennessee_Alabama_Georgia.svg"
   inkscape:version="0.92.3 (2405546, 2018-03-11)">
  <metadata
     id="metadata8">
    <rdf:RDF>
      <cc:Work
         rdf:about="">
        <dc:format>image/svg+xml</dc:format>
        <dc:type
           rdf:resource="http://purl.org/dc/dcmitype/StillImage" />
        <dc:title></dc:title>
      </cc:Work>
    </rdf:RDF>
  </metadata>
  <defs
     id="defs6" />
  <sodipodi:namedview
     pagecolor="#ffffff"
     bordercolor="#666666"
     borderopacity="1"
     objecttolerance="10"
     gridtolerance="10"
     guidetolerance="10"
     inkscape:pageopacity="0"
     inkscape:pageshadow="2"
     inkscape:window-width="1048"
     inkscape:window-height="851"
     id="namedview4"
     showgrid="false"
     inkscape:zoom="2.3366337"
     inkscape:cx="109.33106"
     inkscape:cy="101"
     inkscape:window-x="361"
     inkscape:window-y="107"
     inkscape:window-maximized="0"
     inkscape:current-layer="svg2" />
  <path
     style="fill:#000000"
     d="m 100.15539,187.02615 c -4.304702,-3.80106 -4.305677,-5.95829 -10e-4,-2.57235 1.47813,1.1627 3.09625,2.114 3.59582,2.114 0.52596,0 0.69773,-6.20887 0.40805,-14.75 -0.27515,-8.1125 -0.51957,-17.5625 -0.54317,-21 -0.0319,-4.64913 -0.39901,-6.25 -1.4332,-6.25 -0.76466,0 -7.402155,2.0532 -14.749992,4.56267 -7.347997,2.50947 -14.934864,5.03126 -16.859864,5.60397 -1.925,0.57271 -3.972327,1.42477 -4.549614,1.89347 -0.577288,0.46869 -2.888088,1.14615 -5.135111,1.50547 l -4.085497,0.65329 -3.007447,-7.85943 c -1.654096,-4.32269 -3.812976,-10.44694 -4.797511,-13.60944 -0.984536,-3.1625 -2.154462,-5.75 -2.599836,-5.75 -2.601975,0 -5.63476,4.50759 -6.275522,9.32723 -2.032004,15.28419 -2.059625,15.08024 2.580166,19.05173 6.659376,5.70018 22.08502,12.12061 36.370372,15.138 2.81277,0.59412 15.503249,5.32531 16.416667,6.12037 0.229166,0.19947 0.156394,0.62294 -0.161717,0.94105 -0.318111,0.31811 -3.655611,-0.52071 -7.416667,-1.86404 -3.761056,-1.34334 -8.638283,-2.76607 -10.838283,-3.16163 -10.339998,-1.85912 -28.592153,-9.67041 -34.293886,-14.6766 -4.217922,-3.70339 -5.856703,-2.13517 -1.747955,1.67269 2.668711,2.47328 2.661078,4.4512 -0.01718,4.4512 -0.792541,0 -1.440983,-0.47236 -1.440983,-1.04969 0,-2.21174 -3.45712,0.9523 -4.533495,4.14917 -1.720594,5.11022 -3.91936,5.13398 -3.103767,0.0335 0.567728,-3.55033 0.408652,-4.13298 -1.128414,-4.13298 -4.986999,0 -8.755986,-5.64986 -9.774504,-14.65237 -0.647468,-5.72286 -0.530483,-6.19756 2.330312,-9.45582 l 3.012003,-3.43048 -2.340389,-6.98067 c -3.412179,-10.17748 -3.174533,-23.70243 0.531739,-30.2624 0.533933,-0.94505 1.623965,-4.193263 2.422293,-7.218264 0.798328,-3.025 2.136615,-7.299999 2.973971,-9.5 0.854523,-2.245103 1.541722,-7.316925 1.566358,-11.560385 0.04976,-8.570048 -2.537601,-16.564085 -7.86931,-24.313459 -2.813103,-4.088705 -2.982382,-4.732922 -1.665603,-6.338707 1.439561,-1.755516 17.73102,-22.479991 18.165395,-23.108322 0.122004,-0.17648 3.527432,0.697615 7.567618,1.942433 15.8179,4.87364 34.831978,1.780139 47.524028,-7.731934 3.4336,-2.573316 4.511015,-2.45676 10.321761,1.11662 7.84599,4.824968 29.71836,6.436682 41.17596,3.034142 7.07422,-2.100818 8.21163,-1.899132 2.8942,0.5132 -2.43641,1.105315 -8.8797,2.53175 -14.31841,3.169857 -11.23237,1.317858 -20.89652,0.202732 -28.00425,-3.231352 -7.354776,-3.553442 -7.06589,-4.392988 -6.28235,18.257397 0.38527,11.137219 0.78236,20.331353 0.88242,20.43141 0.10005,0.100057 6.47528,-1.970556 14.16717,-4.601361 7.69189,-2.630807 18.48526,-6.258886 23.98526,-8.0624 5.5,-1.803513 10.78139,-3.670171 11.73643,-4.148127 2.95931,-1.481012 5.76357,-1.02804 5.76357,0.930988 0,0.99 0.40011,2.2275 0.88913,2.75 0.99732,1.065593 9.03148,25.588519 9.25337,28.244356 0.0784,0.938104 0.47726,-2.358838 0.8864,-7.326539 0.75598,-9.179013 2.43928,-15.54488 5.90875,-22.345593 1.82077,-3.569006 1.83436,-3.919448 0.24503,-6.316672 -0.92547,-1.395916 -2.67547,-3.610723 -3.88888,-4.921791 -5.44762,-5.886065 -12.48832,-15.022575 -11.97338,-15.537515 0.82464,-0.824636 11.11107,9.157928 16.7916,16.295547 4.52969,5.691595 6.10549,9.358207 4.02187,9.358207 -0.47636,0 -2.35358,3.262501 -4.17158,7.25 -3.00762,6.596725 -3.31253,8.151069 -3.38389,17.25 -0.0564,7.191013 0.37195,10.983146 1.52488,13.5 7.35241,16.050264 9.13935,22.604264 9.24182,33.896384 0.10117,11.14834 -1.38433,18.02038 -5.6068,25.93745 -5.78452,10.84588 -10.93793,16.74541 -19.63632,22.47933 -7.29405,4.80819 -10.99054,6.43167 -22.102,9.70709 -10.10333,2.97825 -20.11794,8.33061 -25.48242,13.6192 -2.43272,2.3983 -4.78188,4.34182 -5.22035,4.31892 -0.43848,-0.0229 -2.55972,-1.5979 -4.71387,-3.50002 z M 35.781884,159.896 c 0.348817,-2.98787 -0.536269,-6.00626 -2.148857,-7.3282 -0.335464,-0.275 -1.723149,-2.6375 -3.083746,-5.25 -2.729123,-5.24022 -3.426448,-5.64769 -4.912684,-2.87064 -1.981973,3.70335 -1.533833,12.62528 0.825939,16.44347 3.557814,5.75666 8.593921,5.21917 9.319348,-0.99463 z m 41.998563,-9.68371 c 10.610373,-3.49554 24.916583,-8.18724 31.791583,-10.426 12.61755,-4.10876 19.12935,-6.3584 31,-10.70962 3.575,-1.31042 9.875,-3.5794 14,-5.04218 4.125,-1.46278 9.75,-3.49302 12.5,-4.51164 2.75,-1.01863 6.2375,-2.10879 7.75,-2.4226 2.93969,-0.60991 3.47765,-2.55569 1.86218,-6.7354 -0.48829,-1.26338 -2.10425,-6.34705 -3.59101,-11.297054 -4.94277,-16.456396 -13.03278,-40.107717 -14.70828,-43 -0.63724,-1.1 -1.7019,-3.799999 -2.36592,-6 -1.10833,-3.672024 -1.48455,-3.992382 -4.58847,-3.907103 -3.32713,0.09141 -14.99997,3.238106 -21.8585,5.89248 -4.32193,1.672666 -18.45136,6.06425 -22.46531,6.982471 -1.63092,0.373084 -4.78092,1.501703 -7,2.508041 -2.219075,1.006337 -7.409686,2.810978 -11.534686,4.010314 -4.125,1.199333 -8.175,2.430681 -9,2.736329 -0.825,0.305645 -6.45,2.342985 -12.5,4.527418 -6.05,2.184434 -13.25,4.788523 -16,5.786864 -2.75,0.998341 -7.475,2.71221 -10.5,3.808598 -3.20131,1.160291 -5.64089,2.68393 -5.837103,3.64556 -0.185407,0.90867 0.568055,3.98243 1.67436,6.830579 1.106306,2.848146 2.984592,8.553453 4.17397,12.678453 2.566984,8.90281 6.020059,18.10378 7.318243,19.5 0.577387,0.62099 0.706665,-0.74001 0.341091,-3.59093 -0.552693,-4.31017 0.389115,-6.90907 2.503759,-6.90907 1.133388,0 3.82568,5.57023 3.82568,7.91516 0,1.10796 -0.889687,2.49062 -1.977082,3.07257 -4.62516,2.47532 -4.443388,4.59607 1.929551,22.51227 1.173838,3.3 2.325615,6.5625 2.559506,7.25 0.23389,0.6875 0.645665,1.25 0.915054,1.25 0.269389,0 9.171012,-2.85998 19.781384,-6.35551 z m 4.791587,-8.5627 c 0,-3.87636 4.48898,-5.60738 6.926114,-2.67082 1.272881,1.53373 -0.161112,3.17986 -1.857016,2.13174 -0.511996,-0.31644 -1.213553,-0.11799 -1.559017,0.44098 -0.782907,1.26677 -3.510081,1.34299 -3.510081,0.0981 z m -10,-3.67742 c 0,-0.3276 0.970667,-1.9588 2.157037,-3.62491 2.00791,-2.81985 2.068137,-3.3836 0.871158,-8.15437 -0.707234,-2.8188 -1.733,-5.68759 -2.279482,-6.37509 -0.546481,-0.6875 -0.601002,-1.25689 -0.121158,-1.26531 0.479845,-0.008 0.201183,-0.4397 -0.619247,-0.95839 -0.820431,-0.5187 -2.507931,-0.68802 -3.75,-0.37628 -2.808009,0.70476 -2.830286,0.0426 -0.121819,-3.62076 2.057578,-2.78302 2.076046,-3.04082 0.5,-6.97974 -1.933122,-4.83136 -2.088265,-8.197748 -0.453156,-9.832857 3.661805,-3.661805 -4.697329,-1.669861 -8.946577,2.131929 -1.551548,1.388168 -2.586865,1.701298 -3.292382,0.995779 -0.705517,-0.705517 -0.544123,-1.431664 0.513244,-2.309201 0.84831,-0.704035 1.544532,-1.787463 1.54716,-2.407619 0.0026,-0.620154 1.506485,-2.762441 3.341906,-4.760638 2.404062,-2.617265 4.989044,-4.104309 9.245223,-5.318436 3.249451,-0.926945 7.84408,-2.606071 10.210287,-3.731391 2.366206,-1.12532 4.576017,-1.772213 4.910689,-1.43754 1.455074,1.455075 -6.911389,12.999615 -8.421475,11.62045 -0.301105,-0.275 -1.219739,0.512501 -2.041408,1.75 -1.342941,2.022578 -1.330001,2.25 0.128028,2.25 0.892085,0 1.621972,0.734002 1.621972,1.631113 0,0.897113 1.755772,6.634621 3.901716,12.750001 6.19165,17.64461 5.714558,16.7533 8.582302,16.03355 3.359036,-0.84307 3.170468,0.37519 -0.734018,4.74217 -2.255496,2.52266 -5.163726,4.27883 -9.503982,5.73907 -6.837052,2.30027 -7.246018,2.38541 -7.246018,1.50847 z m 24.666667,-0.071 c -1.266114,-1.26611 -0.656104,-2.28743 2.269988,-3.80057 3.204511,-1.65716 6.063341,-1.139 6.063341,1.09894 0,2.17852 -6.688156,4.34677 -8.333329,2.70159 z m 4.751539,-0.94032 c 0.86999,-0.33384 1.58179,-1.00884 1.58179,-1.5 0,-1.43081 -2.64144,-1.02998 -3.999996,0.60699 -1.319754,1.59021 -0.340768,1.95173 2.418206,0.89301 z m 11.33179,-4.08238 c -0.9625,-0.25152 -1.75,-1.18932 -1.75,-2.08399 0,-1.2652 0.26667,-1.36001 1.2,-0.42668 1.86509,1.86509 4.92967,1.42016 5.51025,-0.8 0.58697,-2.24458 2.28975,-2.73167 2.28975,-0.65499 0,1.53995 -3.20038,4.71255 -4.57874,4.53899 -0.50669,-0.0638 -1.70876,-0.3218 -2.67126,-0.57333 z m -10.13031,-6.93152 c 0.33067,-1.31752 0.1509,-2.37915 -0.40287,-2.37915 -0.55,0 -1.29276,-1.2375 -1.65057,-2.75 -0.35781,-1.5125 -1.320636,-5.11755 -2.139603,-8.01122 -1.371751,-4.84682 -1.683496,-5.21242 -3.95784,-4.64159 -2.903151,0.72864 -3.039869,0.204 -0.826952,-3.17334 1.383706,-2.1118 1.443715,-2.93172 0.381671,-5.214817 -3.003721,-6.457166 -3.128137,-8.526449 -0.779167,-12.959037 1.238716,-2.3375 2.590483,-4.25 3.003928,-4.25 0.413444,0 0.753952,-0.5625 0.756684,-1.25 0.0027,-0.6875 1.085218,-2.599999 2.405523,-4.25 l 2.400556,-3 5.72509,4 c 5.70273,3.984381 5.73824,4.041 9.09335,14.5 1.85255,5.775001 3.36877,10.977984 3.36939,11.562174 6.2e-4,0.58419 0.91554,2.95481 2.03317,5.26803 1.75342,3.62916 2.29357,4.0659 3.93931,3.18513 3.16777,-1.69534 3.46702,0.72384 0.62143,5.02381 -2.61598,3.95302 -6.90138,6.05227 -8.69453,4.25912 -0.52543,-0.52543 -1.89846,-4.29498 -3.05119,-8.37679 -2.66201,-9.42618 -3.65671,-10.9066 -6.59707,-9.81853 -1.2375,0.45794 -2.24546,0.95961 -2.23992,1.11484 0.006,0.15522 1.55175,4.69489 3.43601,10.08816 2.38469,6.82567 3.06546,9.93007 2.23991,10.21434 -0.6523,0.22462 -3.09342,1.04507 -5.42472,1.82321 l -4.23872,1.41481 z m 5.94304,-29.68202 c 0.81976,-2.13627 -2.27272,-8.277093 -5.1018,-10.130779 -1.44895,-0.949388 -2.82522,-1.5354 -3.05837,-1.302247 -0.23315,0.233152 0.25589,2.350685 1.08676,4.705629 0.83088,2.354944 1.51068,5.125139 1.51068,6.15599 0,2.207756 4.74766,2.695439 5.56273,0.571407 z m 19.43727,30.30287 c 0,-0.55 -0.675,-1 -1.5,-1 -1.8032,0 -2.03411,-1.6264 -0.25,-1.7609 0.6875,-0.0518 2.24246,-0.39907 3.45546,-0.77165 2.06653,-0.63474 2.12952,-0.51381 1,1.91976 -1.20669,2.59983 -2.70546,3.49328 -2.70546,1.61279 z m 9,-4.21448 c 0,-1.67051 0.82058,-2.83837 2.54705,-3.625 3.42573,-1.56087 3.69087,-1.48549 2.95295,0.83948 -0.47133,1.48503 -0.1797,2 1.13261,2 2.74614,0 0.30707,1.86206 -3.41386,2.60625 -2.92844,0.58569 -3.21875,0.42147 -3.21875,-1.82073 z m 0.30987,-8.03552 c -0.44449,-0.6875 -1.99372,-5.075 -3.44274,-9.75 -2.30486,-7.436187 -2.89945,-8.460847 -4.75086,-8.187145 -2.38331,0.352335 -2.69087,-0.919923 -0.91125,-3.769533 0.98111,-1.571009 0.79342,-3.101426 -1.01013,-8.236432 -1.21832,-3.468791 -2.21058,-6.860655 -2.20501,-7.537476 0.0116,-1.415401 6.16587,-11.282313 8.48113,-13.597574 1.40544,-1.405434 2.07893,-1.252613 7.04153,1.597757 3.0181,1.733507 5.48746,3.775043 5.48746,4.536745 0,0.761703 -0.92253,2.680486 -2.05006,4.263963 -1.567,2.200637 -1.89423,3.709745 -1.38871,6.40437 0.74578,3.975381 1.11848,4.103816 5.99539,2.06611 1.92082,-0.802567 4.1535,-1.205519 4.96153,-0.895449 1.22418,0.469762 1.12119,1.052421 -0.61769,3.494459 -1.37073,1.925004 -1.7708,3.347548 -1.16585,4.145449 0.50655,0.668114 1.71237,3.356606 2.6796,5.974426 1.71754,4.648557 1.7104,4.83532 -0.30582,8 -1.13543,1.78218 -2.82351,4.68366 -3.7513,6.44773 -2.41452,4.59091 -11.15517,7.96907 -13.04722,5.0426 z m 10.25658,-11 c -0.99036,-3.341709 -1.40455,-5.117859 -1.48994,-6.38922 -0.0421,-0.626569 -1.00502,-2.201569 -2.13985,-3.5 l -2.06335,-2.360784 0.65501,4 c 0.36025,2.200001 1.26579,5.462504 2.01232,7.250004 1.55245,3.71726 4.07852,4.5521 3.02581,1 z m -5.56645,-16.846096 c 0,-0.602851 -0.71965,-3.640351 -1.59922,-6.75 -1.43183,-5.062154 -3.50844,-8.153908 -5.47665,-8.153908 -0.60596,0 1.5022,6.981284 4.15213,13.75 0.90536,2.312575 2.92374,3.109165 2.92374,1.153908 z M 37.691828,142.51707 c 0.267584,-5.04154 -1.021922,-7.53468 -2.58717,-5.00206 -0.357862,0.57904 -1.493776,1.05279 -2.524253,1.05279 -2.103468,0 -3.971724,4.17888 -2.141067,4.7891 0.622983,0.20766 1.132696,0.8331 1.132696,1.38986 0,0.55677 0.977977,2.38574 2.173282,4.06439 2.036641,2.8602 2.220157,2.92538 2.918839,1.03666 0.410057,-1.10849 0.87251,-4.40732 1.027673,-7.33074 z m -3.747016,-7.35059 c 3.706505,-1.63919 5.645058,-3.14674 6.108027,-4.75 0.373021,-1.29177 1.310607,-3.75229 2.083524,-5.46781 1.279695,-2.84034 1.175131,-3.77884 -1.169879,-10.5 -1.41635,-4.05948 -3.051468,-7.95765 -3.633595,-8.6626 -1.147675,-1.38983 -8.183221,-1.43183 -10.929573,-0.0653 -0.917795,0.45669 -2.003986,2.29659 -2.413757,4.08866 -0.700447,3.0633 -0.674869,13.06954 0.0482,18.85519 0.323296,2.58687 3.183375,8.90313 4.031444,8.90313 0.245193,0 2.889219,-1.08059 5.875611,-2.40132 z m 11.627222,-7.1577 c 0,-0.85746 -0.45,-1.2809 -1,-0.94098 -0.55,0.33992 -1,1.04148 -1,1.55902 0,0.51754 0.45,0.94098 1,0.94098 0.55,0 1,-0.70156 1,-1.55902 z m 5.604167,-10.17015 c -1.016516,-1.01651 -1.855248,0.51389 -1.021218,1.86338 0.630035,1.01942 0.865577,1.02021 1.204302,0.004 0.231595,-0.69479 0.149207,-1.53512 -0.183084,-1.86742 z M 175.59908,92.481825 c -1.11665,-2.427716 -1.77437,-3.289029 -1.46161,-1.914029 0.92894,4.08394 2.79441,8.420457 3.15584,7.336164 0.18482,-0.554458 -0.57759,-2.99442 -1.69423,-5.422135 z"
     id="path3723"
     inkscape:connector-curvature="0" />
</svg>
