<?xml version="1.0" encoding="UTF-8" standalone="no"?>
<!-- Created with Inkscape (http://www.inkscape.org/) -->

<svg
   xmlns:dc="http://purl.org/dc/elements/1.1/"
   xmlns:cc="http://creativecommons.org/ns#"
   xmlns:rdf="http://www.w3.org/1999/02/22-rdf-syntax-ns#"
   xmlns:svg="http://www.w3.org/2000/svg"
   xmlns="http://www.w3.org/2000/svg"
   xmlns:sodipodi="http://sodipodi.sourceforge.net/DTD/sodipodi-0.dtd"
   xmlns:inkscape="http://www.inkscape.org/namespaces/inkscape"
   version="1.1"
   id="svg2"
   width="120"
   height="120"
   viewBox="0 0 120 120"
   sodipodi:docname="Western_Railway_Alabama.svg"
   inkscape:version="0.92.3 (2405546, 2018-03-11)">
  <metadata
     id="metadata8">
    <rdf:RDF>
      <cc:Work
         rdf:about="">
        <dc:format>image/svg+xml</dc:format>
        <dc:type
           rdf:resource="http://purl.org/dc/dcmitype/StillImage" />
        <dc:title />
      </cc:Work>
    </rdf:RDF>
  </metadata>
  <defs
     id="defs6" />
  <sodipodi:namedview
     pagecolor="#ffffff"
     bordercolor="#666666"
     borderopacity="1"
     objecttolerance="10"
     gridtolerance="10"
     guidetolerance="10"
     inkscape:pageopacity="0"
     inkscape:pageshadow="2"
     inkscape:window-width="1853"
     inkscape:window-height="1145"
     id="namedview4"
     showgrid="false"
     showguides="true"
     inkscape:zoom="10.690571"
     inkscape:cx="63.8496"
     inkscape:cy="45.202738"
     inkscape:window-x="67"
     inkscape:window-y="27"
     inkscape:window-maximized="1"
     inkscape:current-layer="svg2">
    <inkscape:grid
       type="xygrid"
       id="grid4600" />
  </sodipodi:namedview>
  <path
     style="color:#000000;font-style:normal;font-variant:normal;font-weight:normal;font-stretch:normal;font-size:medium;line-height:normal;font-family:sans-serif;font-variant-ligatures:normal;font-variant-position:normal;font-variant-caps:normal;font-variant-numeric:normal;font-variant-alternates:normal;font-feature-settings:normal;text-indent:0;text-align:start;text-decoration:none;text-decoration-line:none;text-decoration-style:solid;text-decoration-color:#000000;letter-spacing:normal;word-spacing:normal;text-transform:none;writing-mode:lr-tb;direction:ltr;text-orientation:mixed;dominant-baseline:auto;baseline-shift:baseline;text-anchor:start;white-space:normal;shape-padding:0;clip-rule:nonzero;display:inline;overflow:visible;visibility:visible;opacity:1;isolation:auto;mix-blend-mode:normal;color-interpolation:sRGB;color-interpolation-filters:linearRGB;solid-color:#000000;solid-opacity:1;vector-effect:none;fill:#000000;fill-opacity:1;fill-rule:nonzero;stroke:none;stroke-width:1.29999995;stroke-linecap:butt;stroke-linejoin:miter;stroke-miterlimit:4;stroke-dasharray:none;stroke-dashoffset:0;stroke-opacity:1;color-rendering:auto;image-rendering:auto;shape-rendering:auto;text-rendering:auto;enable-background:accumulate"
     d="M 60.382812,9.375 9.6308594,60.255859 10.09375,60.714844 60.257812,110.49609 110.36328,59.873047 Z m -0.002,1.84375 L 108.53516,59.873047 60.25,108.65625 11.470703,60.251953 Z"
     id="path12"
     inkscape:connector-curvature="0" />
  <path
     style="color:#000000;font-style:normal;font-variant:normal;font-weight:normal;font-stretch:normal;font-size:medium;line-height:normal;font-family:sans-serif;font-variant-ligatures:normal;font-variant-position:normal;font-variant-caps:normal;font-variant-numeric:normal;font-variant-alternates:normal;font-feature-settings:normal;text-indent:0;text-align:start;text-decoration:none;text-decoration-line:none;text-decoration-style:solid;text-decoration-color:#000000;letter-spacing:normal;word-spacing:normal;text-transform:none;writing-mode:lr-tb;direction:ltr;text-orientation:mixed;dominant-baseline:auto;baseline-shift:baseline;text-anchor:start;white-space:normal;shape-padding:0;clip-rule:nonzero;display:inline;overflow:visible;visibility:visible;opacity:1;isolation:auto;mix-blend-mode:normal;color-interpolation:sRGB;color-interpolation-filters:linearRGB;solid-color:#000000;solid-opacity:1;vector-effect:none;fill:#000000;fill-opacity:1;fill-rule:nonzero;stroke:none;stroke-width:1.29999995;stroke-linecap:butt;stroke-linejoin:miter;stroke-miterlimit:4;stroke-dasharray:none;stroke-dashoffset:0;stroke-opacity:1;color-rendering:auto;image-rendering:auto;shape-rendering:auto;text-rendering:auto;enable-background:accumulate"
     d="M 60.382812,13.316406 13.316406,60.382812 13.779297,60.841797 60.255859,107.0625 106.93359,60.126953 Z m -0.002,1.841797 44.718751,44.96875 -44.847657,45.097657 -45.09375,-44.843751 z"
     id="path4526"
     inkscape:connector-curvature="0" />
  <path
     style="display:inline;fill:#000000;fill-opacity:1;stroke:none;stroke-width:1px;stroke-linecap:butt;stroke-linejoin:miter;stroke-opacity:1"
     d="M 60.253906 17.923828 L 17.796875 59.873047 L 60 102.71094 L 103.09375 60.253906 L 60.253906 17.923828 z M 54.783203 37.611328 L 54.792969 39.611328 L 52.806641 39.623047 L 52.890625 45.689453 L 51.091797 45.714844 L 51.005859 39.632812 L 49.041016 39.644531 L 49.03125 37.644531 L 54.783203 37.611328 z M 57.898438 37.664062 L 57.933594 40.521484 L 60.388672 40.517578 L 60.355469 37.746094 L 62.345703 37.722656 L 62.441406 45.833984 L 60.451172 45.857422 L 60.410156 42.392578 L 57.955078 42.394531 L 57.996094 45.775391 L 56.005859 45.798828 L 55.910156 37.6875 L 57.898438 37.664062 z M 66.222656 37.787109 L 66.222656 37.792969 L 69.03125 37.789062 L 69.035156 39.492188 L 66.242188 39.496094 L 66.261719 41.103516 L 67.896484 41.099609 L 67.900391 42.537109 L 66.279297 42.541016 L 66.296875 44.095703 L 69.851562 44.089844 L 69.853516 45.966797 L 64.34375 45.972656 L 64.34375 45.919922 L 64.328125 45.919922 L 64.232422 37.810547 L 64.496094 37.806641 L 64.496094 37.796875 L 65.546875 37.794922 L 66.222656 37.787109 z M 34.505859 50.939453 L 37.787109 60.560547 L 40.34375 51.091797 L 42.082031 51.560547 L 37.986328 66.722656 L 34.615234 56.839844 L 31.515625 67.171875 L 27.621094 51.589844 L 29.367188 51.154297 L 31.673828 60.378906 L 34.505859 50.939453 z M 66.769531 52 L 66.783203 52 L 66.798828 52.001953 C 67.29376 52.033627 67.809891 52.096837 68.386719 52.339844 C 68.921336 52.546195 69.312555 52.821792 69.416016 52.857422 L 69.671875 52.945312 L 69.837891 53.162109 C 70.232672 53.677314 70.597164 54.235848 70.755859 55.041016 C 70.923036 55.533932 71.165096 56.171677 71.097656 56.972656 L 71.095703 57.009766 L 71.087891 57.046875 C 71.006857 57.523503 70.96554 58.195004 70.591797 58.896484 L 70.578125 58.917969 L 70.566406 58.941406 C 70.247751 59.465146 69.91431 59.751237 69.445312 60.232422 L 69.433594 60.244141 L 69.421875 60.255859 C 68.973441 60.683503 68.458533 60.9379 67.923828 61.169922 C 67.351314 61.444894 66.854336 61.473137 66.648438 61.525391 C 66.318911 61.695016 66.071943 61.687339 65.851562 61.705078 C 65.840122 61.705999 65.839478 61.706149 65.828125 61.707031 L 65.820312 66.429688 L 64.019531 66.425781 L 64.042969 52.044922 L 65.416016 52.046875 C 65.845306 52.009028 66.285566 51.984634 66.769531 52 z M 81.707031 53.185547 L 81.751953 54.625 L 79.953125 54.679688 L 79.908203 53.242188 L 81.707031 53.185547 z M 66.689453 53.800781 C 66.388613 53.791955 66.111867 53.798725 65.841797 53.814453 L 65.830078 59.882812 C 65.915709 59.858638 65.955692 59.843707 65.830078 59.929688 L 65.939453 59.855469 L 66.068359 59.814453 C 66.602149 59.648078 67.091566 59.576838 67.148438 59.548828 L 67.167969 59.539062 L 67.189453 59.529297 C 67.659412 59.326153 67.962899 59.156263 68.171875 58.958984 C 68.647276 58.472321 68.832724 58.306867 69.005859 58.029297 C 69.151988 57.745893 69.212021 57.33196 69.300781 56.802734 C 69.32668 56.443687 69.20511 56.036276 69.033203 55.523438 L 69.013672 55.462891 L 69.001953 55.402344 C 68.915823 54.939629 68.765982 54.765196 68.474609 54.384766 C 68.173091 54.232088 67.827116 54.050462 67.728516 54.013672 L 67.710938 54.005859 L 67.693359 53.998047 C 67.338719 53.847691 67.13705 53.829511 66.689453 53.800781 z M 92.849609 53.837891 L 92.865234 56.041016 L 94.160156 56.074219 L 94.113281 57.873047 L 92.878906 57.841797 L 92.939453 66.152344 L 91.140625 66.164062 L 91.050781 53.849609 L 92.849609 53.837891 z M 58.746094 53.925781 L 58.759766 55.779297 L 60.263672 55.818359 L 60.216797 57.617188 L 58.773438 57.580078 L 58.835938 66.376953 L 57.027344 66.388672 L 56.9375 53.939453 L 58.746094 53.925781 z M 75.529297 55.585938 L 75.566406 55.595703 C 75.577546 55.59566 75.581283 55.595919 75.595703 55.595703 C 75.664916 55.594703 75.748524 55.590103 75.871094 55.595703 L 76.009766 55.601562 L 76.140625 55.650391 C 76.761556 55.877532 77.073182 56.215998 77.351562 56.414062 L 77.580078 56.576172 L 77.675781 56.839844 C 77.729219 56.987365 77.800921 57.095944 77.929688 57.332031 C 78.058454 57.568119 78.214387 57.907546 78.318359 58.359375 L 78.339844 58.455078 L 78.339844 58.550781 C 78.357094 59.965651 78.484088 60.143169 78.423828 61.167969 C 78.468446 62.45048 78.45509 63.141662 78.351562 63.875 L 78.34375 63.927734 L 78.330078 63.980469 C 78.205184 64.453194 78.120973 64.911681 77.839844 65.478516 L 77.832031 65.492188 L 77.824219 65.505859 C 77.638307 65.850394 77.319892 66.268206 76.792969 66.644531 L 76.775391 66.65625 L 76.757812 66.667969 C 76.361621 66.923661 75.925647 67.041181 75.427734 67.056641 L 75.425781 67.056641 L 75.423828 67.056641 C 74.929042 67.070394 74.398885 66.95801 73.943359 66.486328 C 73.556965 66.123877 73.368182 65.802181 73.208984 65.568359 C 73.207465 65.566459 73.208531 65.5644 73.207031 65.5625 C 72.831649 65.084931 72.625733 64.572583 72.505859 64.164062 L 72.5 64.140625 L 72.494141 64.117188 C 72.306228 63.319156 72.292818 62.826204 72.267578 62.21875 L 72.267578 62.214844 L 72.267578 62.212891 C 72.226388 61.079856 72.208301 61.060324 72.269531 59.943359 C 72.298381 59.157933 72.342438 58.702703 72.361328 58.482422 L 72.361328 58.480469 C 72.361328 58.480469 72.381243 58.236144 72.439453 57.943359 C 72.497667 57.650575 72.554415 57.304517 72.833984 56.902344 L 72.884766 56.830078 L 72.949219 56.767578 C 73.538426 56.201125 73.317001 56.363127 73.943359 55.845703 L 74.189453 55.642578 L 74.511719 55.640625 C 74.530825 55.640525 74.680268 55.631347 74.8125 55.623047 L 74.8125 55.613281 L 75.427734 55.589844 L 75.529297 55.585938 z M 86.433594 55.699219 C 86.671377 55.704446 86.886348 55.715903 87.072266 55.720703 L 87.099609 55.720703 L 87.126953 55.722656 C 87.528898 55.757396 87.860112 55.893254 88.183594 56.082031 C 88.493636 56.262965 88.786079 56.500766 89.013672 56.873047 C 89.274792 57.23127 89.403429 57.568012 89.480469 57.837891 L 89.515625 57.957031 L 89.515625 58.082031 C 89.529245 61.196756 89.555894 63.886024 89.527344 66.572266 L 87.728516 66.552734 C 87.756246 63.944207 87.730627 61.29954 87.716797 58.257812 C 87.686193 58.095295 87.75661 58.160134 87.5625 57.914062 L 87.521484 57.861328 L 87.488281 57.804688 C 87.502235 57.828989 87.406281 57.713099 87.275391 57.636719 C 87.1487 57.562781 86.993979 57.522531 86.980469 57.519531 C 86.64081 57.509831 86.323813 57.504172 86.017578 57.513672 C 85.779795 57.652918 85.591144 57.769773 85.527344 57.894531 C 85.340056 58.301436 85.440056 57.739588 85.416016 58.378906 C 85.450696 60.744529 85.386478 64.16638 85.392578 66.515625 L 83.59375 66.519531 C 83.5875 64.119814 83.650344 60.666263 83.615234 58.359375 L 83.615234 58.333984 L 83.617188 58.306641 C 83.644341 57.688628 83.63252 57.764418 83.867188 57.177734 L 83.878906 57.148438 L 83.894531 57.119141 C 84.231577 56.425898 84.830436 56.072345 85.308594 55.818359 L 85.474609 55.732422 L 85.660156 55.716797 C 85.935215 55.694987 86.19581 55.693991 86.433594 55.699219 z M 45.197266 55.878906 C 45.40777 55.884525 45.633471 55.917084 45.880859 56 L 45.890625 56.003906 L 45.900391 56.007812 C 45.801301 55.972152 45.936337 56.007259 46.115234 56.037109 C 46.294132 56.066959 46.546869 56.109425 46.835938 56.267578 L 46.929688 56.318359 L 47.007812 56.390625 C 47.246049 56.606256 47.369081 56.822769 47.431641 56.929688 L 47.525391 56.974609 L 47.648438 57.117188 C 47.872416 57.376623 47.990264 57.728037 48.027344 57.923828 C 48.064424 58.11962 48.067985 58.187342 48.109375 58.308594 L 48.169922 58.486328 L 48.154297 58.675781 C 48.129906 58.960617 48.095464 59.165047 48.027344 59.4375 C 47.995671 59.700662 47.960973 59.939469 47.855469 60.248047 C 47.789575 60.546411 47.614393 60.881898 47.417969 61.041016 C 47.172111 61.240174 47.043739 61.271024 46.925781 61.339844 L 46.798828 61.414062 L 46.65625 61.443359 C 45.771971 61.629607 45.445469 61.511072 44.519531 61.654297 L 44.46875 61.662109 L 44.417969 61.664062 C 43.981009 61.681544 43.715517 61.669747 43.488281 61.685547 C 43.495861 61.98739 43.505435 62.267487 43.505859 62.6875 C 43.514219 62.91614 43.517703 63.224233 43.533203 63.505859 C 43.548693 63.787486 43.625918 64.099792 43.580078 63.984375 L 43.591797 64.013672 L 43.601562 64.044922 C 43.628282 64.129242 43.800762 64.312307 43.9375 64.742188 C 43.978782 64.803804 44.098421 64.939943 44.216797 65.042969 C 44.428865 65.149346 44.614916 65.234026 44.710938 65.253906 L 45.521484 65.222656 C 45.630162 65.147699 45.744867 65.06776 45.835938 65 C 45.994239 64.882208 46.103369 64.753178 46.074219 64.798828 C 46.117734 64.703079 46.156114 64.603268 46.208984 64.523438 C 46.294531 64.394252 46.367607 64.301828 46.539062 64.052734 L 48.021484 65.072266 C 47.835815 65.342008 47.733534 65.480498 47.708984 65.517578 C 47.684484 65.554658 47.718931 65.482187 47.675781 65.597656 L 47.642578 65.6875 L 47.591797 65.767578 C 47.374673 66.107613 47.134877 66.279556 46.912109 66.445312 C 46.689341 66.611071 46.474685 66.749814 46.351562 66.839844 L 46.128906 67.001953 L 44.568359 67.060547 L 44.486328 67.048828 C 43.954734 66.971362 43.572149 66.747259 43.294922 66.601562 L 43.228516 66.566406 L 43.169922 66.521484 C 42.835446 66.267949 42.546788 65.971819 42.332031 65.574219 L 42.275391 65.46875 L 42.248047 65.353516 C 42.239992 65.319379 42.06858 65.115869 41.902344 64.625 C 41.744928 64.214672 41.754438 63.932585 41.736328 63.603516 C 41.717808 63.266891 41.713631 62.931946 41.707031 62.751953 L 41.707031 62.736328 L 41.707031 62.720703 C 41.706921 61.590854 41.662197 61.131814 41.662109 59.955078 L 41.662109 59.878906 L 41.673828 59.802734 C 41.739788 59.41989 41.750872 59.42295 41.763672 59.5 L 41.728516 59.292969 L 41.789062 59.091797 C 41.767132 59.164204 41.781209 59.125349 41.787109 59.001953 C 41.792803 58.882381 41.798423 58.66669 41.916016 58.392578 C 42.024922 57.99779 42.146324 57.706539 42.289062 57.351562 L 42.296875 57.333984 L 42.304688 57.316406 C 42.53679 56.802042 42.931354 56.35352 43.523438 56.111328 L 43.580078 56.087891 L 43.638672 56.074219 C 43.980117 55.985499 44.268135 55.930179 44.601562 55.917969 C 44.791453 55.894609 44.986761 55.873288 45.197266 55.878906 z M 51.738281 55.886719 L 51.773438 55.886719 C 52.231049 55.886339 52.433568 55.955207 52.648438 55.955078 L 52.814453 55.955078 L 52.970703 56.013672 C 53.360632 56.163061 53.428752 56.145711 53.783203 56.292969 L 53.814453 56.306641 L 53.845703 56.322266 C 54.252061 56.528459 54.594749 56.792936 54.945312 57.041016 L 53.90625 58.511719 C 53.544196 58.255507 53.231789 58.035013 53.048828 57.939453 C 52.899074 57.88076 52.73546 57.837251 52.455078 57.738281 C 52.188871 57.720971 51.970042 57.691953 51.804688 57.689453 C 51.76443 57.695481 51.738478 57.698862 51.728516 57.701172 C 51.700336 57.750827 51.538656 58.005436 51.455078 58.173828 L 51.4375 58.207031 L 51.419922 58.238281 C 51.464872 58.163625 51.430975 58.205209 51.421875 58.363281 C 51.414013 58.500612 51.412925 58.717269 51.357422 58.990234 C 51.382827 59.037078 51.471291 59.155387 51.601562 59.347656 C 51.695533 59.460784 51.798568 59.587509 51.830078 59.630859 C 51.875308 59.693079 51.837403 59.65075 51.845703 59.65625 L 51.867188 59.669922 L 51.886719 59.683594 C 52.03952 59.797845 52.04808 59.796945 52.125 59.828125 C 52.201916 59.859308 52.395418 59.925183 52.648438 60.060547 L 52.664062 60.068359 L 52.677734 60.078125 C 53.167481 60.364565 53.126596 60.366082 53.398438 60.505859 L 53.486328 60.550781 L 53.560547 60.615234 C 53.824958 60.835009 53.976556 61.026933 54.1875 61.253906 C 54.296587 61.338778 54.392649 61.403854 54.521484 61.513672 C 54.662578 61.633939 54.850529 61.846908 54.953125 62.087891 L 54.886719 61.962891 C 55.067075 62.250952 55.181562 62.407614 55.308594 62.6875 C 55.587273 63.215148 55.504653 63.61207 55.501953 63.78125 C 55.544749 64.399953 55.293483 64.896721 55.123047 65.203125 L 55.072266 65.292969 L 55.001953 65.371094 C 54.743122 65.654942 54.708174 65.725242 54.757812 65.576172 L 54.701172 65.744141 L 54.587891 65.876953 C 54.131919 66.410144 53.624029 66.570145 53.414062 66.699219 L 53.181641 66.84375 L 52.908203 66.832031 C 52.777579 66.826931 52.789039 66.828184 52.730469 66.833984 C 52.671896 66.839754 52.536328 66.856837 52.292969 66.873047 L 52.230469 66.876953 L 52.167969 66.873047 C 51.672125 66.83745 51.281331 66.68276 51.056641 66.625 L 50.957031 66.599609 L 50.867188 66.552734 C 50.521128 66.373878 50.199274 66.140565 49.865234 65.921875 L 50.851562 64.416016 C 51.186794 64.635484 51.474541 64.825179 51.628906 64.912109 C 51.907535 64.981809 52.224863 65.059959 52.257812 65.068359 C 52.376884 65.058819 52.471156 65.051169 52.554688 65.042969 C 52.585954 65.039869 52.640694 65.043016 52.677734 65.041016 C 52.879918 64.928167 53.063593 64.829526 53.162109 64.748047 C 53.298695 64.493472 53.449432 64.405174 53.548828 64.328125 C 53.55029 64.325625 53.549381 64.326719 53.550781 64.324219 C 53.693314 64.067514 53.716084 64.002483 53.708984 63.908203 L 53.707031 63.884766 L 53.707031 63.861328 C 53.698701 63.519206 53.652032 63.39941 53.726562 63.535156 L 53.705078 63.494141 L 53.6875 63.453125 C 53.611228 63.272643 53.597363 63.294959 53.361328 62.917969 L 53.330078 62.867188 C 53.290786 62.835738 53.190085 62.761674 53.033203 62.636719 L 52.986328 62.599609 L 52.943359 62.554688 C 52.664963 62.262496 52.555735 62.128248 52.4375 62.025391 C 52.235117 61.913841 52.126512 61.841687 51.798828 61.648438 C 51.653586 61.570734 51.60919 61.561744 51.447266 61.496094 C 51.293211 61.433637 51.072685 61.313883 50.839844 61.144531 C 50.623517 60.997328 50.455997 60.803566 50.373047 60.689453 C 50.288341 60.572919 50.269011 60.538009 50.212891 60.480469 L 50.15625 60.423828 L 50.111328 60.357422 C 50.044722 60.259118 49.90353 60.094906 49.761719 59.826172 C 49.619908 59.557438 49.497408 59.130566 49.585938 58.697266 L 49.589844 58.673828 L 49.595703 58.648438 C 49.596903 58.643833 49.609797 58.491048 49.623047 58.259766 C 49.636057 58.032718 49.657004 57.698623 49.873047 57.328125 C 49.955135 57.154342 50.110168 56.802331 50.447266 56.4375 C 50.866168 55.941585 51.403832 55.914315 51.703125 55.890625 L 51.738281 55.886719 z M 81.751953 56.302734 L 81.886719 66.595703 L 80.087891 66.619141 L 79.953125 56.328125 L 81.751953 56.302734 z M 75.429688 57.390625 L 75.367188 57.392578 C 75.303043 57.395398 75.1846 57.401809 75.035156 57.412109 C 74.984635 57.415609 74.939305 57.416522 74.890625 57.419922 C 74.70513 57.577806 74.58053 57.689197 74.298828 57.966797 C 74.30662 57.969664 74.239038 58.12411 74.205078 58.294922 C 74.167458 58.484143 74.15445 58.633066 74.154297 58.634766 L 74.154297 58.636719 C 74.132617 58.889314 74.093726 59.263845 74.066406 60.025391 L 74.066406 60.033203 L 74.066406 60.042969 C 74.006266 61.140114 74.024596 60.997494 74.066406 62.142578 L 74.066406 62.148438 C 74.091795 62.76216 74.093963 63.035962 74.242188 63.675781 C 74.309332 63.895876 74.473606 64.266265 74.621094 64.453125 L 74.638672 64.472656 L 74.652344 64.494141 C 74.915208 64.869245 74.937626 64.972194 75.181641 65.191406 L 75.208984 65.216797 L 75.234375 65.244141 C 75.173075 65.179241 75.31209 65.259512 75.375 65.257812 C 75.536496 65.251473 75.729402 65.177656 75.763672 65.160156 C 76.089042 64.925599 76.115994 64.87673 76.232422 64.660156 C 76.389327 64.338364 76.446142 64.056819 76.568359 63.585938 C 76.653959 62.966783 76.672703 62.455855 76.626953 61.183594 L 76.626953 61.138672 L 76.628906 61.09375 C 76.682245 60.244797 76.575135 60.018693 76.546875 58.714844 C 76.48724 58.477039 76.431269 58.343083 76.349609 58.193359 C 76.297753 58.098282 76.212799 57.913369 76.136719 57.763672 C 75.924171 57.599603 75.756828 57.466184 75.603516 57.396484 C 75.565546 57.397008 75.526186 57.397784 75.478516 57.396484 C 75.468686 57.396184 75.439087 57.390329 75.429688 57.390625 z M 44.783203 57.703125 L 44.736328 57.708984 L 44.689453 57.708984 C 44.511313 57.712554 44.403988 57.742358 44.183594 57.798828 C 44.115108 57.837778 43.996566 57.947848 43.947266 58.054688 C 43.774865 58.479912 43.692436 58.635057 43.617188 58.951172 L 43.597656 59.033203 L 43.589844 59.048828 C 43.587989 59.057799 43.587221 59.058836 43.585938 59.085938 C 43.58274 59.152993 43.574854 59.286504 43.542969 59.453125 C 43.540429 59.667055 43.502196 59.813587 43.46875 59.904297 C 43.783618 59.896147 44.148956 59.873134 44.345703 59.865234 C 45.259679 59.736862 45.637979 59.783322 46.148438 59.695312 C 46.248953 59.430314 46.207923 59.538913 46.251953 59.173828 L 46.259766 59.111328 L 46.275391 59.050781 C 46.333041 58.834581 46.33101 58.781744 46.34375 58.625 C 46.317365 58.503006 46.283967 58.366399 46.269531 58.300781 C 46.100139 58.14884 45.971386 57.979827 45.921875 57.894531 C 45.889925 57.839491 45.881984 57.842399 45.871094 57.824219 C 45.845794 57.817799 45.857079 57.819 45.818359 57.8125 C 45.708322 57.794139 45.573686 57.799485 45.308594 57.707031 C 45.32702 57.713211 44.991473 57.676905 44.783203 57.703125 z M 51.351562 59.023438 C 51.344975 59.053424 51.346158 59.073868 51.337891 59.105469 L 51.349609 59.056641 C 51.352632 59.041735 51.354436 59.042637 51.351562 59.023438 z M 52.609375 71.484375 L 52.632812 71.484375 L 52.65625 71.484375 C 52.912642 71.486275 53.119755 71.465955 53.404297 71.484375 C 53.679541 71.502194 54.003334 71.581602 54.328125 71.720703 C 54.998537 71.982635 55.416097 72.414244 55.753906 72.837891 L 55.855469 72.964844 L 55.90625 73.119141 C 56.105798 73.725299 56.216368 74.354148 56.300781 74.833984 L 56.314453 74.912109 L 56.314453 74.992188 C 56.312283 75.67767 56.305923 76.360983 56.220703 77.138672 C 56.191335 77.649818 56.09028 78.350924 55.619141 79.009766 L 55.566406 79.083984 L 55.501953 79.144531 C 55.426288 79.21541 55.350155 79.32499 55.164062 79.511719 C 55.005927 79.670395 54.701471 79.829094 54.388672 79.927734 C 54.270585 79.972369 54.124766 80.054719 54.041016 80.068359 C 53.898543 80.091559 53.772759 80.098516 53.654297 80.103516 C 53.417373 80.113516 53.154093 80.113628 53.189453 80.111328 L 53.173828 80.113281 L 53.158203 80.113281 C 52.922707 80.119951 52.671676 80.096617 52.46875 80.029297 C 52.265824 79.961975 52.184785 79.909096 52.050781 79.853516 L 51.958984 79.814453 L 51.878906 79.757812 C 51.821862 79.717748 51.631352 79.617086 51.408203 79.484375 C 51.185055 79.351664 50.90329 79.188885 50.662109 78.830078 L 50.636719 78.792969 L 50.615234 78.751953 C 50.37834 78.306791 50.147198 77.868414 50.011719 77.25 L 50.011719 77.248047 C 49.921639 76.856734 49.936041 76.543493 49.931641 76.214844 L 49.908203 76.214844 C 49.904703 76.119759 49.916063 76.076788 49.914062 75.986328 C 49.910234 75.883618 49.902735 75.782413 49.890625 75.671875 L 49.923828 75.667969 C 49.923268 74.922587 49.944912 74.22981 49.982422 73.65625 L 49.992188 73.501953 L 50.052734 73.361328 C 50.197574 73.024064 50.356715 72.766538 50.505859 72.580078 C 50.655003 72.393618 50.751326 72.302533 50.892578 72.115234 L 51.007812 71.960938 L 51.177734 71.869141 C 51.600699 71.636195 52.090401 71.507995 52.609375 71.484375 z M 43.978516 71.494141 L 43.978516 71.505859 C 44.681714 71.511179 44.937674 71.539209 45.964844 71.539062 L 46.136719 71.539062 L 46.294922 71.601562 C 46.843338 71.818899 47.052447 72.055854 47.117188 72.121094 C 47.285668 72.239457 47.465734 72.398483 47.552734 72.527344 C 47.651042 72.672949 47.641862 72.678779 47.701172 72.755859 L 47.734375 72.798828 L 47.763672 72.847656 C 47.893978 73.068867 47.991739 73.261419 48.042969 73.455078 C 48.094204 73.648737 48.091024 73.701472 48.152344 73.941406 L 48.179688 74.052734 L 48.179688 74.166016 C 48.179659 74.750761 48.07483 75.247989 47.84375 75.654297 L 47.830078 75.677734 L 47.814453 75.701172 C 47.566027 76.081504 47.303149 76.308314 47.052734 76.494141 L 48.669922 79.339844 L 47.105469 80.230469 L 45.279297 77.017578 C 44.838598 77.02845 44.373305 77.033293 44.052734 77.033203 L 44.089844 79.853516 L 42.291016 79.876953 L 42.177734 71.517578 L 43.978516 71.494141 z M 77.296875 71.572266 L 77.306641 73.373047 L 73.884766 73.390625 L 73.898438 74.628906 L 75.527344 74.628906 L 75.527344 76.427734 L 73.917969 76.427734 L 73.935547 77.994141 L 78.080078 77.955078 L 78.097656 79.753906 L 73.955078 79.792969 L 73.955078 79.810547 L 72.15625 79.830078 L 72.064453 71.605469 L 73.865234 71.585938 L 73.865234 71.591797 L 77.296875 71.572266 z M 57.863281 71.630859 L 59.664062 71.652344 C 59.639782 73.60429 59.708273 74.121559 59.751953 77.082031 C 59.729596 76.860037 59.769663 77.094626 59.845703 77.255859 C 59.914881 77.402543 59.992161 77.54872 60.050781 77.662109 C 60.09519 77.728437 60.271568 77.921548 60.4375 78.095703 C 60.591768 78.156299 60.815053 78.201419 61.115234 78.255859 L 61.421875 78.214844 C 61.416855 78.209348 61.421769 78.207688 61.505859 78.111328 C 61.595849 78.0082 61.702144 77.876953 61.810547 77.748047 C 61.857017 77.663219 61.875689 77.626339 61.886719 77.568359 C 61.896179 77.518622 61.937349 77.327004 61.974609 77.158203 C 61.954829 73.849527 61.922485 73.340817 61.953125 71.669922 L 63.751953 71.703125 C 63.721413 73.368324 63.755651 73.776381 63.775391 77.226562 L 63.775391 77.359375 L 63.738281 77.488281 C 63.690531 77.648956 63.692657 77.702615 63.654297 77.904297 C 63.615942 78.105979 63.519764 78.392853 63.353516 78.683594 L 63.306641 78.765625 L 63.244141 78.837891 C 63.181535 78.907844 63.033048 79.098132 62.861328 79.294922 C 62.689609 79.491712 62.535141 79.717074 62.115234 79.902344 L 61.998047 79.955078 L 61.048828 80.080078 L 60.908203 80.052734 C 60.569847 79.989129 60.080421 79.957613 59.529297 79.681641 L 59.40625 79.619141 L 59.306641 79.523438 C 59.03037 79.256227 58.746515 78.972886 58.521484 78.621094 L 58.5 78.585938 L 58.480469 78.548828 C 58.425136 78.441846 58.317467 78.236895 58.216797 78.023438 C 58.116127 77.809978 58.008634 77.729782 57.958984 77.265625 L 57.953125 77.222656 L 57.953125 77.181641 C 57.909925 74.136285 57.838091 73.655774 57.863281 71.630859 z M 65.572266 71.640625 L 70.449219 71.640625 L 70.449219 73.439453 L 68.833984 73.439453 L 68.853516 79.818359 L 67.054688 79.824219 L 67.033203 73.439453 L 65.572266 73.439453 L 65.572266 71.640625 z M 53.287109 73.28125 C 53.182886 73.27455 52.977237 73.283639 52.691406 73.283203 C 52.422861 73.295423 52.300328 73.346962 52.148438 73.419922 C 52.063963 73.519565 51.951539 73.655778 51.912109 73.705078 C 51.864264 73.764888 51.818654 73.860978 51.771484 73.955078 C 51.728794 74.589629 51.690266 75.197849 51.710938 75.988281 C 51.729706 76.345822 51.759125 76.817563 51.765625 76.845703 L 51.765625 76.851562 L 51.767578 76.859375 C 51.848698 77.235417 51.966755 77.443792 52.177734 77.839844 C 52.166104 77.81793 52.202121 77.8614 52.330078 77.9375 C 52.445181 78.005954 52.617081 78.101703 52.791016 78.210938 C 52.931158 78.270501 53.046009 78.323212 53.037109 78.320312 C 53.029399 78.317712 53.053621 78.317506 53.087891 78.316406 C 53.285734 78.304625 53.423253 78.311288 53.578125 78.304688 C 53.620495 78.302886 53.638362 78.299675 53.669922 78.296875 L 53.699219 78.275391 L 53.894531 78.236328 C 53.92306 78.206979 54.045396 78.07393 54.15625 77.955078 C 54.377391 77.643049 54.402421 77.443511 54.425781 77.03125 L 54.427734 77.005859 L 54.431641 76.980469 C 54.506321 76.322398 54.509319 75.730529 54.511719 75.068359 C 54.441967 74.676774 54.348261 74.24933 54.238281 73.869141 C 54.042323 73.68204 53.692795 73.400578 53.671875 73.392578 L 53.650391 73.384766 L 53.630859 73.375 C 53.44798 73.29417 53.399534 73.28855 53.287109 73.28125 z M 44.001953 73.304688 L 44.027344 75.232422 C 44.441867 75.232201 45.145314 75.232136 45.552734 75.212891 L 45.697266 75.207031 L 45.740234 75.21875 C 45.741634 75.21765 45.746547 75.214091 45.748047 75.212891 C 45.758877 75.212791 45.724475 75.209731 45.734375 75.207031 C 45.751945 75.202231 45.751808 75.202166 45.767578 75.197266 C 45.895473 75.092369 46.253813 74.760548 46.283203 74.736328 C 46.400343 74.537484 46.377694 74.566825 46.371094 74.222656 C 46.341394 74.088575 46.302362 73.912662 46.302734 73.914062 C 46.303274 73.916124 46.311257 73.928112 46.216797 73.767578 C 46.157786 73.681747 46.109856 73.613757 46.097656 73.591797 L 46.037109 73.550781 L 45.974609 73.496094 C 45.731956 73.273684 45.800416 73.348664 45.722656 73.333984 C 44.958065 73.328803 44.563965 73.309549 44.001953 73.304688 z M 45.763672 75.21875 L 45.755859 75.222656 L 45.837891 75.246094 C 45.616104 75.183974 45.716122 75.21125 45.763672 75.21875 z "
     id="path4528" />
</svg>
